<svg xmlns="http://www.w3.org/2000/svg" width="24" height="24" viewBox="0 0 24 24">
  <g fill="none" fill-rule="evenodd">
    <path fill="#000000" d="M19.5130435,16.0305913 C19.5130435,18.0700777 18.551689,19.2049462 17.2530121,19.6880785 C16.8481724,19.8376275 16.431529,19.907113 16.0106087,19.907113 C15.6017471,19.907113 15.2062584,19.8421821 14.8342472,19.7308361 C14.5860769,19.6565568 14.3844697,19.5734637 14.239097,19.4997895 C13.0796475,18.9924302 12.160534,18.0335266 11.4300262,16.5746315 C10.31506,14.3451196 9.58748427,13.7485424 8.38715447,13.4785748 L8.33763865,13.4675118 C7.87717483,13.3626283 6.989611,13.5155396 6.43084201,13.9595758 C5.89101968,14.3887667 5.61547826,15.0800614 5.61547826,16.0243304 C5.61547826,16.7724623 5.73905412,17.1794309 6.11274306,17.6673528 C6.5219308,18.2263456 7.32989077,18.6851514 8.54230151,18.4551339 C8.73702963,18.4175548 8.94562916,18.3406409 9.1646443,18.2161917 L8.7960042,17.8848119 L8.77063221,17.8620285 C8.68769722,17.7878897 8.68106393,17.6610768 8.75487412,17.5812801 C8.78206699,17.5502025 8.81792854,17.5297581 8.86527032,17.5190091 L11.0759493,16.9088378 L11.1281739,16.9039826 C11.177212,16.9039826 11.2240068,16.9208153 11.2576312,16.9523404 C11.3009633,16.9894822 11.324567,17.0427591 11.3258878,17.1031016 L11.323871,17.1444691 L10.958087,19.3754609 C10.958087,19.4308865 10.9413273,19.4782078 10.9063134,19.517078 C10.832411,19.5959908 10.7067018,19.6021606 10.6268018,19.5298689 L10.1872144,19.1352751 C9.71265124,19.4740921 9.24009269,19.6732877 8.79223091,19.7584445 C7.74390396,19.9583734 6.83665403,19.7851481 6.0738759,19.3459178 C5.59114257,19.0679456 5.24998886,18.7390681 5.04874667,18.4662463 C4.49859911,17.7457894 4.28295652,17.0563255 4.28295652,16.0243304 C4.28295652,14.5749297 4.79133863,13.5643718 5.60049565,12.922276 C6.52464296,12.1880754 7.8224823,11.9905037 8.63302214,12.173161 L8.68067808,12.1840395 C10.285203,12.5451746 11.2942932,13.3270731 12.6231883,15.9827193 C13.2795764,17.2950685 13.9610364,17.9323469 14.7923301,18.2921767 L14.8448551,18.3175731 C15.2489659,18.5484936 16.0464696,18.7192306 16.7877591,18.4435753 C17.6446021,18.1261766 18.1805217,17.3788493 18.1805217,16.0305913 C18.1805217,15.089769 17.9000998,14.3987293 17.3505469,13.9672907 C16.7779089,13.5173033 15.8557811,13.3591527 15.406635,13.4655966 L15.3432049,13.4809224 C14.469459,13.6853789 13.9181409,14.019325 13.142234,15.0863913 C13.13054,15.1042864 13.13054,15.1042864 13.1209207,15.1170238 C13.0665402,15.1745049 13.013847,15.1963304 12.957913,15.1963304 C12.8781947,15.1963304 12.8073976,15.1516836 12.7630141,15.0651228 C12.6388244,14.8377933 12.4853672,14.5729325 12.3084501,14.2782911 L12.2807285,14.2323122 C12.2632531,14.2008566 12.254087,14.166853 12.254087,14.1304174 C12.254087,14.0863748 12.2687585,14.0461748 12.299772,14.0021707 C12.3158737,13.9825527 12.3158737,13.9825527 12.3210607,13.9760833 C13.2452025,12.8346171 13.962896,12.4412217 15.0388245,12.1882867 L15.0973082,12.174953 C15.9166881,11.9804956 17.2659809,12.2100594 18.1762425,12.9255495 C18.9971455,13.5706511 19.5130435,14.5823486 19.5130435,16.0305913 Z"/>
    <polygon fill="#000000" points="2.354 3.637 2.361 3.637 2.361 7.362 3.179 7.362 3.179 2.496 2.526 2.496 1.773 3.379 1.773 4.233 1.78 4.233"/>
    <path fill="#000000" d="M3.66704348 3.50133913L3.66704348 4.08933913 4.41313043 4.08933913 4.41313043 3.47942609C4.41313043 3.18568696 4.55713043 3.09907826 4.72930435 3.09907826 4.8873913 3.09907826 5.02356522 3.16377391 5.02356522 3.46533913L5.02356522 3.86707826C5.02356522 4.26933913 4.98756522 4.42690435 4.722 4.70655652L4.26286957 5.19490435C3.81782609 5.66864348 3.65243478 5.98429565 3.65243478 6.46533913L3.65243478 7.3622087 5.77695652 7.3622087 5.77695652 6.69490435 4.43452174 6.69490435 4.43452174 6.46533913C4.43452174 6.0849913 4.57121739 5.94151304 4.7793913 5.71873043L5.30321739 5.1662087C5.72686957 4.71438261 5.82026087 4.42690435 5.82026087 3.93907826L5.82026087 3.46533913C5.82026087 2.76933913 5.48321739 2.43907826 4.75069565 2.43907826 4.03278261 2.43907826 3.66704348 2.81942609 3.66704348 3.50133913M8.03853913 3.59452174L8.03853913 4.5273913 7.6968 4.5273913 7.6968 2.49365217 8.19453913 2.49365217C8.5394087 2.49365217 8.66566957 2.66478261 8.66566957 2.94965217L8.66566957 3.21052174C8.66566957 3.42965217 8.5874087 3.55852174 8.3928 3.6033913L8.7194087 4.5273913 8.3594087 4.5273913 8.03853913 3.59452174zM8.03853913 2.77278261L8.03853913 3.40565217 8.1528 3.40565217C8.26966957 3.40565217 8.32027826 3.34565217 8.32027826 3.23765217L8.32027826 2.93765217C8.32027826 2.82652174 8.26966957 2.77278261 8.1528 2.77278261L8.03853913 2.77278261z"/>
    <polygon fill="#000000" points="8.809 2.493 9.625 2.493 9.625 2.773 9.151 2.773 9.151 3.354 9.491 3.354 9.491 3.63 9.151 3.63 9.151 4.249 9.625 4.249 9.625 4.527 8.809 4.527"/>
    <path fill="#000000" d="M9.73314783 4.08949565L9.73314783 3.81662609 10.0514087 3.81662609 10.0514087 4.09523478C10.0514087 4.20949565 10.1020174 4.27575652 10.2194087 4.27575652 10.3274087 4.27575652 10.3754087 4.20375652 10.3754087 4.09523478L10.3754087 4.01749565C10.3754087 3.90062609 10.3274087 3.82862609 10.2225391 3.72949565L10.0211478 3.52862609C9.82601739 3.33662609 9.73627826 3.21975652 9.73627826 2.98549565L9.73627826 2.91662609C9.73627826 2.66462609 9.8834087 2.46949565 10.2162783 2.46949565 10.5580174 2.46949565 10.6931478 2.63749565 10.6931478 2.93175652L10.6931478 3.09662609 10.3811478 3.09662609 10.3811478 2.91975652C10.3811478 2.80236522 10.3274087 2.74549565 10.2194087 2.74549565 10.1234087 2.74549565 10.0571478 2.79975652 10.0571478 2.91349565L10.0571478 2.95575652C10.0571478 3.06949565 10.1202783 3.13575652 10.2194087 3.23175652L10.4385391 3.44775652C10.6242783 3.63662609 10.7140174 3.75036522 10.7140174 3.97523478L10.7140174 4.07436522C10.7140174 4.35349565 10.5642783 4.55123478 10.2162783 4.55123478 9.86827826 4.55123478 9.73314783 4.35662609 9.73314783 4.08949565M10.8517565 2.49349565L11.358887 2.49349565C11.7037565 2.49349565 11.8300174 2.66462609 11.8300174 2.94949565L11.8300174 3.37836522C11.8300174 3.66323478 11.7037565 3.83749565 11.358887 3.83749565L11.1934957 3.83749565 11.1934957 4.52723478 10.8517565 4.52723478 10.8517565 2.49349565zM11.1934957 2.77262609L11.1934957 3.57349565 11.3197565 3.57349565C11.4366261 3.57349565 11.4877565 3.51662609 11.4877565 3.40549565L11.4877565 2.93749565C11.4877565 2.82636522 11.4366261 2.77262609 11.3197565 2.77262609L11.1934957 2.77262609zM11.9644696 4.00241739L11.9644696 3.01841739C11.9644696 2.70067826 12.1204696 2.46954783 12.4804696 2.46954783 12.8436 2.46954783 12.9996 2.70067826 12.9996 3.01841739L12.9996 4.00241739C12.9996 4.31754783 12.8436 4.55128696 12.4804696 4.55128696 12.1204696 4.55128696 11.9644696 4.31754783 11.9644696 4.00241739M12.6573391 4.05667826L12.6573391 2.96467826C12.6573391 2.84154783 12.6036 2.75441739 12.4804696 2.75441739 12.3604696 2.75441739 12.3062087 2.84154783 12.3062087 2.96467826L12.3062087 4.05667826C12.3062087 4.17928696 12.3604696 4.26641739 12.4804696 4.26641739 12.6036 4.26641739 12.6573391 4.17928696 12.6573391 4.05667826"/>
    <polygon fill="#000000" points="13.44 3.25 13.44 4.527 13.152 4.527 13.152 2.494 13.488 2.494 13.857 3.66 13.857 2.494 14.142 2.494 14.142 4.527 13.843 4.527"/>
    <path fill="#000000" d="M14.2769739,4.08949565 L14.2769739,3.81662609 L14.5952348,3.81662609 L14.5952348,4.09523478 C14.5952348,4.20949565 14.6458435,4.27575652 14.7632348,4.27575652 C14.8712348,4.27575652 14.9192348,4.20375652 14.9192348,4.09523478 L14.9192348,4.01749565 C14.9192348,3.90062609 14.8712348,3.82862609 14.7663652,3.72949565 L14.5649739,3.52862609 C14.3698435,3.33662609 14.2801043,3.21975652 14.2801043,2.98549565 L14.2801043,2.91662609 C14.2801043,2.66462609 14.4272348,2.46949565 14.7601043,2.46949565 C15.1018435,2.46949565 15.2369739,2.63749565 15.2369739,2.93175652 L15.2369739,3.09662609 L14.9249739,3.09662609 L14.9249739,2.91975652 C14.9249739,2.80236522 14.8712348,2.74549565 14.7632348,2.74549565 C14.6672348,2.74549565 14.6009739,2.79975652 14.6009739,2.91349565 L14.6009739,2.95575652 C14.6009739,3.06949565 14.6641043,3.13575652 14.7632348,3.23175652 L14.9818435,3.44775652 C15.1681043,3.63662609 15.2578435,3.75036522 15.2578435,3.97523478 L15.2578435,4.07436522 C15.2578435,4.35349565 15.1081043,4.55123478 14.7601043,4.55123478 C14.4121043,4.55123478 14.2769739,4.35662609 14.2769739,4.08949565"/>
    <polygon fill="#000000" points="15.395 4.527 15.737 4.527 15.737 2.493 15.395 2.493"/>
    <path fill="#000000" d="M15.8934261,2.49349565 L16.3885565,2.49349565 C16.7302957,2.49349565 16.8445565,2.65262609 16.8445565,2.94062609 L16.8445565,3.14775652 C16.8445565,3.31836522 16.7814261,3.42636522 16.6405565,3.47175652 C16.8111652,3.51036522 16.895687,3.62462609 16.895687,3.81036522 L16.895687,4.08062609 C16.895687,4.36862609 16.7662957,4.52723478 16.4245565,4.52723478 L15.8934261,4.52723478 L15.8934261,2.49349565 Z M16.2351652,3.35175652 L16.3551652,3.35175652 C16.4662957,3.35175652 16.5174261,3.29436522 16.5174261,3.18636522 L16.5174261,2.93749565 C16.5174261,2.82636522 16.4662957,2.77262609 16.3525565,2.77262609 L16.2351652,2.77262609 L16.2351652,3.35175652 Z M16.2351652,3.61262609 L16.2351652,4.24862609 L16.3854261,4.24862609 C16.4991652,4.24862609 16.5534261,4.19123478 16.5534261,4.08375652 L16.5534261,3.77749565 C16.5534261,3.66949565 16.5022957,3.61262609 16.3822957,3.61262609 L16.2351652,3.61262609 Z"/>
    <polygon fill="#000000" points="17.024 2.493 17.366 2.493 17.366 4.249 17.774 4.249 17.774 4.527 17.024 4.527"/>
    <polygon fill="#000000" points="17.888 2.493 18.704 2.493 18.704 2.773 18.23 2.773 18.23 3.354 18.569 3.354 18.569 3.63 18.23 3.63 18.23 4.249 18.704 4.249 18.704 4.527 17.888 4.527"/>
    <path fill="#000000" d="M7.6965913 6.85158261L7.6965913 5.86758261C7.6965913 5.54984348 7.84633043 5.31871304 8.20633043 5.31871304 8.5845913 5.31871304 8.68946087 5.52845217 8.68946087 5.82897391L8.68946087 6.06897391 8.37746087 6.06897391 8.37746087 5.80184348C8.37746087 5.67558261 8.33572174 5.60358261 8.2125913 5.60358261 8.08946087 5.60358261 8.03833043 5.69071304 8.03833043 5.81384348L8.03833043 6.90584348C8.03833043 7.02845217 8.08946087 7.11558261 8.2125913 7.11558261 8.33572174 7.11558261 8.37746087 7.03784348 8.37746087 6.91784348L8.37746087 6.54271304 8.68946087 6.54271304 8.68946087 6.89384348C8.68946087 7.18445217 8.56946087 7.40045217 8.20633043 7.40045217 7.84633043 7.40045217 7.6965913 7.16671304 7.6965913 6.85158261M8.83325217 6.85158261L8.83325217 5.86758261C8.83325217 5.54984348 8.98925217 5.31871304 9.34925217 5.31871304 9.71238261 5.31871304 9.86838261 5.54984348 9.86838261 5.86758261L9.86838261 6.85158261C9.86838261 7.16671304 9.71238261 7.40045217 9.34925217 7.40045217 8.98925217 7.40045217 8.83325217 7.16671304 8.83325217 6.85158261M9.52612174 6.90584348L9.52612174 5.81384348C9.52612174 5.69071304 9.47238261 5.60358261 9.34925217 5.60358261 9.22925217 5.60358261 9.1749913 5.69071304 9.1749913 5.81384348L9.1749913 6.90584348C9.1749913 7.02845217 9.22925217 7.11558261 9.34925217 7.11558261 9.47238261 7.11558261 9.52612174 7.02845217 9.52612174 6.90584348"/>
    <polygon fill="#000000" points="10.309 6.099 10.309 7.376 10.021 7.376 10.021 5.343 10.357 5.343 10.726 6.51 10.726 5.343 11.011 5.343 11.011 7.376 10.711 7.376"/>
    <path fill="#000000" d="M11.1454957 6.93866087L11.1454957 6.6657913 11.4637565 6.6657913 11.4637565 6.9444C11.4637565 7.05866087 11.514887 7.12492174 11.6317565 7.12492174 11.7397565 7.12492174 11.7877565 7.05292174 11.7877565 6.9444L11.7877565 6.86666087C11.7877565 6.7497913 11.7397565 6.6777913 11.634887 6.57866087L11.4334957 6.3777913C11.2383652 6.1857913 11.1486261 6.06892174 11.1486261 5.83466087L11.1486261 5.7657913C11.1486261 5.5137913 11.2957565 5.31866087 11.6286261 5.31866087 11.970887 5.31866087 12.1054957 5.48666087 12.1054957 5.78092174L12.1054957 5.9457913 11.7934957 5.9457913 11.7934957 5.7684C11.7934957 5.65153043 11.7397565 5.59466087 11.6317565 5.59466087 11.5357565 5.59466087 11.4694957 5.6484 11.4694957 5.76266087L11.4694957 5.80492174C11.4694957 5.91866087 11.5326261 5.9844 11.6317565 6.0804L11.850887 6.2964C12.0366261 6.4857913 12.1263652 6.59953043 12.1263652 6.8244L12.1263652 6.92353043C12.1263652 7.20266087 11.9766261 7.4004 11.6286261 7.4004 11.2806261 7.4004 11.1454957 7.2057913 11.1454957 6.93866087M13.257287 5.3426087L13.257287 6.88173913C13.257287 7.19686957 13.1221565 7.40086957 12.7741565 7.40086957 12.4141565 7.40086957 12.2644174 7.19686957 12.2644174 6.88173913L12.2644174 5.3426087 12.6061565 5.3426087 12.6061565 6.9146087C12.6061565 7.0346087 12.6541565 7.11547826 12.7741565 7.11547826 12.8941565 7.11547826 12.9421565 7.0346087 12.9421565 6.9146087L12.9421565 5.3426087 13.257287 5.3426087z"/>
    <polygon fill="#000000" points="14.352 6.057 14.343 6.057 14.112 7.377 13.953 7.377 13.698 6.057 13.692 6.057 13.692 7.377 13.41 7.377 13.41 5.342 13.809 5.342 14.031 6.489 14.034 6.489 14.232 5.342 14.664 5.342 14.664 7.377 14.352 7.377"/>
    <path fill="#000000" d="M14.8166609,5.3426087 L15.3237913,5.3426087 C15.6686609,5.3426087 15.7949217,5.51373913 15.7949217,5.7986087 L15.7949217,6.22747826 C15.7949217,6.51286957 15.6686609,6.6866087 15.3237913,6.6866087 L15.1584,6.6866087 L15.1584,7.37686957 L14.8166609,7.37686957 L14.8166609,5.3426087 Z M15.1584,5.62173913 L15.1584,6.4226087 L15.2846609,6.4226087 C15.4015304,6.4226087 15.4526609,6.36573913 15.4526609,6.2546087 L15.4526609,5.7866087 C15.4526609,5.67547826 15.4015304,5.62173913 15.2846609,5.62173913 L15.1584,5.62173913 Z"/>
    <polygon fill="#000000" points="15.876 5.343 16.784 5.343 16.784 5.622 16.503 5.622 16.503 7.377 16.157 7.377 16.157 5.622 15.876 5.622"/>
    <polygon fill="#000000" points="16.901 7.377 17.243 7.377 17.243 5.343 16.901 5.343"/>
    <path fill="#000000" d="M17.3990609,6.85158261 L17.3990609,5.86758261 C17.3990609,5.54984348 17.5550609,5.31871304 17.9150609,5.31871304 C18.2781913,5.31871304 18.4341913,5.54984348 18.4341913,5.86758261 L18.4341913,6.85158261 C18.4341913,7.16671304 18.2781913,7.40045217 17.9150609,7.40045217 C17.5550609,7.40045217 17.3990609,7.16671304 17.3990609,6.85158261 M18.0919304,6.90584348 L18.0919304,5.81384348 C18.0919304,5.69071304 18.0381913,5.60358261 17.9150609,5.60358261 C17.7950609,5.60358261 17.7408,5.69071304 17.7408,5.81384348 L17.7408,6.90584348 C17.7408,7.02845217 17.7950609,7.11558261 17.9150609,7.11558261 C18.0381913,7.11558261 18.0919304,7.02845217 18.0919304,6.90584348"/>
    <polygon fill="#000000" points="18.875 6.099 18.875 7.376 18.587 7.376 18.587 5.343 18.923 5.343 19.292 6.51 19.292 5.343 19.576 5.343 19.576 7.376 19.277 7.376"/>
    <path fill="#000000" d="M7.64264348,10.2259826 L8.02664348,8.19172174 L8.41638261,8.19172174 L8.80351304,10.2259826 L8.45290435,10.2259826 L8.38977391,9.85398261 L8.02664348,9.85398261 L7.96664348,10.2259826 L7.64264348,10.2259826 Z M8.07151304,9.58111304 L8.34438261,9.58111304 L8.20977391,8.76511304 L8.20664348,8.76511304 L8.07151304,9.58111304 Z"/>
    <polygon fill="#000000" points="9.19 8.948 9.19 10.226 8.902 10.226 8.902 8.192 9.238 8.192 9.607 9.359 9.607 8.192 9.892 8.192 9.892 10.226 9.593 10.226"/>
    <path fill="#000000" d="M11.0680174 8.73803478L11.0680174 9.67977391C11.0680174 9.99177391 10.9386261 10.2260348 10.572887 10.2260348L10.044887 10.2260348 10.044887 8.19177391 10.572887 8.19177391C10.9386261 8.19177391 11.0680174 8.42290435 11.0680174 8.73803478zM10.5311478 9.94690435C10.6720174 9.94690435 10.7262783 9.86290435 10.7262783 9.73977391L10.7262783 8.67490435C10.7262783 8.55490435 10.6720174 8.47090435 10.5311478 8.47090435L10.3866261 8.47090435 10.3866261 9.94690435 10.5311478 9.94690435zM11.6930087 8.19198261L12.2001391 8.19198261C12.5450087 8.19198261 12.6712696 8.36311304 12.6712696 8.64798261L12.6712696 9.07685217C12.6712696 9.36224348 12.5450087 9.53598261 12.2001391 9.53598261L12.0347478 9.53598261 12.0347478 10.2262435 11.6930087 10.2262435 11.6930087 8.19198261zM12.0347478 8.47111304L12.0347478 9.27198261 12.1610087 9.27198261C12.2784 9.27198261 12.3290087 9.21511304 12.3290087 9.10398261L12.3290087 8.63598261C12.3290087 8.52485217 12.2784 8.47111304 12.1610087 8.47111304L12.0347478 8.47111304zM13.1478783 9.2930087L13.1478783 10.2258783 12.8061391 10.2258783 12.8061391 8.19213913 13.3038783 8.19213913C13.6487478 8.19213913 13.7750087 8.36274783 13.7750087 8.64813913L13.7750087 8.9090087C13.7750087 9.12813913 13.6967478 9.2570087 13.5021391 9.30187826L13.8292696 10.2258783 13.4687478 10.2258783 13.1478783 9.2930087zM13.1478783 8.47126957L13.1478783 9.10413913 13.2621391 9.10413913C13.3790087 9.10413913 13.4301391 9.04413913 13.4301391 8.93613913L13.4301391 8.63613913C13.4301391 8.5250087 13.3790087 8.47126957 13.2621391 8.47126957L13.1478783 8.47126957zM13.9185913 9.7010087L13.9185913 8.7170087C13.9185913 8.39926957 14.0745913 8.16813913 14.4345913 8.16813913 14.7977217 8.16813913 14.9537217 8.39926957 14.9537217 8.7170087L14.9537217 9.7010087C14.9537217 10.0161391 14.7977217 10.2498783 14.4345913 10.2498783 14.0745913 10.2498783 13.9185913 10.0161391 13.9185913 9.7010087M14.6114609 9.75474783L14.6114609 8.66326957C14.6114609 8.54013913 14.5577217 8.4530087 14.4345913 8.4530087 14.3145913 8.4530087 14.2603304 8.54013913 14.2603304 8.66326957L14.2603304 9.75474783C14.2603304 9.87787826 14.3145913 9.9650087 14.4345913 9.9650087 14.5577217 9.9650087 14.6114609 9.87787826 14.6114609 9.75474783M16.1293565 8.73803478L16.1293565 9.67977391C16.1293565 9.99177391 15.9999652 10.2260348 15.6342261 10.2260348L15.1062261 10.2260348 15.1062261 8.19177391 15.6342261 8.19177391C15.9999652 8.19177391 16.1293565 8.42290435 16.1293565 8.73803478zM15.5919652 9.94690435C15.7333565 9.94690435 15.7870957 9.86290435 15.7870957 9.73977391L15.7870957 8.67490435C15.7870957 8.55490435 15.7333565 8.47090435 15.5919652 8.47090435L15.4479652 8.47090435 15.4479652 9.94690435 15.5919652 9.94690435zM17.2747304 8.19198261L17.2747304 9.73111304C17.2747304 10.0457217 17.1401217 10.2502435 16.7916 10.2502435 16.4316 10.2502435 16.2818609 10.0457217 16.2818609 9.73111304L16.2818609 8.19198261 16.6236 8.19198261 16.6236 9.76398261C16.6236 9.88398261 16.6716 9.96485217 16.7916 9.96485217 16.9116 9.96485217 16.9596 9.88398261 16.9596 9.76398261L16.9596 8.19198261 17.2747304 8.19198261zM17.4274435 9.7010087L17.4274435 8.7170087C17.4274435 8.39926957 17.5771826 8.16813913 17.9371826 8.16813913 18.3154435 8.16813913 18.420313 8.37787826 18.420313 8.67787826L18.420313 8.91787826 18.108313 8.91787826 18.108313 8.65074783C18.108313 8.5250087 18.0665739 8.4530087 17.9434435 8.4530087 17.820313 8.4530087 17.7691826 8.54013913 17.7691826 8.66326957L17.7691826 9.75474783C17.7691826 9.87787826 17.820313 9.9650087 17.9434435 9.9650087 18.0665739 9.9650087 18.108313 9.88726957 18.108313 9.76726957L18.108313 9.39213913 18.420313 9.39213913 18.420313 9.74326957C18.420313 10.0338783 18.300313 10.2498783 17.9371826 10.2498783 17.5771826 10.2498783 17.4274435 10.0161391 17.4274435 9.7010087"/>
    <polygon fill="#000000" points="18.495 8.192 19.404 8.192 19.404 8.471 19.122 8.471 19.122 10.226 18.777 10.226 18.777 8.471 18.495 8.471"/>
    <polygon fill="#000000" points="19.521 10.226 19.863 10.226 19.863 8.192 19.521 8.192"/>
    <path fill="#000000" d="M20.0187652,9.7010087 L20.0187652,8.7170087 C20.0187652,8.39926957 20.1747652,8.16813913 20.5347652,8.16813913 C20.8978957,8.16813913 21.0538957,8.39926957 21.0538957,8.7170087 L21.0538957,9.7010087 C21.0538957,10.0161391 20.8978957,10.2498783 20.5347652,10.2498783 C20.1747652,10.2498783 20.0187652,10.0161391 20.0187652,9.7010087 M20.7116348,9.75474783 L20.7116348,8.66326957 C20.7116348,8.54013913 20.6578957,8.4530087 20.5347652,8.4530087 C20.4147652,8.4530087 20.3605043,8.54013913 20.3605043,8.66326957 L20.3605043,9.75474783 C20.3605043,9.87787826 20.4147652,9.9650087 20.5347652,9.9650087 C20.6578957,9.9650087 20.7116348,9.87787826 20.7116348,9.75474783"/>
    <polygon fill="#000000" points="21.495 8.948 21.495 10.226 21.207 10.226 21.207 8.192 21.543 8.192 21.912 9.359 21.912 8.192 22.196 8.192 22.196 10.226 21.897 10.226"/>
  </g>
</svg>
