<svg xmlns="http://www.w3.org/2000/svg" width="24" height="24" viewBox="0 0 24 24">
  <g fill="none" fill-rule="evenodd">
    <polygon fill="#000000" points="11.168 13.406 6.839 10.907 6.839 18.991 11.168 20.297"/>
    <polygon fill="#000000" points="11.644 13.422 11.644 20.3 16 18.99 16 10.907"/>
    <polygon fill="#000000" points="18.5 18.848 18.373 18.848 18.885 20.638 19.397 18.848 19.27 18.848 19.397 18.848 19.397 11.655 19.27 11.655 19.143 11.655 19.008 11.655 18.753 11.655 18.628 11.655 18.5 11.655 18.373 11.655 18.373 18.848"/>
    <polygon fill="#000000" points="16.929 11.254 16.466 10.887 16.466 19.211 11.656 20.765 11.434 20.765 11.39 20.765 11.168 20.765 6.38 19.427 6.38 10.887 5.916 11.254 5.916 19.753 11.145 21.2 11.678 21.2 16.503 19.669 16.929 19.543"/>
    <path fill="#000000" d="M19.3973217 10.7021739C19.3973217 10.4188696 19.1677565 10.1898261 18.8854957 10.1898261 18.6021913 10.1898261 18.3731478 10.4188696 18.3731478 10.7021739L18.3731478 11.2541739 19.3973217 11.2541739 19.3973217 10.7021739zM4.24711304 7.35433043L5.02189565 7.35433043 5.02189565 6.56493913 5.35267826 6.56493913 5.35267826 5.92633043 5.02189565 5.92633043 5.02189565 2.4885913 4.21789565 2.4885913 2.80450435 6.06250435 2.80450435 6.56493913 4.24711304 6.56493913 4.24711304 7.35433043zM3.52241739 5.92633043L4.25389565 3.92389565 4.2612 3.92389565 4.2612 5.92633043 3.52241739 5.92633043zM7.96674783 4.71667826L7.96674783 4.57841739C7.69387826 4.53041739 7.5770087 4.32954783 7.5770087 4.05354783L7.5770087 3.06954783C7.5770087 2.7518087 7.7330087 2.52067826 8.0930087 2.52067826 8.45561739 2.52067826 8.61161739 2.7518087 8.61161739 3.06954783L8.61161739 4.05354783C8.61161739 4.2758087 8.53387826 4.44954783 8.35961739 4.53354783L8.61161739 4.58154783 8.61161739 4.83667826 7.96674783 4.71667826zM8.26987826 4.12554783L8.26987826 3.0158087C8.26987826 2.89267826 8.21561739 2.80554783 8.0930087 2.80554783 7.9730087 2.80554783 7.91874783 2.89267826 7.91874783 3.0158087L7.91874783 4.12554783C7.91874783 4.24554783 7.9730087 4.3358087 8.0930087 4.3358087 8.21561739 4.3358087 8.26987826 4.24554783 8.26987826 4.12554783zM9.7994087 2.54462609L9.7994087 4.08375652C9.7994087 4.39888696 9.6648 4.60288696 9.31627826 4.60288696 8.95627826 4.60288696 8.80653913 4.39888696 8.80653913 4.08375652L8.80653913 2.54462609 9.14827826 2.54462609 9.14827826 4.11662609C9.14827826 4.23662609 9.19627826 4.31749565 9.31627826 4.31749565 9.43627826 4.31749565 9.48427826 4.23662609 9.48427826 4.11662609L9.48427826 2.54462609 9.7994087 2.54462609zM9.8952 4.57867826L10.2792 2.54441739 10.6689391 2.54441739 11.0560696 4.57867826 10.7054609 4.57867826 10.6423304 4.20667826 10.2792 4.20667826 10.2192 4.57867826 9.8952 4.57867826zM10.3240696 3.9338087L10.5969391 3.9338087 10.4618087 3.1178087 10.4592 3.1178087 10.3240696 3.9338087z"/>
    <polygon fill="#000000" points="11.197 2.545 11.538 2.545 11.538 4.3 11.946 4.3 11.946 4.579 11.197 4.579"/>
    <polygon fill="#000000" points="12.103 4.579 12.445 4.579 12.445 2.545 12.103 2.545"/>
    <polygon fill="#000000" points="12.603 2.545 13.512 2.545 13.512 2.824 13.23 2.824 13.23 4.579 12.886 4.579 12.886 2.824 12.603 2.824"/>
    <polygon fill="#000000" points="14.337 3.805 14.337 4.578 13.996 4.578 13.996 3.805 13.614 2.545 13.972 2.545 14.178 3.316 14.181 3.316 14.388 2.545 14.716 2.545"/>
    <polygon fill="#000000" points="7.577 5.394 8.393 5.394 8.393 5.673 7.918 5.673 7.918 6.255 8.258 6.255 8.258 6.531 7.918 6.531 7.918 7.149 8.393 7.149 8.393 7.428 7.577 7.428"/>
    <path fill="#000000" d="M9.59869565 5.93984348L9.59869565 6.88158261C9.59869565 7.19358261 9.46982609 7.42784348 9.10356522 7.42784348L8.57556522 7.42784348 8.57556522 5.39358261 9.10356522 5.39358261C9.46982609 5.39358261 9.59869565 5.62471304 9.59869565 5.93984348zM9.06130435 7.14871304C9.20269565 7.14871304 9.25643478 7.06471304 9.25643478 6.94210435L9.25643478 5.87671304C9.25643478 5.75671304 9.20269565 5.67271304 9.06130435 5.67271304L8.91782609 5.67271304 8.91782609 7.14871304 9.06130435 7.14871304zM10.7861739 5.3937913L10.7861739 6.93292174C10.7861739 7.24805217 10.6510435 7.45205217 10.3030435 7.45205217 9.94304348 7.45205217 9.79330435 7.24805217 9.79330435 6.93292174L9.79330435 5.3937913 10.1350435 5.3937913 10.1350435 6.9657913C10.1350435 7.0857913 10.1830435 7.16666087 10.3030435 7.16666087 10.4230435 7.16666087 10.4710435 7.0857913 10.4710435 6.9657913L10.4710435 5.3937913 10.7861739 5.3937913zM10.9807304 6.90281739L10.9807304 5.91881739C10.9807304 5.60107826 11.1304696 5.36994783 11.4904696 5.36994783 11.8687304 5.36994783 11.9736 5.57968696 11.9736 5.87968696L11.9736 6.11968696 11.6616 6.11968696 11.6616 5.85307826C11.6616 5.72681739 11.6198609 5.65481739 11.4967304 5.65481739 11.3736 5.65481739 11.3224696 5.74194783 11.3224696 5.86507826L11.3224696 6.95707826C11.3224696 7.07968696 11.3736 7.16681739 11.4967304 7.16681739 11.6198609 7.16681739 11.6616 7.08907826 11.6616 6.96907826L11.6616 6.59394783 11.9736 6.59394783 11.9736 6.94507826C11.9736 7.23568696 11.8536 7.45168696 11.4904696 7.45168696 11.1304696 7.45168696 10.9807304 7.21794783 10.9807304 6.90281739M12.0756 7.42784348L12.4596 5.39358261 12.8493391 5.39358261 13.2364696 7.42784348 12.8858609 7.42784348 12.8227304 7.05584348 12.4596 7.05584348 12.3996 7.42784348 12.0756 7.42784348zM12.5044696 6.78297391L12.7773391 6.78297391 12.6422087 5.96697391 12.6396 5.96697391 12.5044696 6.78297391z"/>
    <polygon fill="#000000" points="13.188 5.394 14.097 5.394 14.097 5.673 13.815 5.673 13.815 7.428 13.471 7.428 13.471 5.673 13.188 5.673"/>
    <polygon fill="#000000" points="14.256 7.428 14.598 7.428 14.598 5.394 14.256 5.394"/>
    <path fill="#000000" d="M14.7960522,6.90281739 L14.7960522,5.91881739 C14.7960522,5.60107826 14.9520522,5.36994783 15.3120522,5.36994783 C15.6751826,5.36994783 15.8311826,5.60107826 15.8311826,5.91881739 L15.8311826,6.90281739 C15.8311826,7.21794783 15.6751826,7.45168696 15.3120522,7.45168696 C14.9520522,7.45168696 14.7960522,7.21794783 14.7960522,6.90281739 M15.4889217,6.95707826 L15.4889217,5.86507826 C15.4889217,5.74194783 15.4351826,5.65481739 15.3120522,5.65481739 C15.1920522,5.65481739 15.1377913,5.74194783 15.1377913,5.86507826 L15.1377913,6.95707826 C15.1377913,7.07968696 15.1920522,7.16681739 15.3120522,7.16681739 C15.4351826,7.16681739 15.4889217,7.07968696 15.4889217,6.95707826"/>
    <polygon fill="#000000" points="16.314 6.15 16.314 7.428 16.026 7.428 16.026 5.394 16.362 5.394 16.731 6.561 16.731 5.394 17.015 5.394 17.015 7.428 16.716 7.428"/>
  </g>
</svg>
