<svg xmlns="http://www.w3.org/2000/svg" width="24" height="24" viewBox="0 0 24 24">
  <g fill="none" fill-rule="evenodd">
    <path fill="#000000" d="M18.044087,9.07586087 L15.0446087,9.07586087 C15.0242609,9.07586087 15.0065217,9.09307826 15.0065217,9.11394783 L15.0065217,10.1109913 C15.0065217,10.1318609 15.0242609,10.1490783 15.0446087,10.1490783 L16.2393913,10.1490783 L14.9131304,11.4753391 C14.2453043,10.9504696 13.4047826,10.6363826 12.4912174,10.6363826 C10.3254783,10.6363826 8.56304348,12.3988174 8.56304348,14.5650783 C8.56304348,16.5591652 10.0567826,18.2094261 11.984087,18.4593391 L11.984087,19.607687 L10.8013043,19.607687 C10.7793913,19.607687 10.7621739,19.6249043 10.7621739,19.6457739 L10.7621739,20.7137739 C10.7621739,20.7351652 10.7793913,20.7518609 10.8013043,20.7518609 L11.984087,20.7518609 L11.984087,21.8824696 C11.984087,21.9033391 12.0013043,21.9205565 12.0221739,21.9205565 L13.0901739,21.9205565 C13.1110435,21.9205565 13.1287826,21.9033391 13.1287826,21.8824696 L13.1287826,20.7518609 L14.3115652,20.7518609 C14.3324348,20.7518609 14.3496522,20.7351652 14.3496522,20.7137739 L14.3496522,19.6457739 C14.3496522,19.6249043 14.3324348,19.607687 14.3115652,19.607687 L13.1287826,19.607687 L13.1287826,18.4405565 C14.9924348,18.1348174 16.4193913,16.5137739 16.4193913,14.5650783 C16.4193913,13.7240348 16.1533043,12.9450783 15.702,12.3054261 L17.0089565,10.9979478 L17.0089565,12.1134261 C17.0089565,12.1348174 17.0266957,12.151513 17.0475652,12.151513 L18.044087,12.151513 C18.0654783,12.151513 18.0832174,12.1348174 18.0832174,12.1134261 L18.0832174,9.11394783 C18.0832174,9.09307826 18.0654783,9.07586087 18.044087,9.07586087 M12.4912174,17.4565565 C10.8967826,17.4565565 9.59973913,16.1589913 9.59973913,14.5650783 C9.59973913,12.9706435 10.8967826,11.6736 12.4912174,11.6736 C14.0856522,11.6736 15.3826957,12.9706435 15.3826957,14.5650783 C15.3826957,16.1589913 14.0856522,17.4565565 12.4912174,17.4565565"/>
    <path fill="#000000" d="M14.2572522 13.3780696L10.7501217 13.3780696C10.7292522 13.3780696 10.7120348 13.3937217 10.7120348 13.4119826L10.7120348 14.2613739C10.7120348 14.2812 10.7292522 14.2963304 10.7501217 14.2963304L14.2572522 14.2963304C14.2791652 14.2963304 14.2958609 14.2812 14.2958609 14.2613739L14.2958609 13.4119826C14.2958609 13.3937217 14.2791652 13.3780696 14.2572522 13.3780696M14.2572522 14.894087L10.7501217 14.894087C10.7292522 14.894087 10.7120348 14.9102609 10.7120348 14.9295652L10.7120348 15.7784348C10.7120348 15.7977391 10.7292522 15.8128696 10.7501217 15.8128696L14.2572522 15.8128696C14.2791652 15.8128696 14.2958609 15.7977391 14.2958609 15.7784348L14.2958609 14.9295652C14.2958609 14.9102609 14.2791652 14.894087 14.2572522 14.894087M4.47271304 3.5073913C4.14975652 3.5073913 3.91288696 3.62217391 3.78401739 3.84443478L3.77671304 3.84443478 3.77671304 2.63191304 5.18332174 2.63191304 5.18332174 1.9646087 3.03062609 1.9646087 3.03062609 4.70582609 3.77671304 4.70582609 3.77671304 4.59782609C3.77671304 4.31086957 3.90610435 4.15330435 4.13514783 4.15330435 4.38662609 4.15330435 4.48732174 4.32547826 4.48732174 4.59104348L4.48732174 5.76808696C4.48732174 6.02634783 4.39393043 6.20582609 4.14245217 6.20582609 3.8628 6.20582609 3.76262609 6.01904348 3.76262609 5.73208696L3.76262609 5.12217391 3.01549565 5.12217391 3.01549565 5.67469565C3.01549565 6.414 3.30975652 6.88773913 4.14245217 6.88773913 4.96784348 6.88773913 5.30488696 6.45 5.30488696 5.7753913L5.30488696 4.58373913C5.30488696 3.81573913 4.91045217 3.5073913 4.47271304 3.5073913M8.14617391 3.00344348L8.63191304 3.00344348 8.63191304 4.08918261 8.38617391 4.08918261 8.38617391 3.86744348C8.34130435 4.02031304 8.24530435 4.11318261 8.05904348 4.11318261 7.76530435 4.11318261 7.63017391 3.87944348 7.63017391 3.56431304L7.63017391 2.58031304C7.63017391 2.26257391 7.78304348 2.03144348 8.14304348 2.03144348 8.52078261 2.03144348 8.63191304 2.24118261 8.63191304 2.54118261L8.63191304 2.72118261 8.31991304 2.72118261 8.31991304 2.51457391C8.31991304 2.38831304 8.27191304 2.31631304 8.14930435 2.31631304 8.02617391 2.31631304 7.97191304 2.40344348 7.97191304 2.52657391L7.97191304 3.61857391C7.97191304 3.74118261 8.02304348 3.82831304 8.13991304 3.82831304 8.25104348 3.82831304 8.30791304 3.76518261 8.30791304 3.63318261L8.30791304 3.27318261 8.14617391 3.27318261 8.14617391 3.00344348z"/>
    <polygon fill="#000000" points="8.827 2.055 9.643 2.055 9.643 2.334 9.168 2.334 9.168 2.916 9.508 2.916 9.508 3.192 9.168 3.192 9.168 3.81 9.643 3.81 9.643 4.09 8.827 4.09"/>
    <polygon fill="#000000" points="10.113 2.811 10.113 4.089 9.825 4.089 9.825 2.055 10.161 2.055 10.53 3.223 10.53 2.055 10.815 2.055 10.815 4.089 10.516 4.089"/>
    <path fill="#000000" d="M12.0330261,2.6013913 L12.0330261,3.54313043 C12.0330261,3.85513043 11.9041565,4.0893913 11.5378957,4.0893913 L11.0098957,4.0893913 L11.0098957,2.05513043 L11.5378957,2.05513043 C11.9041565,2.05513043 12.0330261,2.28626087 12.0330261,2.6013913 Z M11.4961565,3.81026087 C11.6370261,3.81026087 11.6907652,3.72626087 11.6907652,3.60365217 L11.6907652,2.53826087 C11.6907652,2.41826087 11.6370261,2.33426087 11.4961565,2.33426087 L11.3521565,2.33426087 L11.3521565,3.81026087 L11.4961565,3.81026087 Z"/>
    <polygon fill="#000000" points="12.228 2.055 13.044 2.055 13.044 2.334 12.569 2.334 12.569 2.916 12.908 2.916 12.908 3.192 12.569 3.192 12.569 3.81 13.044 3.81 13.044 4.09 12.228 4.09"/>
    <path fill="#000000" d="M13.5684,3.15641739 L13.5684,4.08928696 L13.2266609,4.08928696 L13.2266609,2.05554783 L13.7244,2.05554783 C14.0692696,2.05554783 14.1955304,2.22667826 14.1955304,2.51154783 L14.1955304,2.77241739 C14.1955304,2.99154783 14.1172696,3.12041739 13.9226609,3.16528696 L14.2492696,4.08928696 L13.8897913,4.08928696 L13.5684,3.15641739 Z M13.5684,2.33467826 L13.5684,2.96754783 L13.6826609,2.96754783 C13.7995304,2.96754783 13.8506609,2.90754783 13.8506609,2.79954783 L13.8506609,2.49954783 C13.8506609,2.38841739 13.7995304,2.33467826 13.6826609,2.33467826 L13.5684,2.33467826 Z"/>
    <polygon fill="#000000" points="7.63 4.905 8.446 4.905 8.446 5.184 7.972 5.184 7.972 5.765 8.311 5.765 8.311 6.041 7.972 6.041 7.972 6.66 8.446 6.66 8.446 6.939 7.63 6.939"/>
    <path fill="#000000" d="M8.98893913 7.0766087L8.98893913 6.93834783C8.71606957 6.89034783 8.5992 6.68947826 8.5992 6.41347826L8.5992 5.42947826C8.5992 5.11173913 8.7552 4.8806087 9.1152 4.8806087 9.4778087 4.8806087 9.6338087 5.11173913 9.6338087 5.42947826L9.6338087 6.41347826C9.6338087 6.63573913 9.55606957 6.80947826 9.3818087 6.89347826L9.6338087 6.94147826 9.6338087 7.1966087 8.98893913 7.0766087zM9.29206957 6.48547826L9.29206957 5.37573913C9.29206957 5.2526087 9.2378087 5.16547826 9.1152 5.16547826 8.9952 5.16547826 8.94093913 5.2526087 8.94093913 5.37573913L8.94093913 6.48547826C8.94093913 6.60547826 8.9952 6.69573913 9.1152 6.69573913 9.2378087 6.69573913 9.29206957 6.60547826 9.29206957 6.48547826zM10.8218609 4.90455652L10.8218609 6.44368696C10.8218609 6.75881739 10.6867304 6.96281739 10.3387304 6.96281739 9.97873043 6.96281739 9.82846957 6.75881739 9.82846957 6.44368696L9.82846957 4.90455652 10.1707304 4.90455652 10.1707304 6.47655652C10.1707304 6.59655652 10.2187304 6.67742609 10.3387304 6.67742609 10.4587304 6.67742609 10.5067304 6.59655652 10.5067304 6.47655652L10.5067304 4.90455652 10.8218609 4.90455652zM10.9171826 6.93855652L11.3011826 4.90429565 11.6909217 4.90429565 12.0780522 6.93855652 11.7274435 6.93855652 11.664313 6.56655652 11.3011826 6.56655652 11.2411826 6.93855652 10.9171826 6.93855652zM11.3460522 6.29368696L11.6189217 6.29368696 11.4837913 5.47768696 11.4811826 5.47768696 11.3460522 6.29368696z"/>
    <polygon fill="#000000" points="12.219 4.905 12.561 4.905 12.561 6.66 12.969 6.66 12.969 6.939 12.219 6.939"/>
    <polygon fill="#000000" points="13.125 6.939 13.467 6.939 13.467 4.904 13.125 4.904"/>
    <polygon fill="#000000" points="13.626 4.905 14.535 4.905 14.535 5.184 14.253 5.184 14.253 6.939 13.907 6.939 13.907 5.184 13.626 5.184"/>
    <polygon fill="#000000" points="15.359 6.165 15.359 6.938 15.018 6.938 15.018 6.165 14.636 4.905 14.994 4.905 15.2 5.676 15.203 5.676 15.411 4.905 15.737 4.905"/>
  </g>
</svg>
