<svg xmlns="http://www.w3.org/2000/svg" width="24" height="24" viewBox="0 0 24 24">
  <g fill="none" fill-rule="evenodd">
    <path fill="#000000" d="M8.53638261,3.5481913 L8.84681739,4.47271304 L9.19481739,4.47271304 L8.87916522,3.55706087 C9.06751304,3.51271304 9.14316522,3.38488696 9.14316522,3.16784348 L9.14316522,2.90958261 C9.14316522,2.6268 9.02107826,2.45775652 8.68716522,2.45775652 L8.2056,2.45775652 L8.2056,4.47271304 L8.53638261,4.47271304 L8.53638261,3.5481913 Z M8.53638261,2.73375652 L8.64646957,2.73375652 C8.7602087,2.73375652 8.80925217,2.78749565 8.80925217,2.89758261 L8.80925217,3.19497391 C8.80925217,3.3014087 8.7602087,3.3614087 8.64646957,3.3614087 L8.53638261,3.3614087 L8.53638261,2.73375652 Z"/>
    <polygon fill="#000000" points="10.141 4.196 9.683 4.196 9.683 3.584 10.01 3.584 10.01 3.31 9.683 3.31 9.683 2.734 10.141 2.734 10.141 2.457 9.351 2.457 9.351 4.472 10.141 4.472"/>
    <path fill="#000000" d="M10.8581217 2.4576L10.3478609 2.4576 10.3478609 4.47255652 10.8581217 4.47255652C11.2123826 4.47255652 11.3370783 4.24090435 11.3370783 3.93203478L11.3370783 2.99864348C11.3370783 2.68664348 11.2123826 2.4576 10.8581217 2.4576zM11.0062957 3.9909913C11.0062957 4.11307826 10.9541217 4.19655652 10.8174261 4.19655652L10.6781217 4.19655652 10.6781217 2.73412174 10.8174261 2.73412174C10.9541217 2.73412174 11.0062957 2.81707826 11.0062957 2.93603478L11.0062957 3.9909913zM11.885687 2.4576L11.5549043 2.4576 11.5549043 3.98212174C11.5549043 4.29412174 11.6994261 4.49603478 12.0479478 4.49603478 12.3844696 4.49603478 12.5154261 4.29412174 12.5154261 3.98212174L12.5154261 2.4576 12.2102087 2.4576 12.2102087 4.0149913C12.2102087 4.13342609 12.1642957 4.21429565 12.0479478 4.21429565 11.9316 4.21429565 11.885687 4.13342609 11.885687 4.0149913L11.885687 2.4576zM12.7329391 2.97772174L12.7329391 3.95233043C12.7329391 4.26433043 12.8779826 4.49650435 13.2259826 4.49650435 13.5776348 4.49650435 13.6934609 4.2825913 13.6934609 3.99406957L13.6934609 3.6465913 13.3918957 3.6465913 13.3918957 4.01806957C13.3918957 4.13702609 13.3512 4.21372174 13.2322435 4.21372174 13.113287 4.21372174 13.0637217 4.12763478 13.0637217 4.00606957L13.0637217 2.92450435C13.0637217 2.80241739 13.113287 2.7158087 13.2322435 2.7158087 13.3512 2.7158087 13.3918957 2.78728696 13.3918957 2.91198261L13.3918957 3.17650435 13.6934609 3.17650435 13.6934609 2.93911304C13.6934609 2.64172174 13.5917217 2.43406957 13.2259826 2.43406957 12.8779826 2.43406957 12.7329391 2.66311304 12.7329391 2.97772174"/>
    <polygon fill="#000000" points="13.903 4.472 14.692 4.472 14.692 4.196 14.233 4.196 14.233 3.584 14.562 3.584 14.562 3.31 14.233 3.31 14.233 2.734 14.692 2.734 14.692 2.457 13.903 2.457"/>
    <path fill="#000000" d="M14.8978957,2.4576 L14.8978957,4.47255652 L15.4086783,4.47255652 C15.7629391,4.47255652 15.8876348,4.24090435 15.8876348,3.93203478 L15.8876348,2.99864348 C15.8876348,2.68664348 15.7629391,2.4576 15.4086783,2.4576 L14.8978957,2.4576 Z M15.5568522,2.93603478 L15.5568522,3.9909913 C15.5568522,4.11307826 15.5046783,4.19603478 15.3679826,4.19603478 L15.2286783,4.19603478 L15.2286783,2.73412174 L15.3679826,2.73412174 C15.5046783,2.73412174 15.5568522,2.81707826 15.5568522,2.93603478 Z"/>
    <polygon fill="#000000" points="8.205 7.355 8.536 7.355 8.536 5.341 8.205 5.341"/>
    <polygon fill="#000000" points="9.709 5.34 9.433 5.34 9.433 6.497 9.076 5.34 8.751 5.34 8.751 7.355 9.03 7.355 9.03 6.09 9.419 7.355 9.709 7.355"/>
    <polygon fill="#000000" points="10.684 5.617 10.684 5.34 9.895 5.34 9.895 7.355 10.684 7.355 10.684 7.079 10.226 7.079 10.226 6.467 10.554 6.467 10.554 6.194 10.226 6.194 10.226 5.617"/>
    <path fill="#000000" d="M11.3047304 5.31688696C10.9562087 5.31688696 10.8054261 5.5454087 10.8054261 5.86053913L10.8054261 6.83566957C10.8054261 7.10906087 10.9186435 7.30784348 11.1826435 7.35584348L11.1826435 7.49253913 11.8066435 7.61097391 11.8066435 7.35897391 11.5629913 7.31097391C11.7309913 7.22801739 11.8066435 7.05584348 11.8066435 6.83566957L11.8066435 5.86053913C11.8066435 5.5454087 11.6558609 5.31688696 11.3047304 5.31688696zM11.4758609 6.90714783C11.4758609 7.02558261 11.423687 7.1148 11.3047304 7.1148 11.1889043 7.1148 11.1362087 7.02558261 11.1362087 6.90714783L11.1362087 5.80732174C11.1362087 5.68523478 11.1889043 5.59914783 11.3047304 5.59914783 11.423687 5.59914783 11.4758609 5.68523478 11.4758609 5.80732174L11.4758609 6.90714783zM11.9923826 5.34073043L11.9923826 6.86525217C11.9923826 7.17725217 12.1374261 7.37916522 12.4859478 7.37916522 12.8224696 7.37916522 12.9534261 7.17725217 12.9534261 6.86525217L12.9534261 5.34073043 12.6482087 5.34073043 12.6482087 6.8976C12.6482087 7.01707826 12.6022957 7.09690435 12.4859478 7.09690435 12.3696 7.09690435 12.3231652 7.01707826 12.3231652 6.8976L12.3231652 5.34073043 11.9923826 5.34073043zM13.4314957 5.34073043L13.0600174 7.35568696 13.3735826 7.35568696 13.4314957 6.98681739 13.7831478 6.98681739 13.8436696 7.35568696 14.1833217 7.35568696 13.8092348 5.34073043 13.4314957 5.34073043zM13.4753217 6.71655652L13.6057565 5.90838261 13.608887 5.90838261 13.7393217 6.71655652 13.4753217 6.71655652z"/>
    <polygon fill="#000000" points="14.317 5.341 14.317 7.355 15.042 7.355 15.042 7.079 14.647 7.079 14.647 5.341"/>
    <polygon fill="#000000" points="15.19 7.355 15.521 7.355 15.521 5.341 15.19 5.341"/>
    <polygon fill="#000000" points="16.279 7.356 16.279 5.617 16.552 5.617 16.552 5.341 15.672 5.341 15.672 5.617 15.945 5.617 15.945 7.356"/>
    <polygon fill="#000000" points="16.702 7.356 17.033 7.356 17.033 5.341 16.702 5.341"/>
    <polygon fill="#000000" points="18.011 7.079 17.553 7.079 17.553 6.467 17.881 6.467 17.881 6.194 17.553 6.194 17.553 5.617 18.011 5.617 18.011 5.341 17.222 5.341 17.222 7.355 18.011 7.355"/>
    <path fill="#000000" d="M18.1413913,6.65133913 L18.1413913,6.9216 C18.1413913,7.18612174 18.2718261,7.37916522 18.6088696,7.37916522 C18.9453913,7.37916522 19.0904348,7.1829913 19.0904348,6.90646957 L19.0904348,6.80838261 C19.0904348,6.58612174 19.0033043,6.47290435 18.8233043,6.2856 L18.6114783,6.07168696 C18.516,5.9762087 18.4549565,5.9109913 18.4549565,5.79829565 L18.4549565,5.75655652 C18.4549565,5.64333913 18.5186087,5.59012174 18.6114783,5.59012174 C18.7163478,5.59012174 18.7685217,5.64646957 18.7685217,5.76229565 L18.7685217,5.93812174 L19.070087,5.93812174 L19.070087,5.77429565 C19.070087,5.48316522 18.9396522,5.31673043 18.6088696,5.31673043 C18.2864348,5.31673043 18.1445217,5.51029565 18.1445217,5.75968696 L18.1445217,5.82803478 C18.1445217,6.05968696 18.2316522,6.17551304 18.4205217,6.36542609 L18.6146087,6.56525217 C18.7163478,6.66281739 18.7627826,6.73429565 18.7627826,6.85064348 L18.7627826,6.92786087 C18.7627826,7.03481739 18.7163478,7.10629565 18.6114783,7.10629565 C18.4987826,7.10629565 18.4492174,7.04055652 18.4492174,6.92786087 L18.4492174,6.65133913 L18.1413913,6.65133913 Z"/>
    <polygon fill="#000000" points="2.928 3.609 2.928 7.358 3.732 7.358 3.732 2.461 3.091 2.461 2.35 3.349 2.35 4.209 2.357 4.209 2.921 3.609"/>
    <path fill="#000000" d="M6.66673043 6.09422609L6.66673043 3.72448696C6.66673043 2.95857391 6.29316522 2.40292174 5.47455652 2.40292174 4.66377391 2.40292174 4.28916522 2.95857391 4.28916522 3.72448696L4.28916522 6.09422609C4.28916522 6.85231304 4.66377391 7.4157913 5.47455652 7.4157913 6.29316522 7.4157913 6.66673043 6.85231304 6.66673043 6.09422609M5.09368696 6.22413913L5.09368696 3.59457391C5.09368696 3.29822609 5.1996 3.0890087 5.47455652 3.0890087 5.75681739 3.0890087 5.8622087 3.29822609 5.8622087 3.59457391L5.8622087 6.22413913C5.8622087 6.52048696 5.75681739 6.72970435 5.47455652 6.72970435 5.1996 6.72970435 5.09368696 6.52048696 5.09368696 6.22413913M14.7544696 16.3306435L10.3108174 16.3306435C10.2842087 16.3306435 10.2628174 16.3546435 10.2628174 16.3843826L10.2628174 17.7200348C10.2628174 17.7502957 10.2842087 17.7742957 10.3108174 17.7742957L14.7544696 17.7742957C14.7816 17.7742957 14.803513 17.7502957 14.803513 17.7200348L14.803513 16.3843826C14.803513 16.3546435 14.7816 16.3306435 14.7544696 16.3306435M14.7544696 13.4890435L10.3108174 13.4890435C10.2842087 13.4890435 10.2628174 13.5130435 10.2628174 13.5427826L10.2628174 14.8784348C10.2628174 14.9086957 10.2842087 14.9326957 10.3108174 14.9326957L14.7544696 14.9326957C14.7816 14.9326957 14.803513 14.9086957 14.803513 14.8784348L14.803513 13.5427826C14.803513 13.5130435 14.7816 13.4890435 14.7544696 13.4890435M14.6919652 11.4702783L12.5590957 9.3374087C12.544487 9.3228 12.5215304 9.3228 12.5069217 9.3374087L10.3740522 11.4702783C10.3505739 11.4932348 10.3672696 11.5334087 10.4001391 11.5334087L14.6658783 11.5334087C14.6987478 11.5334087 14.7154435 11.4932348 14.6919652 11.4702783M16.6943478 17.7906783L18.8272174 15.6578087C18.8418261 15.6432 18.8418261 15.6202435 18.8272174 15.6056348L16.6943478 13.4727652C16.6713913 13.449287 16.6312174 13.4659826 16.6312174 13.4988522L16.6312174 17.7645913C16.6312174 17.7974609 16.6713913 17.8141565 16.6943478 17.7906783M10.3739478 19.7930609L12.5068174 21.9259304C12.5214261 21.9405391 12.5443826 21.9405391 12.5589913 21.9259304L14.6918609 19.7930609C14.7153391 19.7701043 14.6986435 19.7299304 14.6657739 19.7299304L10.4000348 19.7299304C10.3671652 19.7299304 10.3509913 19.7701043 10.3739478 19.7930609M8.37156522 13.4726609L6.23869565 15.6055304C6.22408696 15.6201391 6.22408696 15.6430957 6.23869565 15.6577043L8.37156522 17.7905739C8.39452174 17.8140522 8.43469565 17.7973565 8.43469565 17.764487L8.43469565 13.4987478C8.43469565 13.4658783 8.39452174 13.4497043 8.37156522 13.4726609"/>
  </g>
</svg>
