<svg xmlns="http://www.w3.org/2000/svg" width="24" height="24" viewBox="0 0 24 24">
  <g fill="none" fill-rule="evenodd">
    <path fill="#000000" d="M12.0195652 12.1586609C10.0661739 12.1586609 8.48321739 13.7421391 8.48321739 15.6955304 8.48321739 17.6494435 10.0661739 19.2329217 12.0195652 19.2329217 13.9729565 19.2329217 15.555913 17.6494435 15.555913 15.6955304 15.555913 13.7421391 13.9729565 12.1586609 12.0195652 12.1586609zM11.7576522 13.5558783C11.7576522 13.4379652 11.876087 13.3085739 12.0211304 13.3085739 12.1656522 13.3085739 12.2830435 13.4379652 12.2830435 13.5558783L12.2830435 14.7699652C12.2830435 14.8873565 12.1656522 15.0157043 12.0211304 15.0157043 11.876087 15.0157043 11.7576522 14.8873565 11.7576522 14.7699652L11.7576522 13.5558783zM12.020087 17.5080522C11.0042609 17.5080522 10.1804348 16.6842261 10.1804348 15.6684 10.1804348 14.842487 10.724087 14.1444 11.4733043 13.9111826L11.4733043 14.5962261C11.0835652 14.7955304 10.815913 15.2004 10.815913 15.6684 10.815913 16.3336174 11.3548696 16.8725739 12.020087 16.8725739 12.6853043 16.8725739 13.2242609 16.3336174 13.2242609 15.6684 13.2242609 15.1988348 12.9555652 14.7934435 12.5637391 14.5946609L12.5637391 13.9106609C13.3145217 14.142313 13.8597391 14.8414435 13.8597391 15.6684 13.8597391 16.6842261 13.0364348 17.5080522 12.020087 17.5080522zM7.95965217 15.6645913C7.95965217 15.5044174 7.81773913 15.3745043 7.68782609 15.3745043L6.13878261 15.3745043C6.00834783 15.3745043 5.86486957 15.5044174 5.86486957 15.6645913 5.86486957 15.825287 6.00834783 15.9562435 6.13878261 15.9562435L7.68782609 15.9562435C7.81773913 15.9562435 7.95965217 15.825287 7.95965217 15.6645913M18.1757739 15.6645913C18.1757739 15.5044174 18.0338609 15.3745043 17.9039478 15.3745043L16.3549043 15.3745043C16.2244696 15.3745043 16.081513 15.5044174 16.081513 15.6645913 16.081513 15.825287 16.2244696 15.9562435 16.3549043 15.9562435L17.9039478 15.9562435C18.0338609 15.9562435 18.1757739 15.825287 18.1757739 15.6645913M12.0210783 21.8202783C12.1812522 21.8202783 12.3111652 21.6783652 12.3111652 21.5484522L12.3111652 19.9999304C12.3111652 19.8694957 12.1812522 19.7260174 12.0210783 19.7260174 11.8603826 19.7260174 11.7294261 19.8694957 11.7294261 19.9999304L11.7294261 21.5484522C11.7294261 21.6783652 11.8603826 21.8202783 12.0210783 21.8202783M17.3630087 18.722087C17.442313 18.5833043 17.3838783 18.3996522 17.2711826 18.3349565L15.9271826 17.565913C15.8139652 17.5012174 15.6245739 17.5424348 15.5452696 17.6817391 15.4654435 17.8210435 15.5249217 18.0062609 15.6381391 18.0709565L16.9826609 18.84C17.0948348 18.9046957 17.2831826 18.861913 17.3630087 18.722087M8.96353043 21.0076696C9.10231304 21.0869739 9.28596522 21.0285391 9.35013913 20.9158435L10.1197043 19.5718435C10.1844 19.4586261 10.1426609 19.2692348 10.0038783 19.1899304 9.86457391 19.1101043 9.67935652 19.1695826 9.61466087 19.2828L8.84561739 20.6268C8.78092174 20.7394957 8.82370435 20.9278435 8.96353043 21.0076696M15.0892696 21.0007826C15.2280522 20.9209565 15.270313 20.7331304 15.2056174 20.6204348L14.4334435 19.278C14.3682261 19.1647826 14.1840522 19.1053043 14.0452696 19.1851304 13.9059652 19.2649565 13.8637043 19.4543478 13.9294435 19.568087L14.7010957 20.9105217C14.7657913 21.0226957 14.9499652 21.0806087 15.0892696 21.0007826M6.68488696 18.734087C6.76471304 18.8728696 6.95253913 18.9146087 7.06523478 18.849913L8.40766957 18.0782609C8.52088696 18.0130435 8.58036522 17.8288696 8.50053913 17.690087 8.42071304 17.5502609 8.2308 17.5085217 8.11810435 17.5737391L6.77514783 18.345913C6.66297391 18.4106087 6.60453913 18.5947826 6.68488696 18.734087M12.0210783 11.6043652C12.1812522 11.6043652 12.3111652 11.4624522 12.3111652 11.3325391L12.3111652 9.78349565C12.3111652 9.65306087 12.1812522 9.51010435 12.0210783 9.51010435 11.8603826 9.51010435 11.7294261 9.65306087 11.7294261 9.78349565L11.7294261 11.3325391C11.7294261 11.4624522 11.8603826 11.6043652 12.0210783 11.6043652M8.49626087 13.6476C8.57608696 13.5082957 8.51713043 13.3251652 8.40443478 13.2604696L7.06043478 12.4914261C6.94721739 12.4262087 6.75834783 12.4679478 6.67852174 12.6072522 6.59869565 12.7465565 6.65817391 12.9312522 6.7713913 12.9959478L8.11591304 13.765513C8.22808696 13.829687 8.41643478 13.7869043 8.49626087 13.6476M14.0380696 12.1411304C14.1773739 12.2204348 14.3605043 12.162 14.4246783 12.0493043L15.1942435 10.7053043C15.2589391 10.5915652 15.2177217 10.4026957 15.0784174 10.3228696 14.939113 10.2430435 14.7544174 10.3030435 14.6892 10.4162609L13.9201565 11.7602609C13.8554609 11.8729565 13.8982435 12.0613043 14.0380696 12.1411304M9.99662609 12.1446261C10.1354087 12.0648 10.1776696 11.8769739 10.1129739 11.7642783L9.3408 10.4213217C9.27558261 10.3081043 9.0914087 10.2491478 8.95262609 10.3289739 8.8128 10.4088 8.77106087 10.5981913 8.8368 10.7114087L9.60845217 12.0543652C9.67314783 12.1665391 9.8568 12.2249739 9.99662609 12.1446261M15.5410435 13.641287C15.6208696 13.7800696 15.8086957 13.8218087 15.9213913 13.7576348L17.2638261 12.9854609C17.3770435 12.9202435 17.4370435 12.7360696 17.3566957 12.597287 17.2763478 12.4579826 17.0874783 12.4157217 16.9742609 12.4809391L15.6313043 13.253113C15.5191304 13.3178087 15.4606957 13.5019826 15.5410435 13.641287"/>
    <polygon fill="#000000" points="2.42 3.156 3.683 3.156 2.592 7.355 3.404 7.355 4.473 3.243 4.473 2.489 2.42 2.489"/>
    <path fill="#000000" d="M6.76356522,4.52749565 L7.14756522,2.49375652 L7.53730435,2.49375652 L7.92443478,4.52749565 L7.57330435,4.52749565 L7.51069565,4.15549565 L7.14756522,4.15549565 L7.08756522,4.52749565 L6.76356522,4.52749565 Z M7.19243478,3.88262609 L7.46530435,3.88262609 L7.33069565,3.06662609 L7.32756522,3.06662609 L7.19243478,3.88262609 Z"/>
    <polygon fill="#000000" points="8.065 2.494 8.866 2.494 8.866 2.773 8.407 2.773 8.407 3.354 8.749 3.354 8.749 3.63 8.407 3.63 8.407 4.527 8.065 4.527"/>
    <polygon fill="#000000" points="9.016 2.494 9.817 2.494 9.817 2.773 9.358 2.773 9.358 3.354 9.7 3.354 9.7 3.63 9.358 3.63 9.358 4.527 9.016 4.527"/>
    <path fill="#000000" d="M9.93662609 4.00246957L9.93662609 3.01846957C9.93662609 2.70073043 10.0926261 2.4696 10.4526261 2.4696 10.8157565 2.4696 10.9717565 2.70073043 10.9717565 3.01846957L10.9717565 4.00246957C10.9717565 4.3176 10.8157565 4.55133913 10.4526261 4.55133913 10.0926261 4.55133913 9.93662609 4.3176 9.93662609 4.00246957M10.6294957 4.05673043L10.6294957 2.96473043C10.6294957 2.8416 10.5757565 2.75446957 10.4526261 2.75446957 10.3326261 2.75446957 10.278887 2.8416 10.278887 2.96473043L10.278887 4.05673043C10.278887 4.17933913 10.3326261 4.26646957 10.4526261 4.26646957 10.5757565 4.26646957 10.6294957 4.17933913 10.6294957 4.05673043M11.5083652 3.59457391L11.5083652 4.52744348 11.1661043 4.52744348 11.1661043 2.49370435 11.6643652 2.49370435C12.0092348 2.49370435 12.1354957 2.66483478 12.1354957 2.94970435L12.1354957 3.21057391C12.1354957 3.42970435 12.0572348 3.55857391 11.8621043 3.60344348L12.1892348 4.52744348 11.8292348 4.52744348 11.5083652 3.59457391zM11.5083652 2.77283478L11.5083652 3.40570435 11.6221043 3.40570435C11.7394957 3.40570435 11.7901043 3.34570435 11.7901043 3.23770435L11.7901043 2.93770435C11.7901043 2.82657391 11.7394957 2.77283478 11.6221043 2.77283478L11.5083652 2.77283478zM13.3440522 3.0396L13.3440522 3.98133913C13.3440522 4.29333913 13.2151826 4.5276 12.8489217 4.5276L12.3209217 4.5276 12.3209217 2.49333913 12.8489217 2.49333913C13.2151826 2.49333913 13.3440522 2.72446957 13.3440522 3.0396zM12.8071826 4.24846957C12.9480522 4.24846957 13.0017913 4.16446957 13.0017913 4.04133913L13.0017913 2.97646957C13.0017913 2.85646957 12.9480522 2.77246957 12.8071826 2.77246957L12.6631826 2.77246957 12.6631826 4.24846957 12.8071826 4.24846957zM13.4397391 4.52749565L13.8237391 2.49375652 14.2134783 2.49375652 14.6006087 4.52749565 14.2494783 4.52749565 14.1868696 4.15549565 13.8237391 4.15549565 13.7637391 4.52749565 13.4397391 4.52749565zM13.8686087 3.88262609L14.1414783 3.88262609 14.0068696 3.06662609 14.0037391 3.06662609 13.8686087 3.88262609zM14.7413217 2.49354783L15.2364522 2.49354783C15.5781913 2.49354783 15.6924522 2.65267826 15.6924522 2.94067826L15.6924522 3.1478087C15.6924522 3.31841739 15.6293217 3.42641739 15.4884522 3.4718087 15.6595826 3.51041739 15.7435826 3.62467826 15.7435826 3.81041739L15.7435826 4.08067826C15.7435826 4.36867826 15.6141913 4.52728696 15.2724522 4.52728696L14.7413217 4.52728696 14.7413217 2.49354783zM15.0835826 3.3518087L15.2035826 3.3518087C15.3141913 3.3518087 15.3653217 3.29441739 15.3653217 3.18641739L15.3653217 2.93754783C15.3653217 2.82641739 15.3141913 2.77267826 15.2004522 2.77267826L15.0835826 2.77267826 15.0835826 3.3518087zM15.0835826 3.61267826L15.0835826 4.24867826 15.2333217 4.24867826C15.3475826 4.24867826 15.4013217 4.19128696 15.4013217 4.0838087L15.4013217 3.77754783C15.4013217 3.66954783 15.3501913 3.61267826 15.2301913 3.61267826L15.0835826 3.61267826z"/>
    <polygon fill="#000000" points="15.914 2.494 16.256 2.494 16.256 4.249 16.664 4.249 16.664 4.527 15.914 4.527"/>
    <polygon fill="#000000" points="16.82 2.494 17.636 2.494 17.636 2.773 17.162 2.773 17.162 3.354 17.5 3.354 17.5 3.63 17.162 3.63 17.162 4.249 17.636 4.249 17.636 4.527 16.82 4.527"/>
    <path fill="#000000" d="M18.2789217,4.52749565 L18.6629217,2.49375652 L19.0526609,2.49375652 L19.4397913,4.52749565 L19.0886609,4.52749565 L19.0260522,4.15549565 L18.6629217,4.15549565 L18.6029217,4.52749565 L18.2789217,4.52749565 Z M18.7077913,3.88262609 L18.9806609,3.88262609 L18.8460522,3.06662609 L18.8429217,3.06662609 L18.7077913,3.88262609 Z"/>
    <polygon fill="#000000" points="19.868 3.25 19.868 4.527 19.58 4.527 19.58 2.494 19.916 2.494 20.285 3.66 20.285 2.494 20.571 2.494 20.571 4.527 20.271 4.527"/>
    <path fill="#000000" d="M21.7880348 3.0396L21.7880348 3.98133913C21.7880348 4.29333913 21.6591652 4.5276 21.2929043 4.5276L20.7649043 4.5276 20.7649043 2.49333913 21.2929043 2.49333913C21.6591652 2.49333913 21.7880348 2.72446957 21.7880348 3.0396zM21.2511652 4.24846957C21.3920348 4.24846957 21.4462957 4.16446957 21.4462957 4.04133913L21.4462957 2.97646957C21.4462957 2.85646957 21.3920348 2.77246957 21.2511652 2.77246957L21.1071652 2.77246957 21.1071652 4.24846957 21.2511652 4.24846957zM6.81746087 6.85163478L6.81746087 5.86763478C6.81746087 5.54989565 6.96772174 5.31876522 7.32772174 5.31876522 7.70546087 5.31876522 7.81033043 5.52850435 7.81033043 5.82902609L7.81033043 6.06850435 7.49833043 6.06850435 7.49833043 5.80189565C7.49833043 5.67563478 7.4565913 5.60363478 7.33346087 5.60363478 7.21033043 5.60363478 7.15972174 5.69076522 7.15972174 5.81389565L7.15972174 6.90589565C7.15972174 7.02850435 7.21033043 7.11563478 7.33346087 7.11563478 7.4565913 7.11563478 7.49833043 7.03789565 7.49833043 6.91789565L7.49833043 6.54276522 7.81033043 6.54276522 7.81033043 6.89389565C7.81033043 7.18450435 7.69033043 7.40050435 7.32772174 7.40050435 6.96772174 7.40050435 6.81746087 7.16676522 6.81746087 6.85163478"/>
    <polygon fill="#000000" points="7.996 5.343 8.338 5.343 8.338 7.098 8.746 7.098 8.746 7.377 7.996 7.377"/>
    <polygon fill="#000000" points="8.902 5.343 9.718 5.343 9.718 5.622 9.244 5.622 9.244 6.203 9.583 6.203 9.583 6.479 9.244 6.479 9.244 7.098 9.718 7.098 9.718 7.377 8.902 7.377"/>
    <path fill="#000000" d="M9.84662609,7.37666087 L10.2306261,5.3424 L10.6203652,5.3424 L11.0074957,7.37666087 L10.6563652,7.37666087 L10.5937565,7.00466087 L10.2306261,7.00466087 L10.1706261,7.37666087 L9.84662609,7.37666087 Z M10.2754957,6.7317913 L10.5483652,6.7317913 L10.4137565,5.9157913 L10.4106261,5.9157913 L10.2754957,6.7317913 Z"/>
    <polygon fill="#000000" points="11.436 6.099 11.436 7.376 11.148 7.376 11.148 5.343 11.484 5.343 11.853 6.51 11.853 5.343 12.139 5.343 12.139 7.376 11.839 7.376"/>
    <polygon fill="#000000" points="12.847 5.343 13.663 5.343 13.663 5.622 13.19 5.622 13.19 6.203 13.528 6.203 13.528 6.479 13.19 6.479 13.19 7.098 13.663 7.098 13.663 7.377 12.847 7.377"/>
    <polygon fill="#000000" points="14.134 6.099 14.134 7.376 13.846 7.376 13.846 5.343 14.182 5.343 14.551 6.51 14.551 5.343 14.836 5.343 14.836 7.376 14.536 7.376"/>
    <polygon fill="#000000" points="15.031 5.343 15.847 5.343 15.847 5.622 15.373 5.622 15.373 6.203 15.712 6.203 15.712 6.479 15.373 6.479 15.373 7.098 15.847 7.098 15.847 7.377 15.031 7.377"/>
    <path fill="#000000" d="M16.3715478 6.44363478L16.3715478 7.37650435 16.029287 7.37650435 16.029287 5.34276522 16.5275478 5.34276522C16.8724174 5.34276522 16.9986783 5.51389565 16.9986783 5.79876522L16.9986783 6.05963478C16.9986783 6.27876522 16.9204174 6.40763478 16.725287 6.45302609L17.0524174 7.37650435 16.6924174 7.37650435 16.3715478 6.44363478zM16.3715478 5.62189565L16.3715478 6.25476522 16.485287 6.25476522C16.6026783 6.25476522 16.653287 6.19476522 16.653287 6.08676522L16.653287 5.78676522C16.653287 5.67563478 16.6026783 5.62189565 16.485287 5.62189565L16.3715478 5.62189565zM17.7001043 6.29071304L18.1863652 6.29071304 18.1863652 7.37645217 17.9401043 7.37645217 17.9401043 7.15471304C17.8952348 7.30758261 17.7992348 7.40045217 17.6129739 7.40045217 17.3192348 7.40045217 17.1841043 7.16671304 17.1841043 6.85158261L17.1841043 5.86758261C17.1841043 5.54984348 17.3369739 5.31871304 17.6969739 5.31871304 18.0752348 5.31871304 18.1863652 5.52845217 18.1863652 5.82897391L18.1863652 6.00845217 17.8743652 6.00845217 17.8743652 5.80184348C17.8743652 5.67558261 17.8263652 5.60358261 17.7032348 5.60358261 17.5801043 5.60358261 17.5263652 5.69071304 17.5263652 5.81384348L17.5263652 6.90584348C17.5263652 7.02897391 17.5769739 7.11558261 17.6943652 7.11558261 17.8049739 7.11558261 17.8623652 7.05297391 17.8623652 6.92045217L17.8623652 6.56045217 17.7001043 6.56045217 17.7001043 6.29071304z"/>
    <polygon fill="#000000" points="18.972 6.603 18.972 7.376 18.63 7.376 18.63 6.603 18.249 5.343 18.606 5.343 18.813 6.114 18.816 6.114 19.023 5.343 19.35 5.343"/>
  </g>
</svg>
