<svg xmlns="http://www.w3.org/2000/svg" width="24" height="24" viewBox="0 0 24 24">
  <g fill="none" fill-rule="evenodd">
    <path fill="#000000" d="M10.4601913 16.7830957C10.4894087 16.7830957 10.5134087 16.8070957 10.5134087 16.836313L10.5134087 18.5935304C10.5134087 18.6237913 10.4894087 18.6472696 10.4601913 18.6472696L9.74906087 18.6472696C9.71932174 18.6472696 9.69532174 18.6237913 9.69532174 18.5935304L9.69532174 16.836313C9.69532174 16.8070957 9.71932174 16.7830957 9.74906087 16.7830957L10.4601913 16.7830957zM18.2694261 19.4016522L6.55064348 19.4016522C6.52142609 19.4016522 6.49690435 19.4266957 6.49690435 19.4569565L6.49690435 20.1727826C6.49690435 20.202 6.52142609 20.2254783 6.55064348 20.2254783L18.2694261 20.2254783C18.2981217 20.2254783 18.3231652 20.202 18.3231652 20.1727826L18.3231652 19.4569565C18.3231652 19.4266957 18.2981217 19.4016522 18.2694261 19.4016522M18.2694261 20.8252174L6.55064348 20.8252174C6.52142609 20.8252174 6.49690435 20.8486957 6.49690435 20.877913L6.49690435 21.5963478C6.49690435 21.6250435 6.52142609 21.6490435 6.55064348 21.6490435L18.2694261 21.6490435C18.2981217 21.6490435 18.3231652 21.6250435 18.3231652 21.5963478L18.3231652 20.877913C18.3231652 20.8486957 18.2981217 20.8252174 18.2694261 20.8252174M16.039513 14.8378957C15.8929043 14.7236348 15.5021217 14.4559826 15.0257739 14.4559826 14.6850783 14.4559826 14.3683826 14.5900696 14.0845565 14.8556348 14.0647304 14.8749391 14.0532522 14.9010261 14.0532522 14.9292L14.0532522 14.9933739C14.0532522 15.0246783 14.063687 15.0538957 14.0866435 15.0732 14.1122087 15.0925043 14.1388174 15.0998087 14.1696 15.0925043 14.1758609 15.0914609 14.1842087 15.0893739 14.191513 15.0867652 14.2129043 15.0794609 14.2332522 15.0664174 14.2499478 15.0497217 14.311513 15.0085043 14.4789913 14.9521565 14.719513 14.9521565 14.9673391 14.9521565 15.4551652 15.0184174 15.9268174 15.4582435L15.9377739 15.4676348C15.9638609 15.495287 16.0009043 15.5104174 16.039513 15.5104174 16.0765565 15.5104174 16.1146435 15.4947652 16.1386435 15.4686783L16.1480348 15.4587652C16.6222957 15.0184174 17.1090783 14.9521565 17.3574261 14.9521565 17.5989913 14.9521565 17.7664696 15.0085043 17.8280348 15.0497217 17.8447304 15.0664174 17.8656 15.0794609 17.8927304 15.0893739 17.9031652 15.0925043 17.9329043 15.0987652 17.9610783 15.0914609 18.0049043 15.0794609 18.0351652 15.0403304 18.0351652 14.9949391L18.0351652 14.9385913C18.0351652 14.9119826 18.023687 14.8848522 18.0038609 14.8660696 17.7174261 14.5932 17.3970783 14.4554609 17.0511652 14.4554609 16.5789913 14.4554609 16.1902957 14.7184174 16.039513 14.8378957M15.3122609 10.1673913C15.2872174 10.1788696 15.2694783 10.2018261 15.2611304 10.2289565L15.2491304 10.268087C15.2402609 10.2988696 15.246 10.3312174 15.2647826 10.3562609 15.2830435 10.3802609 15.3086087 10.3943478 15.3373043 10.395913 15.3425217 10.3964348 15.3477391 10.3974783 15.351913 10.3964348 15.3722609 10.395913 15.3905217 10.3912174 15.4082609 10.3818261 15.4186957 10.3797391 15.4406087 10.374 15.4792174 10.374 15.531913 10.374 16.0046087 10.3896522 16.3166087 10.9207826L16.3207826 10.928087C16.3374783 10.9588696 16.364087 10.9802609 16.395913 10.9886087 16.4047826 10.9912174 16.422 10.9943478 16.4329565 10.9943478 16.4548696 10.9943478 16.4762609 10.9886087 16.491913 10.9797391L16.4997391 10.9755652C16.6708696 10.8905217 16.8477391 10.8466957 17.0225217 10.8466957 17.3183478 10.8466957 17.511913 10.9672174 17.5567826 11.0173043 17.5661739 11.0345217 17.5802609 11.0496522 17.5964348 11.0611304 17.6063478 11.0668696 17.6235652 11.0757391 17.6345217 11.0793913 17.6397391 11.0809565 17.6454783 11.0814783 17.6517391 11.082 17.6548696 11.0825217 17.6585217 11.0825217 17.6621739 11.0825217 17.6778261 11.0825217 17.6934783 11.0788696 17.7086087 11.0710435 17.7326087 11.0590435 17.7503478 11.0371304 17.7581739 11.0110435L17.768087 10.9766087C17.7712174 10.9677391 17.7722609 10.9578261 17.7722609 10.947913 17.7722609 10.9296522 17.7675652 10.911913 17.7586957 10.8978261 17.5312174 10.5023478 17.2009565 10.419913 16.9635652 10.419913 16.7872174 10.419913 16.6327826 10.4658261 16.542 10.4992174 16.4345217 10.3546957 16.1632174 10.0562609 15.7515652 10.0562609 15.6070435 10.0562609 15.4593913 10.0933043 15.3122609 10.1673913M12.8361391 11.9702609L12.8392696 12.0229565C12.8413565 12.0558261 12.8585739 12.0845217 12.8862261 12.1017391 12.9097043 12.1163478 12.9389217 12.1215652 12.9650087 12.1137391 12.9707478 12.1126957 12.9775304 12.1106087 12.9822261 12.1085217 13.0025739 12.1001739 13.0197913 12.0871304 13.0328348 12.0709565 13.0829217 12.0349565 13.2430957 11.9697391 13.4799652 11.9697391 13.7074435 11.9697391 14.0538783 12.0302609 14.4065739 12.3203478L14.4149217 12.3286957C14.4399652 12.350087 14.4717913 12.3626087 14.5051826 12.3626087L14.5135304 12.3626087C14.5505739 12.36 14.584487 12.3427826 14.6058783 12.3182609L14.6137043 12.3093913C15.0039652 11.8961739 15.4250087 11.8346087 15.6410087 11.8346087 15.7949217 11.8346087 15.9039652 11.8664348 15.9462261 11.8904348 15.9624 11.9045217 15.9822261 11.9154783 16.0072696 11.9222609 16.0140522 11.9238261 16.0317913 11.9269565 16.0500522 11.9248696 16.0578783 11.9243478 16.0672696 11.9217391 16.0745739 11.9191304 16.1168348 11.9045217 16.1439652 11.8638261 16.1413565 11.8184348L16.1387478 11.7725217C16.1366609 11.7453913 16.1241391 11.7208696 16.1032696 11.7026087 15.8700522 11.5064348 15.6185739 11.4078261 15.3540522 11.4078261 14.9413565 11.4078261 14.6126609 11.6514783 14.476487 11.7704348 14.3517913 11.685913 14.0497043 11.5111304 13.6949217 11.5111304 13.3829217 11.5111304 13.1032696 11.6405217 12.8632696 11.8951304 12.844487 11.9154783 12.8350957 11.9426087 12.8361391 11.9702609M6.90589565 12.9110609C6.90589565 12.2093217 7.47511304 11.6406261 8.17633043 11.6406261 8.20398261 11.6406261 8.2305913 11.6432348 8.25772174 11.6448 8.32450435 10.7568 9.06485217 10.0561043 9.97006957 10.0561043 10.9196348 10.0561043 11.6892 10.8256696 11.6892 11.7752348 11.6892 12.0439304 11.6255478 12.2974957 11.5154609 12.5239304 12.3758087 12.714887 13.0196348 13.4808 13.0196348 14.3980174 13.0196348 15.4592348 12.159287 16.3190609 11.0985913 16.3190609 11.0213739 16.3190609 8.53528696 16.3044522 8.53528696 16.3044522 7.78346087 16.3039304 7.1745913 15.6955826 7.1745913 14.9442783 7.1745913 14.5832348 7.31650435 14.2566261 7.54554783 14.0129739 7.16363478 13.7938435 6.90589565 13.3832348 6.90589565 12.9110609"/>
    <polygon fill="#000000" points="2.234 3.369 2.234 4.223 2.241 4.223 2.815 3.627 2.823 3.627 2.823 7.352 3.641 7.352 3.641 2.486 2.987 2.486"/>
    <path fill="#000000" d="M5.58526957,4.02954783 C5.26231304,4.02954783 5.02596522,4.1438087 4.89657391,4.3665913 L4.88926957,4.3665913 L4.88926957,3.15406957 L6.29587826,3.15406957 L6.29587826,2.48676522 L4.14318261,2.48676522 L4.14318261,5.22798261 L4.88926957,5.22798261 L4.88926957,5.11998261 C4.88926957,4.83354783 5.01813913,4.67546087 5.24770435,4.67546087 C5.49918261,4.67546087 5.59987826,4.84763478 5.59987826,5.1132 L5.59987826,6.29024348 C5.59987826,6.54850435 5.50648696,6.72798261 5.2550087,6.72798261 C4.97535652,6.72798261 4.87518261,6.5412 4.87518261,6.25424348 L4.87518261,5.64433043 L4.12857391,5.64433043 L4.12857391,6.19685217 C4.12857391,6.93615652 4.42283478,7.40989565 5.2550087,7.40989565 C6.0804,7.40989565 6.41744348,6.97163478 6.41744348,6.29702609 L6.41744348,5.10589565 C6.41744348,4.33789565 6.0230087,4.02954783 5.58526957,4.02954783"/>
    <polygon fill="#000000" points="8.176 2.469 8.519 2.469 8.519 4.224 8.927 4.224 8.927 4.503 8.176 4.503"/>
    <polygon fill="#000000" points="9.082 4.503 9.424 4.503 9.424 2.469 9.082 2.469"/>
    <polygon fill="#000000" points="9.622 2.469 10.423 2.469 10.423 2.748 9.964 2.748 9.964 3.33 10.306 3.33 10.306 3.607 9.964 3.607 9.964 4.503 9.622 4.503"/>
    <polygon fill="#000000" points="10.573 2.469 11.389 2.469 11.389 2.748 10.915 2.748 10.915 3.33 11.254 3.33 11.254 3.607 10.915 3.607 10.915 4.224 11.389 4.224 11.389 4.503 10.573 4.503"/>
    <path fill="#000000" d="M8.17643478,6.82753043 L8.17643478,5.84353043 C8.17643478,5.5257913 8.33243478,5.29466087 8.69243478,5.29466087 C9.05556522,5.29466087 9.21156522,5.5257913 9.21156522,5.84353043 L9.21156522,6.82753043 C9.21156522,7.14266087 9.05556522,7.3764 8.69243478,7.3764 C8.33243478,7.3764 8.17643478,7.14266087 8.17643478,6.82753043 M8.86930435,6.88126957 L8.86930435,5.7897913 C8.86930435,5.66666087 8.81556522,5.57953043 8.69243478,5.57953043 C8.57243478,5.57953043 8.51869565,5.66666087 8.51869565,5.7897913 L8.51869565,6.88126957 C8.51869565,7.0044 8.57243478,7.09153043 8.69243478,7.09153043 C8.81556522,7.09153043 8.86930435,7.0044 8.86930435,6.88126957"/>
    <polygon fill="#000000" points="9.694 6.075 9.694 7.352 9.406 7.352 9.406 5.319 9.742 5.319 10.111 6.486 10.111 5.319 10.396 5.319 10.396 7.352 10.096 7.352"/>
    <polygon fill="#000000" points="11.32 5.319 11.663 5.319 11.663 7.074 12.07 7.074 12.07 7.353 11.32 7.353"/>
    <path fill="#000000" d="M12.1721217,7.35250435 L12.5561217,5.31824348 L12.9458609,5.31824348 L13.3329913,7.35250435 L12.9818609,7.35250435 L12.9192522,6.98050435 L12.5561217,6.98050435 L12.4961217,7.35250435 L12.1721217,7.35250435 Z M12.6009913,6.70763478 L12.8738609,6.70763478 L12.7392522,5.89163478 L12.7361217,5.89163478 L12.6009913,6.70763478 Z"/>
    <polygon fill="#000000" points="13.762 6.075 13.762 7.352 13.474 7.352 13.474 5.319 13.81 5.319 14.179 6.486 14.179 5.319 14.464 5.319 14.464 7.352 14.164 7.352"/>
    <path fill="#000000" d="M15.6814435,5.86455652 L15.6814435,6.80629565 C15.6814435,7.11829565 15.5525739,7.35255652 15.186313,7.35255652 L14.658313,7.35255652 L14.658313,5.31829565 L15.186313,5.31829565 C15.5525739,5.31829565 15.6814435,5.54942609 15.6814435,5.86455652 Z M15.1445739,7.07342609 C15.2854435,7.07342609 15.3397043,6.98942609 15.3397043,6.86681739 L15.3397043,5.80142609 C15.3397043,5.68142609 15.2854435,5.59742609 15.1445739,5.59742609 L15.0005739,5.59742609 L15.0005739,7.07342609 L15.1445739,7.07342609 Z"/>
  </g>
</svg>
