<svg xmlns="http://www.w3.org/2000/svg" width="24" height="24" viewBox="0 0 24 24">
  <g fill="none" fill-rule="evenodd">
    <path fill="#000000" d="M19.0870435 12.0093391C19.0870435 11.6378609 19.388087 11.3373391 19.7590435 11.3373391 20.1294783 11.3373391 20.43 11.6378609 20.43 12.0093391 20.43 12.3802957 20.1294783 12.6813391 19.7590435 12.6813391 19.388087 12.6813391 19.0870435 12.3802957 19.0870435 12.0093391M20.5432696 12.9401217C20.9987478 12.9813391 21.3561391 13.3648174 21.3561391 13.8322957L21.3561391 14.0556 21.3561391 14.1531652 21.3561391 15.6943826C21.3561391 15.8373391 21.2397913 15.9542087 21.096313 15.9542087 20.9517913 15.9542087 20.8354435 15.8373391 20.8354435 15.6943826L20.8354435 14.0952522C20.8354435 14.0352522 20.8182261 13.9538609 20.7086609 13.9538609 20.632487 13.9538609 20.6168348 14.0342087 20.6142261 14.0853391L20.6142261 18.8785565C20.6142261 19.0846435 20.4472696 19.2526435 20.2401391 19.2526435 20.0330087 19.2526435 19.8655304 19.0846435 19.8655304 18.8785565L19.8655304 16.1164696C19.864487 16.085687 19.8540522 16.0069043 19.7590957 16.0069043L19.7585739 16.0069043C19.6630957 16.0069043 19.6516174 16.085687 19.6505739 16.1164696L19.6505739 18.8785565C19.6505739 19.0846435 19.4841391 19.2526435 19.2770087 19.2526435 19.0693565 19.2526435 18.9029217 19.0846435 18.9029217 18.8785565L18.9029217 14.0853391C18.900313 14.0342087 18.8836174 13.9538609 18.808487 13.9538609 18.6984 13.9538609 18.6817043 14.0352522 18.6817043 14.0952522L18.6817043 15.6943826C18.6817043 15.8373391 18.5648348 15.9542087 18.4208348 15.9542087 18.2768348 15.9542087 18.1610087 15.8373391 18.1610087 15.6943826L18.1610087 13.8322957C18.1610087 13.3648174 18.5184 12.9813391 18.9749217 12.9401217 18.9900522 12.9380348 19.0062261 12.9359478 19.0239652 12.9359478L20.4921391 12.9359478C20.5114435 12.9359478 20.5270957 12.9380348 20.5432696 12.9401217M15.092713 12.3621391C15.092713 12.0110087 14.808887 11.7256174 14.4572348 11.7256174 14.1055826 11.7256174 13.820713 12.0110087 13.820713 12.3621391 13.820713 12.7137913 14.1055826 12.9981391 14.4572348 12.9981391 14.808887 12.9981391 15.092713 12.7137913 15.092713 12.3621391M13.1754261 13.8029739L12.6469043 15.5241913C12.6469043 15.5241913 12.5524696 15.8398435 12.8201217 15.9186261 13.0867304 15.9974087 13.1676 15.6895826 13.1676 15.6895826L13.5938609 14.252713C13.5938609 14.252713 13.6168174 14.1421043 13.6997739 14.1661043 13.7832522 14.1901043 13.7519478 14.3080174 13.7519478 14.3080174L13.0100348 17.0001913 13.6997739 17.0001913 13.6997739 18.9285391C13.6997739 19.1111478 13.8484696 19.2593217 14.0316 19.2593217 14.2147304 19.2593217 14.3623826 19.1111478 14.3623826 18.9285391L14.3623826 17.0001913 14.5507304 17.0001913 14.5507304 18.9285391C14.5507304 19.1111478 14.6983826 19.2593217 14.8820348 19.2593217 15.065687 19.2593217 15.2138609 19.1111478 15.2138609 18.9285391L15.2138609 17.0001913 15.9036 17.0001913 15.1622087 14.3080174C15.1622087 14.3080174 15.1309043 14.1901043 15.2138609 14.1661043 15.2968174 14.1421043 15.3202957 14.252713 15.3202957 14.252713L15.7465565 15.6895826C15.7465565 15.6895826 15.8274261 15.9974087 16.093513 15.9186261 16.361687 15.8398435 16.2672522 15.5241913 16.2672522 15.5241913L15.7382087 13.8029739C15.7382087 13.8029739 15.5493391 13.3052348 15.1309043 13.3052348L14.4573391 13.3052348 13.7832522 13.3052348C13.3648174 13.3052348 13.1754261 13.8029739 13.1754261 13.8029739M11.2831304 12.3621391C11.2831304 12.0110087 10.9987826 11.7256174 10.6471304 11.7256174 10.2954783 11.7256174 10.0111304 12.0110087 10.0111304 12.3621391 10.0111304 12.7137913 10.2954783 12.9981391 10.6471304 12.9981391 10.9987826 12.9981391 11.2831304 12.7137913 11.2831304 12.3621391M9.36563478 13.8029739L8.83711304 15.5241913C8.83711304 15.5241913 8.74267826 15.8398435 9.01033043 15.9186261 9.27693913 15.9974087 9.35728696 15.6895826 9.35728696 15.6895826L9.78406957 14.252713C9.78406957 14.252713 9.80702609 14.1421043 9.88998261 14.1661043 9.97346087 14.1901043 9.94215652 14.3080174 9.94215652 14.3080174L9.20024348 17.0001913 9.88998261 17.0001913 9.88998261 18.9285391C9.88998261 19.1111478 10.0392 19.2593217 10.2218087 19.2593217 10.4049391 19.2593217 10.553113 19.1111478 10.553113 18.9285391L10.553113 17.0001913 10.7414609 17.0001913 10.7414609 18.9285391C10.7414609 19.1111478 10.8885913 19.2593217 11.0727652 19.2593217 11.2564174 19.2593217 11.4040696 19.1111478 11.4040696 18.9285391L11.4040696 17.0001913 12.0943304 17.0001913 11.3529391 14.3080174C11.3529391 14.3080174 11.321113 14.1901043 11.4040696 14.1661043 11.4870261 14.1421043 11.5105043 14.252713 11.5105043 14.252713L11.9362435 15.6895826C11.9362435 15.6895826 12.0176348 15.9974087 12.2837217 15.9186261 12.5518957 15.8398435 12.4569391 15.5241913 12.4569391 15.5241913L11.9284174 13.8029739C11.9284174 13.8029739 11.7400696 13.3052348 11.321113 13.3052348L10.6480696 13.3052348 9.97346087 13.3052348C9.55502609 13.3052348 9.36563478 13.8029739 9.36563478 13.8029739M17.2288696 15.9220696C17.5215652 15.9220696 17.757913 15.6852 17.757913 15.3919826 17.757913 15.099287 17.5215652 14.8629391 17.2288696 14.8629391 16.9361739 14.8629391 16.6993043 15.099287 16.6993043 15.3919826 16.6993043 15.6852 16.9361739 15.9220696 17.2288696 15.9220696M15.9594783 17.5668C15.9333913 17.628887 15.9125217 17.7598435 16.0366957 17.8172348 16.1822609 17.8840174 16.2636522 17.7431478 16.2636522 17.7431478L16.5516522 16.8254087C16.5516522 16.8254087 16.6012174 16.7638435 16.6012174 16.8274957L16.6012174 18.9880174 16.6027826 18.9880174C16.6027826 19.1388 16.7238261 19.2598435 16.874087 19.2598435 17.0243478 19.2598435 17.145913 19.1388 17.145913 18.9880174L17.145913 18.1354957C17.145913 18.1354957 17.1302609 18.0149739 17.2273043 18.0149739 17.3243478 18.0149739 17.3092174 18.1354957 17.3092174 18.1354957L17.3092174 18.9880174C17.3092174 19.1388 17.4313043 19.2598435 17.5815652 19.2598435 17.7313043 19.2598435 17.853913 19.1388 17.853913 18.9880174L17.853913 16.8274957C17.853913 16.7638435 17.8873043 16.8092348 17.8873043 16.8092348L18.1126957 17.4379304C18.1126957 17.4379304 18.2107826 17.7186261 18.2410435 17.7311478 18.3427826 17.7739304 18.4601739 17.7254087 18.5034783 17.6226261 18.5316522 17.5558435 18.5206957 17.4838435 18.482087 17.4295826L18.4836522 17.4274957C18.4773913 17.4071478 18.1466087 16.5963652 18.1074783 16.4826261 17.9885217 16.1335826 17.7709565 16.136713 17.5617391 16.1309739 17.3525217 16.1262783 17.2273043 16.1309739 17.2273043 16.1309739 17.2273043 16.1309739 17.0937391 16.1257565 16.8172174 16.1335826 16.5412174 16.1424522 16.454087 16.2838435 16.149913 17.0669739 16.1066087 17.1796696 15.9594783 17.5443652 15.9573913 17.5662783L15.9594783 17.5668zM5.6025913 12.0093391C5.6025913 11.6378609 5.30102609 11.3373391 4.93006957 11.3373391 4.55963478 11.3373391 4.25963478 11.6378609 4.25963478 12.0093391 4.25963478 12.3802957 4.55963478 12.6813391 4.93006957 12.6813391 5.30102609 12.6813391 5.6025913 12.3802957 5.6025913 12.0093391M3.69935522 15.9318284C3.70388501 15.9507835 3.70458959 15.9709457 3.70074783 15.9912522L3.1044 19.1529913C3.09135652 19.2213391 3.03135652 19.2693391 2.96405217 19.2693391 2.95518261 19.2693391 2.94631304 19.2682957 2.93744348 19.2667304 2.85970435 19.2521217 2.80909565 19.177513 2.82370435 19.0997739L3.42005217 15.9385565C3.42268574 15.9245422 3.42726924 15.9113926 3.43346948 15.899337 3.37216559 15.8516958 3.33271304 15.7774424 3.33271304 15.6943826L3.33271304 14.1531652 3.33271304 14.0556 3.33271304 13.8322957C3.33271304 13.3648174 3.69062609 12.9813391 4.14610435 12.9401217 4.16175652 12.9380348 4.17793043 12.9359478 4.19723478 12.9359478L4.93027826 12.9359478 5.6654087 12.9359478C5.68366957 12.9359478 5.69932174 12.9380348 5.71445217 12.9401217 6.17097391 12.9813391 6.52836522 13.3648174 6.52836522 13.8322957L6.52836522 15.6943826C6.52836522 15.8373391 6.41201739 15.9542087 6.26853913 15.9542087 6.12453913 15.9542087 6.00766957 15.8373391 6.00766957 15.6943826L6.00766957 14.0952522C6.00766957 14.0352522 5.99097391 13.9538609 5.88088696 13.9538609 5.80575652 13.9538609 5.78853913 14.0342087 5.78645217 14.0853391L5.78645217 18.8785565C5.78645217 19.0846435 5.61949565 19.2526435 5.41236522 19.2526435 5.20575652 19.2526435 5.03827826 19.0846435 5.03827826 18.8785565L5.03827826 16.1164696C5.03775652 16.085687 5.02575652 16.0069043 4.9308 16.0069043L4.93027826 16.0069043C4.83532174 16.0069043 4.8254087 16.085687 4.82332174 16.1164696L4.82332174 18.8785565C4.82332174 19.0846435 4.65636522 19.2526435 4.44923478 19.2526435 4.24210435 19.2526435 4.07566957 19.0846435 4.07566957 18.8785565L4.07566957 14.0853391C4.07253913 14.0342087 4.05688696 13.9538609 3.98123478 13.9538609 3.87114783 13.9538609 3.85393043 14.0352522 3.85393043 14.0952522L3.85393043 15.6943826C3.85393043 15.7999315 3.79050581 15.8912597 3.69935522 15.9318284z"/>
    <path fill="#000000" d="M8.27848696,17.1080812 L8.5610087,18.148487 L8.27848696,18.148487 L8.27848696,18.9984 C8.27848696,19.1434435 8.16109565,19.2597913 8.01709565,19.2597913 C7.87309565,19.2597913 7.75622609,19.1434435 7.75622609,18.9984 L7.75622609,18.180313 C7.75622609,18.180313 7.75790155,18.166537 7.7562875,18.148487 L7.67822609,18.148487 L7.5984775,18.148487 C7.59692336,18.166537 7.59866087,18.180313 7.59866087,18.180313 L7.59866087,18.9984 C7.59866087,19.1434435 7.48231304,19.2597913 7.33831304,19.2597913 C7.19431304,19.2597913 7.07744348,19.1434435 7.07744348,18.9984 L7.0764,18.9984 L7.0764,18.148487 L6.79492174,18.148487 L7.0764,17.1138224 L7.0764,16.924487 C7.0764,16.8639652 7.04353043,16.7971826 7.04353043,16.7971826 L6.5097913,15.8314435 C6.5097913,15.8314435 6.4910087,15.7771826 6.4910087,15.7464 C6.4910087,15.640487 6.57761739,15.5544 6.68405217,15.5544 C6.75292174,15.5544 6.8124,15.5904 6.84735652,15.6446609 L6.84892174,15.6436174 C6.86457391,15.6566609 7.11083478,16.0970087 7.19326957,16.1784 C7.27935652,16.2655304 7.35709565,16.2556174 7.35709565,16.2556174 L7.67744348,16.2556174 L7.99831304,16.2556174 C7.99831304,16.2556174 8.07553043,16.2655304 8.16213913,16.1784 C8.24353043,16.0970087 8.49083478,15.6566609 8.50596522,15.6436174 L8.50805217,15.6446609 C8.54196522,15.5904 8.60196522,15.5544 8.67135652,15.5544 C8.77831304,15.5544 8.8644,15.640487 8.8644,15.7464 C8.8644,15.7771826 8.8044,15.9055304 8.8044,15.9055304 L8.31083478,16.7971826 C8.31083478,16.7971826 8.27848696,16.8639652 8.27848696,16.924487 L8.27848696,17.1080812 Z"/>
    <path fill="#000000" d="M7.67733913,15.9220696 C7.97003478,15.9220696 8.20638261,15.6852 8.20638261,15.3919826 C8.20638261,15.099287 7.97003478,14.8629391 7.67733913,14.8629391 C7.38464348,14.8629391 7.14829565,15.099287 7.14829565,15.3919826 C7.14829565,15.6852 7.38464348,15.9220696 7.67733913,15.9220696"/>
    <polygon fill="#000000" points="3.789 3.624 3.796 3.624 3.796 7.37 4.619 7.37 4.619 2.477 3.962 2.477 3.205 3.365 3.205 4.223 3.211 4.223"/>
    <polygon fill="#000000" points="7.632 3.283 7.632 4.568 7.343 4.568 7.343 2.523 7.68 2.523 8.052 3.697 8.052 2.523 8.338 2.523 8.338 4.568 8.037 4.568"/>
    <path fill="#000000" d="M8.53377391 4.04029565L8.53377391 3.05107826C8.53377391 2.73125217 8.69081739 2.49907826 9.05238261 2.49907826 9.4176 2.49907826 9.57464348 2.73125217 9.57464348 3.05107826L9.57464348 4.04029565C9.57464348 4.3569913 9.4176 4.59229565 9.05238261 4.59229565 8.69081739 4.59229565 8.53377391 4.3569913 8.53377391 4.04029565M9.23029565 4.09455652L9.23029565 2.99681739C9.23029565 2.87316522 9.17603478 2.78551304 9.05238261 2.78551304 8.93186087 2.78551304 8.8776 2.87316522 8.8776 2.99681739L8.8776 4.09455652C8.8776 4.2182087 8.93186087 4.30586087 9.05238261 4.30586087 9.17603478 4.30586087 9.23029565 4.2182087 9.23029565 4.09455652M7.34264348 5.38773913L7.85238261 5.38773913C8.19933913 5.38773913 8.32612174 5.55991304 8.32612174 5.84634783L8.32612174 6.27730435C8.32612174 6.56426087 8.19933913 6.73904348 7.85238261 6.73904348L7.68646957 6.73904348 7.68646957 7.43295652 7.34264348 7.43295652 7.34264348 5.38773913zM7.68646957 5.66843478L7.68646957 6.47347826 7.81325217 6.47347826C7.93064348 6.47347826 7.98229565 6.41608696 7.98229565 6.30443478L7.98229565 5.83434783C7.98229565 5.72269565 7.93064348 5.66843478 7.81325217 5.66843478L7.68646957 5.66843478zM8.50366957 6.90490435L8.50366957 5.91568696C8.50366957 5.59586087 8.66071304 5.36368696 9.02227826 5.36368696 9.38749565 5.36368696 9.54453913 5.59586087 9.54453913 5.91568696L9.54453913 6.90490435C9.54453913 7.2216 9.38749565 7.45690435 9.02227826 7.45690435 8.66071304 7.45690435 8.50366957 7.2216 8.50366957 6.90490435M9.20071304 6.95916522L9.20071304 5.86142609C9.20071304 5.73777391 9.14593043 5.65012174 9.02227826 5.65012174 8.90175652 5.65012174 8.84749565 5.73777391 8.84749565 5.86142609L8.84749565 6.95916522C8.84749565 7.08281739 8.90175652 7.17046957 9.02227826 7.17046957 9.14593043 7.17046957 9.20071304 7.08281739 9.20071304 6.95916522"/>
    <polygon fill="#000000" points="10.78 5.388 10.391 7.433 10.017 7.433 9.628 5.388 9.978 5.388 10.213 6.815 10.216 6.815 10.458 5.388"/>
    <polygon fill="#000000" points="10.922 5.388 11.742 5.388 11.742 5.668 11.266 5.668 11.266 6.253 11.607 6.253 11.607 6.531 11.266 6.531 11.266 7.152 11.742 7.152 11.742 7.433 10.922 7.433"/>
    <path fill="#000000" d="M12.2700522,6.49471304 L12.2700522,7.4328 L11.9262261,7.4328 L11.9262261,5.38758261 L12.4270957,5.38758261 C12.7735304,5.38758261 12.900313,5.55975652 12.900313,5.8461913 L12.900313,6.10862609 C12.900313,6.3288 12.8220522,6.45871304 12.6258783,6.50358261 L12.9545739,7.4328 L12.5930087,7.4328 L12.2700522,6.49471304 Z M12.2700522,5.66827826 L12.2700522,6.3048 L12.3848348,6.3048 C12.5022261,6.3048 12.5533565,6.24427826 12.5533565,6.13575652 L12.5533565,5.8341913 C12.5533565,5.72253913 12.5022261,5.66827826 12.3848348,5.66827826 L12.2700522,5.66827826 Z"/>
    <polygon fill="#000000" points="13.018 5.388 13.932 5.388 13.932 5.668 13.648 5.668 13.648 7.433 13.302 7.433 13.302 5.668 13.018 5.668"/>
    <polygon fill="#000000" points="14.761 6.655 14.761 7.433 14.417 7.433 14.417 6.655 14.034 5.388 14.393 5.388 14.601 6.163 14.604 6.163 14.812 5.388 15.141 5.388"/>
  </g>
</svg>
