<svg xmlns="http://www.w3.org/2000/svg" width="24" height="24" viewBox="0 0 24 24">
  <g fill="none" fill-rule="evenodd">
    <path fill="#000000" d="M16.0681043 12.3392348L13.6154087 14.6724522C13.5225391 14.7648 13.4750609 14.8326261 13.4750609 15.0230609L13.4750609 21.5625391C13.4750609 21.6392348 13.5381913 21.7023652 13.6154087 21.7023652L16.1489739 21.7023652C16.2261913 21.7023652 16.2882783 21.6392348 16.2882783 21.5625391L16.2882783 12.3981913C16.2882783 12.3209739 16.2282783 12.1801043 16.0681043 12.3392348M9.00177391 15.3792L6.54855652 17.7124174C6.4562087 17.8042435 6.40873043 17.8720696 6.40873043 18.0625043L6.40873043 21.5628522C6.40873043 21.6390261 6.47186087 21.7016348 6.54855652 21.7016348L9.08264348 21.7016348C9.15986087 21.7016348 9.22194783 21.6390261 9.22194783 21.5628522L9.22194783 15.4376348C9.22194783 15.3604174 9.16142609 15.2190261 9.00177391 15.3792"/>
    <path fill="#000000" d="M17.1830609,9.50958261 C17.1841043,9.4908 17.1773217,9.47097391 17.1621913,9.45636522 C17.1491478,9.44384348 17.1329739,9.43810435 17.1168,9.43653913 L17.1032348,9.43758261 L17.0834087,9.43862609 L15.2051478,9.86227826 L15.1712348,9.86593043 C15.1576696,9.86853913 15.1446261,9.87532174 15.1341913,9.88471304 C15.1065391,9.91288696 15.1065391,9.95775652 15.1341913,9.98593043 L15.1555826,10.0073217 L15.5844522,10.4361913 L11.3286261,14.6920174 L9.36323478,12.7261043 C9.3408,12.7036696 9.30532174,12.7036696 9.28288696,12.7261043 L8.74966957,13.2598435 C8.74914783,13.2598435 8.74914783,13.2603652 8.74914783,13.2603652 L5.59836522,16.4106261 C5.57645217,16.4330609 5.57645217,16.4690609 5.59836522,16.4904522 L6.13262609,17.024713 C6.15453913,17.0466261 6.19001739,17.0466261 6.21193043,17.024713 L9.32358261,13.9135826 L10.7500174,15.3400174 C10.7515826,15.3421043 10.7521043,15.344713 10.7541913,15.3468 L11.2879304,15.8794957 C11.3098435,15.9019304 11.3458435,15.9019304 11.3677565,15.8794957 L16.1980174,11.0497565 L16.6482783,11.5000174 C16.6759304,11.5276696 16.7213217,11.5276696 16.7484522,11.5000174 C16.7620174,11.4864522 16.7682783,11.4702783 16.7693217,11.4535826 L16.7693217,11.4473217 L17.1820174,9.53045217 L17.1830609,9.50958261 Z"/>
    <path fill="#000000" d="M12.5488174 15.7886609L11.3618609 16.9850087C11.3394261 17.0037913 11.3065565 17.0032696 11.285687 16.9824L10.2103826 15.8862261C10.013687 15.6900522 9.97090435 15.8491826 9.97090435 15.9264L9.97090435 21.5622261C9.97090435 21.6389217 10.0329913 21.7020522 10.109687 21.7020522L12.6442957 21.7020522C12.7209913 21.7020522 12.7836 21.6389217 12.7836 21.5622261L12.7836 15.8330087C12.7836 15.7557913 12.7230783 15.6144 12.5488174 15.7886609M4.11208696 6.16403478L4.11208696 5.63290435C4.11208696 5.16646957 3.94721739 4.82942609 3.56686957 4.65673043 3.88930435 4.49916522 4.04008696 4.2122087 4.04008696 3.80994783L4.04008696 3.60907826C4.04008696 2.84838261 3.64565217 2.43933913 2.89226087 2.43933913 2.14565217 2.43933913 1.758 2.84838261 1.758 3.60907826L1.758 3.80994783C1.758 4.20490435 1.902 4.49916522 2.21713043 4.65673043 1.83730435 4.82942609 1.67921739 5.16646957 1.67921739 5.63290435L1.67921739 6.16403478C1.67921739 6.90333913 2.03086957 7.41986087 2.89226087 7.41986087 3.76043478 7.41986087 4.11208696 6.90333913 4.11208696 6.16403478zM2.526 3.5589913C2.526 3.26473043 2.62669565 3.09255652 2.89226087 3.09255652 3.1646087 3.09255652 3.26530435 3.26473043 3.26530435 3.5589913L3.26530435 3.88925217C3.26530435 4.1829913 3.1646087 4.35568696 2.89226087 4.35568696 2.62669565 4.35568696 2.526 4.1829913 2.526 3.88925217L2.526 3.5589913zM3.294 6.25012174C3.294 6.54438261 3.186 6.75255652 2.89226087 6.75255652 2.60478261 6.75255652 2.49730435 6.54438261 2.49730435 6.25012174L2.49730435 5.46073043C2.49730435 5.16646957 2.60478261 4.95829565 2.89226087 4.95829565 3.186 4.95829565 3.294 5.16646957 3.294 5.46073043L3.294 6.25012174zM6.88758261 3.0396L6.88758261 3.98133913C6.88758261 4.29333913 6.75871304 4.5276 6.39245217 4.5276L5.86445217 4.5276 5.86445217 2.49333913 6.39245217 2.49333913C6.75871304 2.49333913 6.88758261 2.72446957 6.88758261 3.0396zM6.35071304 4.24846957C6.49158261 4.24846957 6.54584348 4.16446957 6.54584348 4.04133913L6.54584348 2.97646957C6.54584348 2.85646957 6.49158261 2.77246957 6.35071304 2.77246957L6.20671304 2.77246957 6.20671304 4.24846957 6.35071304 4.24846957z"/>
    <polygon fill="#000000" points="7.082 2.494 7.898 2.494 7.898 2.773 7.425 2.773 7.425 3.354 7.763 3.354 7.763 3.63 7.425 3.63 7.425 4.249 7.898 4.249 7.898 4.527 7.082 4.527"/>
    <path fill="#000000" d="M8.05106087,4.00246957 L8.05106087,3.01846957 C8.05106087,2.70073043 8.20132174,2.4696 8.56132174,2.4696 C8.93906087,2.4696 9.04393043,2.67986087 9.04393043,2.97986087 L9.04393043,3.21986087 L8.73193043,3.21986087 L8.73193043,2.95273043 C8.73193043,2.82646957 8.6901913,2.75446957 8.56706087,2.75446957 C8.44393043,2.75446957 8.39332174,2.8416 8.39332174,2.96473043 L8.39332174,4.05673043 C8.39332174,4.17933913 8.44393043,4.26646957 8.56706087,4.26646957 C8.6901913,4.26646957 8.73193043,4.18873043 8.73193043,4.06873043 L8.73193043,3.6936 L9.04393043,3.6936 L9.04393043,4.04473043 C9.04393043,4.33533913 8.92393043,4.55133913 8.56132174,4.55133913 C8.20132174,4.55133913 8.05106087,4.3176 8.05106087,4.00246957"/>
    <polygon fill="#000000" points="9.23 2.494 10.046 2.494 10.046 2.773 9.572 2.773 9.572 3.354 9.911 3.354 9.911 3.63 9.572 3.63 9.572 4.249 10.046 4.249 10.046 4.527 9.23 4.527"/>
    <polygon fill="#000000" points="10.517 3.25 10.517 4.527 10.229 4.527 10.229 2.494 10.565 2.494 10.933 3.66 10.933 2.494 11.219 2.494 11.219 4.527 10.919 4.527"/>
    <polygon fill="#000000" points="11.374 2.494 12.283 2.494 12.283 2.773 12.001 2.773 12.001 4.527 11.656 4.527 11.656 2.773 11.374 2.773"/>
    <polygon fill="#000000" points="13.694 3.271 13.502 4.527 13.182 4.527 12.908 2.494 13.238 2.494 13.398 3.783 13.4 3.783 13.571 2.494 13.85 2.494 14.039 3.783 14.042 3.783 14.198 2.494 14.486 2.494 14.222 4.527 13.898 4.527 13.698 3.271"/>
    <path fill="#000000" d="M14.6028 4.00246957L14.6028 3.01846957C14.6028 2.70073043 14.7588 2.4696 15.1188 2.4696 15.4819304 2.4696 15.6379304 2.70073043 15.6379304 3.01846957L15.6379304 4.00246957C15.6379304 4.3176 15.4819304 4.55133913 15.1188 4.55133913 14.7588 4.55133913 14.6028 4.3176 14.6028 4.00246957M15.2956696 4.05673043L15.2956696 2.96473043C15.2956696 2.8416 15.2419304 2.75446957 15.1188 2.75446957 14.9988 2.75446957 14.9450609 2.8416 14.9450609 2.96473043L14.9450609 4.05673043C14.9450609 4.17933913 14.9988 4.26646957 15.1188 4.26646957 15.2419304 4.26646957 15.2956696 4.17933913 15.2956696 4.05673043M16.1745913 3.59457391L16.1745913 4.52744348 15.8323304 4.52744348 15.8323304 2.49370435 16.3305913 2.49370435C16.6754609 2.49370435 16.8017217 2.66483478 16.8017217 2.94970435L16.8017217 3.21057391C16.8017217 3.42970435 16.7234609 3.55857391 16.5283304 3.60344348L16.8554609 4.52744348 16.4954609 4.52744348 16.1745913 3.59457391zM16.1745913 2.77283478L16.1745913 3.40570435 16.2883304 3.40570435C16.4057217 3.40570435 16.4563304 3.34570435 16.4563304 3.23770435L16.4563304 2.93770435C16.4563304 2.82657391 16.4057217 2.77283478 16.2883304 2.77283478L16.1745913 2.77283478z"/>
    <polygon fill="#000000" points="17.329 3.538 17.329 4.527 16.987 4.527 16.987 2.494 17.329 2.494 17.329 3.387 17.701 2.494 18.037 2.494 17.641 3.409 18.046 4.527 17.686 4.527"/>
    <path fill="#000000" d="M18.6354261,4.52749565 L19.0194261,2.49375652 L19.4091652,2.49375652 L19.7962957,4.52749565 L19.4451652,4.52749565 L19.3825565,4.15549565 L19.0194261,4.15549565 L18.9594261,4.52749565 L18.6354261,4.52749565 Z M19.0642957,3.88262609 L19.3371652,3.88262609 L19.2025565,3.06662609 L19.1994261,3.06662609 L19.0642957,3.88262609 Z"/>
    <polygon fill="#000000" points="20.225 3.25 20.225 4.527 19.937 4.527 19.937 2.494 20.273 2.494 20.642 3.66 20.642 2.494 20.927 2.494 20.927 4.527 20.627 4.527"/>
    <path fill="#000000" d="M22.1446957,3.0396 L22.1446957,3.98133913 C22.1446957,4.29333913 22.0158261,4.5276 21.6495652,4.5276 L21.1215652,4.5276 L21.1215652,2.49333913 L21.6495652,2.49333913 C22.0158261,2.49333913 22.1446957,2.72446957 22.1446957,3.0396 Z M21.6078261,4.24846957 C21.7486957,4.24846957 21.8029565,4.16446957 21.8029565,4.04133913 L21.8029565,2.97646957 C21.8029565,2.85646957 21.7486957,2.77246957 21.6078261,2.77246957 L21.4638261,2.77246957 L21.4638261,4.24846957 L21.6078261,4.24846957 Z"/>
    <polygon fill="#000000" points="5.865 5.343 6.681 5.343 6.681 5.622 6.207 5.622 6.207 6.203 6.545 6.203 6.545 6.479 6.207 6.479 6.207 7.098 6.681 7.098 6.681 7.377 5.865 7.377"/>
    <path fill="#000000" d="M6.83342609 6.85163478L6.83342609 5.86763478C6.83342609 5.54989565 6.98368696 5.31876522 7.34368696 5.31876522 7.72142609 5.31876522 7.82629565 5.52850435 7.82629565 5.82902609L7.82629565 6.06902609 7.51429565 6.06902609 7.51429565 5.80189565C7.51429565 5.67563478 7.47255652 5.60363478 7.34942609 5.60363478 7.22629565 5.60363478 7.17568696 5.69076522 7.17568696 5.81389565L7.17568696 6.90589565C7.17568696 7.02850435 7.22629565 7.11563478 7.34942609 7.11563478 7.47255652 7.11563478 7.51429565 7.03789565 7.51429565 6.91789565L7.51429565 6.54276522 7.82629565 6.54276522 7.82629565 6.89389565C7.82629565 7.18450435 7.70629565 7.40050435 7.34368696 7.40050435 6.98368696 7.40050435 6.83342609 7.16676522 6.83342609 6.85163478M8.01208696 6.85163478L8.01208696 5.86763478C8.01208696 5.54989565 8.16808696 5.31876522 8.52808696 5.31876522 8.89121739 5.31876522 9.04721739 5.54989565 9.04721739 5.86763478L9.04721739 6.85163478C9.04721739 7.16676522 8.89121739 7.40050435 8.52808696 7.40050435 8.16808696 7.40050435 8.01208696 7.16676522 8.01208696 6.85163478M8.70495652 6.90589565L8.70495652 5.81389565C8.70495652 5.69076522 8.65121739 5.60363478 8.52808696 5.60363478 8.40808696 5.60363478 8.35434783 5.69076522 8.35434783 5.81389565L8.35434783 6.90589565C8.35434783 7.02850435 8.40808696 7.11563478 8.52808696 7.11563478 8.65121739 7.11563478 8.70495652 7.02850435 8.70495652 6.90589565"/>
    <polygon fill="#000000" points="9.53 6.099 9.53 7.376 9.242 7.376 9.242 5.343 9.578 5.343 9.947 6.51 9.947 5.343 10.232 5.343 10.232 7.376 9.932 7.376"/>
    <path fill="#000000" d="M10.426487,6.85163478 L10.426487,5.86763478 C10.426487,5.54989565 10.582487,5.31876522 10.942487,5.31876522 C11.3056174,5.31876522 11.4616174,5.54989565 11.4616174,5.86763478 L11.4616174,6.85163478 C11.4616174,7.16676522 11.3056174,7.40050435 10.942487,7.40050435 C10.582487,7.40050435 10.426487,7.16676522 10.426487,6.85163478 M11.1193565,6.90589565 L11.1193565,5.81389565 C11.1193565,5.69076522 11.0656174,5.60363478 10.942487,5.60363478 C10.822487,5.60363478 10.7687478,5.69076522 10.7687478,5.81389565 L10.7687478,6.90589565 C10.7687478,7.02850435 10.822487,7.11563478 10.942487,7.11563478 C11.0656174,7.11563478 11.1193565,7.02850435 11.1193565,6.90589565"/>
    <polygon fill="#000000" points="12.598 6.057 12.589 6.057 12.358 7.377 12.199 7.377 11.944 6.057 11.938 6.057 11.938 7.377 11.656 7.377 11.656 5.342 12.055 5.342 12.277 6.489 12.28 6.489 12.478 5.342 12.91 5.342 12.91 7.377 12.598 7.377"/>
    <polygon fill="#000000" points="13.105 7.377 13.447 7.377 13.447 5.343 13.105 5.343"/>
    <path fill="#000000" d="M13.6445217 6.85163478L13.6445217 5.86763478C13.6445217 5.54989565 13.7947826 5.31876522 14.1547826 5.31876522 14.5325217 5.31876522 14.6373913 5.52850435 14.6373913 5.82902609L14.6373913 6.06902609 14.3253913 6.06902609 14.3253913 5.80189565C14.3253913 5.67563478 14.2836522 5.60363478 14.1605217 5.60363478 14.0373913 5.60363478 13.9867826 5.69076522 13.9867826 5.81389565L13.9867826 6.90589565C13.9867826 7.02850435 14.0373913 7.11563478 14.1605217 7.11563478 14.2836522 7.11563478 14.3253913 7.03789565 14.3253913 6.91789565L14.3253913 6.54276522 14.6373913 6.54276522 14.6373913 6.89389565C14.6373913 7.18450435 14.5173913 7.40050435 14.1547826 7.40050435 13.7947826 7.40050435 13.6445217 7.16676522 13.6445217 6.85163478M15.8537739 6.29071304L16.3400348 6.29071304 16.3400348 7.37645217 16.0937739 7.37645217 16.0937739 7.15471304C16.0489043 7.30758261 15.9529043 7.40045217 15.7666435 7.40045217 15.4729043 7.40045217 15.3377739 7.16671304 15.3377739 6.85158261L15.3377739 5.86758261C15.3377739 5.54984348 15.4906435 5.31871304 15.8506435 5.31871304 16.2289043 5.31871304 16.3400348 5.52845217 16.3400348 5.82897391L16.3400348 6.00845217 16.0280348 6.00845217 16.0280348 5.80184348C16.0280348 5.67558261 15.9800348 5.60358261 15.8569043 5.60358261 15.7337739 5.60358261 15.6800348 5.69071304 15.6800348 5.81384348L15.6800348 6.90584348C15.6800348 7.02897391 15.7306435 7.11558261 15.8480348 7.11558261 15.9586435 7.11558261 16.0160348 7.05297391 16.0160348 6.92045217L16.0160348 6.56045217 15.8537739 6.56045217 15.8537739 6.29071304zM16.8763826 6.44363478L16.8763826 7.37650435 16.5341217 7.37650435 16.5341217 5.34276522 17.0323826 5.34276522C17.3772522 5.34276522 17.503513 5.51389565 17.503513 5.79876522L17.503513 6.05963478C17.503513 6.27876522 17.4252522 6.40763478 17.2301217 6.45302609L17.5572522 7.37650435 17.1972522 7.37650435 16.8763826 6.44363478zM16.8763826 5.62189565L16.8763826 6.25476522 16.9901217 6.25476522C17.107513 6.25476522 17.1581217 6.19476522 17.1581217 6.08676522L17.1581217 5.78676522C17.1581217 5.67563478 17.107513 5.62189565 16.9901217 5.62189565L16.8763826 5.62189565zM17.6890957 6.85163478L17.6890957 5.86763478C17.6890957 5.54989565 17.8450957 5.31876522 18.2050957 5.31876522 18.5682261 5.31876522 18.7242261 5.54989565 18.7242261 5.86763478L18.7242261 6.85163478C18.7242261 7.16676522 18.5682261 7.40050435 18.2050957 7.40050435 17.8450957 7.40050435 17.6890957 7.16676522 17.6890957 6.85163478M18.3819652 6.90589565L18.3819652 5.81389565C18.3819652 5.69076522 18.3282261 5.60363478 18.2050957 5.60363478 18.0850957 5.60363478 18.0313565 5.69076522 18.0313565 5.81389565L18.0313565 6.90589565C18.0313565 7.02850435 18.0850957 7.11563478 18.2050957 7.11563478 18.3282261 7.11563478 18.3819652 7.02850435 18.3819652 6.90589565"/>
    <polygon fill="#000000" points="19.627 6.12 19.435 7.377 19.114 7.377 18.841 5.342 19.171 5.342 19.33 6.633 19.333 6.633 19.504 5.342 19.783 5.342 19.972 6.633 19.975 6.633 20.131 5.342 20.419 5.342 20.155 7.377 19.831 7.377 19.63 6.12"/>
    <polygon fill="#000000" points="20.526 5.343 21.435 5.343 21.435 5.622 21.153 5.622 21.153 7.377 20.809 7.377 20.809 5.622 20.526 5.622"/>
    <polygon fill="#000000" points="22.266 6.48 21.936 6.48 21.936 7.377 21.594 7.377 21.594 5.343 21.936 5.343 21.936 6.204 22.266 6.204 22.266 5.343 22.611 5.343 22.611 7.377 22.266 7.377"/>
  </g>
</svg>
