<svg xmlns="http://www.w3.org/2000/svg" width="24" height="24" viewBox="0 0 24 24">
  <g fill="none" fill-rule="evenodd">
    <path fill="#000000" d="M18.9952696 18.0742435C18.6916174 17.6641565 16.7298783 15.1629391 13.9792696 15.1629391 11.5907478 15.1629391 9.0357913 17.3292 9.0357913 17.3292 9.0357913 17.3292 8.0757913 15.3648522 6.1130087 15.1759826 6.1010087 15.1759826 6.0890087 15.1733739 6.07596522 15.1733739L6.06396522 15.1733739C6.02274783 15.1754609 5.98413913 15.2156348 5.98883478 15.251113 5.99405217 15.2855478 6.01961739 15.3225913 6.01961739 15.3225913 6.27266087 15.743113 6.91857391 16.9384174 6.91857391 18.1321565 6.91857391 19.3305913 6.2690087 20.5290261 6.01805217 20.9469391L6.00083478 20.9735478C5.99353043 20.9860696 5.98883478 20.9985913 5.98883478 21.015287 5.98883478 21.0565043 6.02118261 21.0888522 6.06135652 21.0925043L6.08274783 21.0909391C6.0890087 21.0909391 6.09631304 21.0909391 6.10309565 21.0888522 8.07266087 20.9052 9.0357913 18.9345913 9.0357913 18.9345913 9.0357913 18.9345913 11.5907478 21.1013739 13.9792696 21.1013739 16.7298783 21.1013739 18.6916174 18.6001565 18.9952696 18.1905913 19.0036174 18.1796348 19.0104 18.1697217 19.0161391 18.1624174 19.0197913 18.1530261 19.0229217 18.1436348 19.0229217 18.1321565 19.0229217 18.1217217 19.0197913 18.1107652 19.0161391 18.1024174 19.0104 18.0940696 19.0036174 18.0846783 18.9952696 18.0742435M15.508487 18.4483304C15.0650087 18.4483304 14.7060522 18.0883304 14.7060522 17.6453739 14.7060522 17.2018957 15.0650087 16.8429391 15.508487 16.8429391 15.9530087 16.8429391 16.312487 17.2018957 16.312487 17.6453739 16.312487 18.0883304 15.9530087 18.4483304 15.508487 18.4483304M8.85558261 12.9208174C8.86184348 12.9119478 8.86758261 12.9051652 8.87645217 12.8989043 8.88949565 12.8910783 8.90358261 12.8842957 8.91975652 12.8842957 8.94062609 12.8842957 8.95993043 12.8926435 8.97349565 12.9062087 8.97453913 12.9077739 8.97610435 12.9088174 8.97714783 12.9098609 10.4766261 14.3389043 12.0496696 13.1801217 12.3768 12.9098609L12.4086261 12.8790783C12.4180174 12.8754261 12.4279304 12.8738609 12.4383652 12.8738609 12.4498435 12.8738609 12.4608 12.8754261 12.4701913 12.8790783L12.5020174 12.9098609C12.8291478 13.1801217 14.4016696 14.3389043 15.9016696 12.9098609 15.9016696 12.9088174 15.9032348 12.9077739 15.9042783 12.9062087 15.9183652 12.8926435 15.9366261 12.8842957 15.9574957 12.8842957 15.9741913 12.8842957 15.9888 12.8910783 16.0008 12.8989043 16.0101913 12.9051652 16.0164522 12.9119478 16.0232348 12.9208174 16.3138435 13.2067304 17.5696696 14.2882957 18.8985391 13.1331652 18.9126261 13.1190783 18.9220174 13.1008174 18.9220174 13.0778609L18.9220174 12.5289913C18.9220174 12.4851652 18.8865391 12.4502087 18.8437565 12.4502087 18.8380174 12.4502087 18.8322783 12.4528174 18.8265391 12.4538609 18.8140174 12.4596 18.8014957 12.4663826 18.786887 12.473687 18.378887 12.6782087 17.1115826 13.1639478 15.9621913 12.077687 15.9517565 12.0672522 15.9402783 12.0568174 15.9293217 12.0458609 15.9183652 12.0401217 15.9084522 12.0380348 15.8954087 12.0380348 15.8875826 12.0380348 15.878713 12.0401217 15.8719304 12.0437739 15.8541913 12.0484696 15.8411478 12.0594261 15.8317565 12.073513 15.4894957 12.3343826 13.9164522 13.3992522 12.5161043 12.0928174L12.4952348 12.0724696C12.4806261 12.0583826 12.4608 12.0500348 12.4383652 12.0500348 12.4180174 12.0500348 12.3976696 12.0583826 12.3835826 12.0724696L12.3621913 12.0928174C10.9623652 13.3992522 9.38827826 12.3343826 9.04601739 12.073513 9.03714783 12.0594261 9.02358261 12.0484696 9.0074087 12.0437739 8.99906087 12.0401217 8.99071304 12.0380348 8.98184348 12.0380348 8.97088696 12.0380348 8.95993043 12.0401217 8.94949565 12.0458609 8.93853913 12.0568174 8.92706087 12.0672522 8.91506087 12.077687 7.76566957 13.1639478 6.49993043 12.6782087 6.0914087 12.473687 6.0768 12.4663826 6.06323478 12.4596 6.05123478 12.4538609 6.04497391 12.4528174 6.0408 12.4502087 6.03610435 12.4502087 5.99227826 12.4502087 5.9568 12.4851652 5.9568 12.5289913L5.9568 13.0778609C5.9568 13.1008174 5.96566957 13.1190783 5.97975652 13.1331652 7.30758261 14.2882957 8.56497391 13.2067304 8.85558261 12.9208174M6.05081739 10.4614435C6.04455652 10.4598783 6.04090435 10.458313 6.03568696 10.458313 5.99238261 10.458313 5.95690435 10.4937913 5.95690435 10.5376174L5.95690435 11.0854435C5.95690435 11.1084 5.96525217 11.1282261 5.97986087 11.1417913 7.30768696 12.2953565 8.56455652 11.2148348 8.85568696 10.9289217 8.86142609 10.9205739 8.86768696 10.9122261 8.87655652 10.906487 8.8896 10.8981391 8.90368696 10.8924 8.91986087 10.8924 8.9402087 10.8924 8.95951304 10.9002261 8.97307826 10.9137913 8.97412174 10.9148348 8.97568696 10.9164 8.97725217 10.9169217 10.4767304 12.3480522 12.0492522 11.1887478 12.3763826 10.9169217L12.4087304 10.8877043C12.4181217 10.8830087 12.4280348 10.8814435 12.4384696 10.8814435 12.4499478 10.8814435 12.4609043 10.8830087 12.4697739 10.8877043L12.5021217 10.9169217C12.8292522 11.1887478 14.4017739 12.3480522 15.9012522 10.9169217 15.9017739 10.9164 15.9033391 10.9148348 15.9043826 10.9137913 15.9184696 10.9002261 15.9367304 10.8924 15.9576 10.8924 15.9737739 10.8924 15.9889043 10.8981391 16.0009043 10.906487 16.0102957 10.9122261 16.0165565 10.9205739 16.0233391 10.9289217 16.3139478 11.2148348 17.5697739 12.2953565 18.8986435 11.1417913 18.9122087 11.1282261 18.9216 11.1084 18.9216 11.0854435L18.9216 10.5376174C18.9216 10.4937913 18.8871652 10.458313 18.8433391 10.458313 18.8376 10.458313 18.8323826 10.4598783 18.8266435 10.4614435 18.8141217 10.4682261 18.8016 10.4750087 18.7864696 10.482313 18.3784696 10.6868348 17.111687 11.1730957 15.9622957 10.0852696 15.9513391 10.0753565 15.9403826 10.0654435 15.9289043 10.0534435 15.9184696 10.0492696 15.9080348 10.0461391 15.895513 10.0461391 15.8871652 10.0461391 15.8788174 10.0487478 15.871513 10.050313 15.8542957 10.0570957 15.8407304 10.0680522 15.8318609 10.0810957 15.4890783 10.342487 13.9165565 11.4068348 12.5162087 10.1004L12.4953391 10.0805739C12.4807304 10.0675304 12.4609043 10.0570957 12.4384696 10.0570957 12.4181217 10.0570957 12.3972522 10.0675304 12.383687 10.0805739L12.3622957 10.1004C10.9624696 11.4068348 9.38786087 10.342487 9.04612174 10.0810957 9.03725217 10.0680522 9.02368696 10.0570957 9.0069913 10.050313 8.99916522 10.0487478 8.99081739 10.0461391 8.98194783 10.0461391 8.9709913 10.0461391 8.95951304 10.0492696 8.94907826 10.0534435 8.93864348 10.0654435 8.92664348 10.0753565 8.91516522 10.0852696 7.76577391 11.1730957 6.50003478 10.6868348 6.0909913 10.482313 6.07690435 10.4750087 6.06333913 10.4682261 6.05081739 10.4614435"/>
    <polygon fill="#000000" points="3.611 2.497 3.611 7.36 2.793 7.36 2.793 3.637 2.786 3.637 2.212 4.233 2.205 4.233 2.205 3.379 2.958 2.497"/>
    <path fill="#000000" d="M6.23441739,7.36142609 L6.23441739,6.57203478 L6.56467826,6.57203478 L6.56467826,5.93342609 L6.23441739,5.93342609 L6.23441739,2.49568696 L5.43041739,2.49568696 L4.01702609,6.0696 L4.01702609,6.57203478 L5.45911304,6.57203478 L5.45911304,7.36142609 L6.23441739,7.36142609 Z M4.73441739,5.93342609 L5.46641739,3.9309913 L5.47372174,3.9309913 L5.47372174,5.93342609 L4.73441739,5.93342609 Z"/>
    <polygon fill="#000000" points="8.348 2.469 8.69 2.469 8.69 4.224 9.098 4.224 9.098 4.503 8.348 4.503"/>
    <polygon fill="#000000" points="9.254 4.503 9.596 4.503 9.596 2.469 9.254 2.469"/>
    <polygon fill="#000000" points="9.794 2.469 10.595 2.469 10.595 2.748 10.136 2.748 10.136 3.33 10.478 3.33 10.478 3.606 10.136 3.606 10.136 4.503 9.794 4.503"/>
    <polygon fill="#000000" points="10.744 2.469 11.56 2.469 11.56 2.748 11.087 2.748 11.087 3.33 11.425 3.33 11.425 3.606 11.087 3.606 11.087 4.224 11.56 4.224 11.56 4.503 10.744 4.503"/>
    <path fill="#000000" d="M8.3481913,5.3184 L8.84332174,5.3184 C9.18506087,5.3184 9.29932174,5.47753043 9.29932174,5.76553043 L9.29932174,5.97213913 C9.29932174,6.1437913 9.2361913,6.25126957 9.09532174,6.29666087 C9.26645217,6.33526957 9.35045217,6.44953043 9.35045217,6.63526957 L9.35045217,6.90553043 C9.35045217,7.19353043 9.22106087,7.35266087 8.87932174,7.35266087 L8.3481913,7.35266087 L8.3481913,5.3184 Z M8.69045217,6.17666087 L8.80993043,6.17666087 C8.92106087,6.17666087 8.9721913,6.11926957 8.9721913,6.01126957 L8.9721913,5.7624 C8.9721913,5.65126957 8.92106087,5.59753043 8.80732174,5.59753043 L8.69045217,5.59753043 L8.69045217,6.17666087 Z M8.69045217,6.43753043 L8.69045217,7.07353043 L8.8401913,7.07353043 C8.95445217,7.07353043 9.0081913,7.01666087 9.0081913,6.90866087 L9.0081913,6.6024 C9.0081913,6.4944 8.95706087,6.43753043 8.83706087,6.43753043 L8.69045217,6.43753043 Z"/>
    <polygon fill="#000000" points="9.521 5.318 10.337 5.318 10.337 5.598 9.863 5.598 9.863 6.179 10.202 6.179 10.202 6.455 9.863 6.455 9.863 7.074 10.337 7.074 10.337 7.353 9.521 7.353"/>
    <polygon fill="#000000" points="10.52 5.318 10.862 5.318 10.862 7.074 11.269 7.074 11.269 7.353 10.52 7.353"/>
    <path fill="#000000" d="M11.4102783,6.82747826 L11.4102783,5.84347826 C11.4102783,5.52573913 11.5662783,5.2946087 11.9262783,5.2946087 C12.2894087,5.2946087 12.4454087,5.52573913 12.4454087,5.84347826 L12.4454087,6.82747826 C12.4454087,7.1426087 12.2894087,7.37634783 11.9262783,7.37634783 C11.5662783,7.37634783 11.4102783,7.1426087 11.4102783,6.82747826 M12.1031478,6.88121739 L12.1031478,5.78973913 C12.1031478,5.6666087 12.0494087,5.57947826 11.9262783,5.57947826 C11.8062783,5.57947826 11.7525391,5.6666087 11.7525391,5.78973913 L11.7525391,6.88121739 C11.7525391,7.00434783 11.8062783,7.09147826 11.9262783,7.09147826 C12.0494087,7.09147826 12.1031478,7.00434783 12.1031478,6.88121739"/>
    <polygon fill="#000000" points="13.348 6.096 13.156 7.352 12.835 7.352 12.562 5.318 12.892 5.318 13.051 6.608 13.054 6.608 13.225 5.318 13.504 5.318 13.693 6.608 13.696 6.608 13.852 5.318 14.14 5.318 13.876 7.352 13.552 7.352 13.351 6.096"/>
    <polygon fill="#000000" points="15.539 6.096 15.347 7.352 15.026 7.352 14.753 5.318 15.083 5.318 15.242 6.608 15.245 6.608 15.416 5.318 15.695 5.318 15.884 6.608 15.887 6.608 16.043 5.318 16.331 5.318 16.067 7.352 15.743 7.352 15.542 6.096"/>
    <path fill="#000000" d="M16.3037217,7.35245217 L16.6877217,5.3181913 L17.0774609,5.3181913 L17.4645913,7.35245217 L17.1134609,7.35245217 L17.0508522,6.98045217 L16.6877217,6.98045217 L16.6277217,7.35245217 L16.3037217,7.35245217 Z M16.7325913,6.70758261 L17.0054609,6.70758261 L16.8708522,5.89158261 L16.8677217,5.89158261 L16.7325913,6.70758261 Z"/>
    <polygon fill="#000000" points="17.416 5.318 18.325 5.318 18.325 5.598 18.044 5.598 18.044 7.353 17.699 7.353 17.699 5.598 17.416 5.598"/>
    <polygon fill="#000000" points="18.484 5.318 19.3 5.318 19.3 5.598 18.826 5.598 18.826 6.179 19.165 6.179 19.165 6.455 18.826 6.455 18.826 7.074 19.3 7.074 19.3 7.353 18.484 7.353"/>
    <path fill="#000000" d="M19.8247826,6.41942609 L19.8247826,7.35229565 L19.4825217,7.35229565 L19.4825217,5.31855652 L19.9807826,5.31855652 C20.3256522,5.31855652 20.451913,5.48916522 20.451913,5.77455652 L20.451913,6.03542609 C20.451913,6.25455652 20.3736522,6.38342609 20.1785217,6.42881739 L20.5056522,7.35229565 L20.1456522,7.35229565 L19.8247826,6.41942609 Z M19.8247826,5.59768696 L19.8247826,6.23055652 L19.9385217,6.23055652 C20.055913,6.23055652 20.1065217,6.17055652 20.1065217,6.06255652 L20.1065217,5.76255652 C20.1065217,5.65142609 20.055913,5.59768696 19.9385217,5.59768696 L19.8247826,5.59768696 Z"/>
  </g>
</svg>
