<svg xmlns="http://www.w3.org/2000/svg" width="24" height="24" viewBox="0 0 24 24">
  <g fill="none" fill-rule="evenodd">
    <path fill="#000000" d="M3.57464348 18.3170087L7.20438261 18.3170087C7.25342609 18.3170087 7.2936 18.2768348 7.2936 18.2277913 7.2936 18.2048348 7.2842087 18.184487 7.27012174 18.168313L7.26542609 18.1630957 5.45916522 15.8267478 5.44142609 15.8074435C5.42525217 15.7891826 5.40177391 15.7782261 5.37568696 15.7782261 5.35325217 15.7782261 5.33342609 15.7876174 5.31725217 15.8011826L5.30681739 15.8137043 5.2896 15.832487 3.52768696 18.1448348 3.50055652 18.1777043C3.49116522 18.1917913 3.48542609 18.2090087 3.48542609 18.2277913 3.48542609 18.2768348 3.5256 18.3170087 3.57464348 18.3170087M7.19358261 18.646487L3.55653913 18.646487C3.50749565 18.646487 3.46732174 18.6861391 3.46732174 18.7357043L3.46732174 21.5817913C3.46732174 21.6308348 3.50749565 21.6710087 3.55653913 21.6710087L4.72732174 21.6710087 4.72732174 19.8804C4.72732174 19.8308348 4.76697391 19.7911826 4.81601739 19.7911826L5.9028 19.7911826C5.95184348 19.7911826 5.99201739 19.8308348 5.99201739 19.8804L5.99201739 21.6710087 7.19358261 21.6710087C7.24262609 21.6710087 7.2828 21.6308348 7.2828 21.5817913L7.2828 18.7357043C7.2828 18.6861391 7.24262609 18.646487 7.19358261 18.646487M19.7641565 17.9013913L16.1641565 17.9013913C16.1156348 17.9013913 16.0765043 17.9389565 16.0765043 17.9869565L16.0765043 21.621913C16.0765043 21.6693913 16.1156348 21.7074783 16.1641565 21.7074783L19.7641565 21.7074783C19.8132 21.7074783 19.8523304 21.6693913 19.8523304 21.621913L19.8523304 17.9869565C19.8523304 17.9389565 19.8132 17.9013913 19.7641565 17.9013913zM17.7945913 20.2742609C17.7945913 20.3222609 17.7554609 20.3603478 17.7064174 20.3603478L16.631113 20.3603478C16.5820696 20.3603478 16.5424174 20.3222609 16.5424174 20.2742609L16.5424174 19.6210435C16.5424174 19.5730435 16.5820696 19.5349565 16.631113 19.5349565L17.7064174 19.5349565C17.7554609 19.5349565 17.7945913 19.5730435 17.7945913 19.6210435L17.7945913 20.2742609zM17.7945913 19.0664348C17.7945913 19.113913 17.7554609 19.1525217 17.7064174 19.1525217L16.631113 19.1525217C16.5820696 19.1525217 16.5424174 19.113913 16.5424174 19.0664348L16.5424174 18.4126957C16.5424174 18.3652174 16.5820696 18.3271304 16.631113 18.3271304L17.7064174 18.3271304C17.7554609 18.3271304 17.7945913 18.3652174 17.7945913 18.4126957L17.7945913 19.0664348zM19.4380696 20.2742609C19.4380696 20.3222609 19.3989391 20.3603478 19.3498957 20.3603478L18.2745913 20.3603478C18.2260696 20.3603478 18.1864174 20.3222609 18.1864174 20.2742609L18.1864174 19.6210435C18.1864174 19.5730435 18.2260696 19.5349565 18.2745913 19.5349565L19.3498957 19.5349565C19.3989391 19.5349565 19.4380696 19.5730435 19.4380696 19.6210435L19.4380696 20.2742609zM19.4380696 19.0664348C19.4380696 19.113913 19.3989391 19.1525217 19.3498957 19.1525217L18.2745913 19.1525217C18.2260696 19.1525217 18.1864174 19.113913 18.1864174 19.0664348L18.1864174 18.4126957C18.1864174 18.3652174 18.2260696 18.3271304 18.2745913 18.3271304L19.3498957 18.3271304C19.3989391 18.3271304 19.4380696 18.3652174 19.4380696 18.4126957L19.4380696 19.0664348zM11.3959304 9.46361739L7.87314783 9.46361739C7.82566957 9.46361739 7.78706087 9.50222609 7.78706087 9.55022609L7.78706087 21.5898783C7.78706087 21.6373565 7.82566957 21.6759652 7.87314783 21.6759652L11.3959304 21.6759652C11.442887 21.6759652 11.4825391 21.6373565 11.4825391 21.5898783L11.4825391 9.55022609C11.4825391 9.50222609 11.442887 9.46361739 11.3959304 9.46361739zM9.30010435 20.304313C9.30010435 20.3298783 9.27923478 20.3507478 9.2541913 20.3507478L8.44758261 20.3507478C8.42201739 20.3507478 8.40114783 20.3298783 8.40114783 20.304313L8.40114783 19.4053565C8.40114783 19.3797913 8.42201739 19.3594435 8.44758261 19.3594435L9.2541913 19.3594435C9.27923478 19.3594435 9.30010435 19.3797913 9.30010435 19.4053565L9.30010435 20.304313zM9.30010435 18.2397913C9.30010435 18.2658783 9.27923478 18.2857043 9.2541913 18.2857043L8.44758261 18.2857043C8.42201739 18.2857043 8.40114783 18.2658783 8.40114783 18.2397913L8.40114783 17.3413565C8.40114783 17.3152696 8.42201739 17.2949217 8.44758261 17.2949217L9.2541913 17.2949217C9.27923478 17.2949217 9.30010435 17.3152696 9.30010435 17.3413565L9.30010435 18.2397913zM9.30010435 16.1757913C9.30010435 16.2013565 9.27923478 16.2217043 9.2541913 16.2217043L8.44758261 16.2217043C8.42201739 16.2217043 8.40114783 16.2013565 8.40114783 16.1757913L8.40114783 15.276313C8.40114783 15.2512696 8.42201739 15.2304 8.44758261 15.2304L9.2541913 15.2304C9.27923478 15.2304 9.30010435 15.2512696 9.30010435 15.276313L9.30010435 16.1757913zM9.30010435 14.1112696C9.30010435 14.136313 9.27923478 14.1571826 9.2541913 14.1571826L8.44758261 14.1571826C8.42201739 14.1571826 8.40114783 14.136313 8.40114783 14.1112696L8.40114783 13.2117913C8.40114783 13.1862261 8.42201739 13.1664 8.44758261 13.1664L9.2541913 13.1664C9.27923478 13.1664 9.30010435 13.1862261 9.30010435 13.2117913L9.30010435 14.1112696zM9.30010435 12.0472696C9.30010435 12.072313 9.27923478 12.0931826 9.2541913 12.0931826L8.44758261 12.0931826C8.42201739 12.0931826 8.40114783 12.072313 8.40114783 12.0472696L8.40114783 11.1477913C8.40114783 11.1222261 8.42201739 11.1013565 8.44758261 11.1013565L9.2541913 11.1013565C9.27923478 11.1013565 9.30010435 11.1222261 9.30010435 11.1477913L9.30010435 12.0472696zM10.8820174 20.304313C10.8820174 20.3298783 10.8611478 20.3507478 10.8355826 20.3507478L10.0294957 20.3507478C10.0034087 20.3507478 9.98306087 20.3298783 9.98306087 20.304313L9.98306087 19.4053565C9.98306087 19.3797913 10.0034087 19.3594435 10.0294957 19.3594435L10.8355826 19.3594435C10.8611478 19.3594435 10.8820174 19.3797913 10.8820174 19.4053565L10.8820174 20.304313zM10.8820174 18.2397913C10.8820174 18.2658783 10.8611478 18.2857043 10.8355826 18.2857043L10.0294957 18.2857043C10.0034087 18.2857043 9.98306087 18.2658783 9.98306087 18.2397913L9.98306087 17.3413565C9.98306087 17.3152696 10.0034087 17.2949217 10.0294957 17.2949217L10.8355826 17.2949217C10.8611478 17.2949217 10.8820174 17.3152696 10.8820174 17.3413565L10.8820174 18.2397913zM10.8820174 16.1757913C10.8820174 16.2013565 10.8611478 16.2217043 10.8355826 16.2217043L10.0294957 16.2217043C10.0034087 16.2217043 9.98306087 16.2013565 9.98306087 16.1757913L9.98306087 15.276313C9.98306087 15.2512696 10.0034087 15.2304 10.0294957 15.2304L10.8355826 15.2304C10.8611478 15.2304 10.8820174 15.2512696 10.8820174 15.276313L10.8820174 16.1757913zM10.8820174 14.1112696C10.8820174 14.136313 10.8611478 14.1571826 10.8355826 14.1571826L10.0294957 14.1571826C10.0034087 14.1571826 9.98306087 14.136313 9.98306087 14.1112696L9.98306087 13.2117913C9.98306087 13.1862261 10.0034087 13.1664 10.0294957 13.1664L10.8355826 13.1664C10.8611478 13.1664 10.8820174 13.1862261 10.8820174 13.2117913L10.8820174 14.1112696zM10.8820174 12.0472696C10.8820174 12.072313 10.8611478 12.0931826 10.8355826 12.0931826L10.0294957 12.0931826C10.0034087 12.0931826 9.98306087 12.072313 9.98306087 12.0472696L9.98306087 11.1477913C9.98306087 11.1222261 10.0034087 11.1013565 10.0294957 11.1013565L10.8355826 11.1013565C10.8611478 11.1013565 10.8820174 11.1222261 10.8820174 11.1477913L10.8820174 12.0472696zM19.8482087 17.5356C19.8482087 17.5757739 19.8158609 17.6081217 19.775687 17.6081217L16.1527304 17.6081217C16.1125565 17.6081217 16.0802087 17.5757739 16.0802087 17.5356L16.0802087 16.8109043C16.0802087 16.7712522 16.1125565 16.7383826 16.1527304 16.7383826L19.775687 16.7383826C19.8158609 16.7383826 19.8482087 16.7712522 19.8482087 16.8109043L19.8482087 17.5356zM15.6512348 11.7372C15.6397565 11.6985913 15.6053217 11.6698957 15.5625391 11.6698957 15.5437565 11.6698957 15.5270609 11.6766783 15.5124522 11.6865913 15.5103652 11.6881565 15.5077565 11.6892 15.5056696 11.6907652L15.4759304 11.7283304 12.0136696 16.1208522 11.9974957 16.1422435C11.9797565 16.1594609 11.9682783 16.1834609 11.9677565 16.2105913L11.9677565 16.2163304 11.9677565 21.6079826C11.9677565 21.6554609 12.0063652 21.6940696 12.0538435 21.6940696L15.5734957 21.6940696C15.6209739 21.6940696 15.6595826 21.6554609 15.6595826 21.6079826L15.6595826 11.7732C15.6595826 11.7601565 15.6564522 11.7481565 15.6512348 11.7372zM14.1934957 14.1225913L14.2180174 14.091287C14.4554087 13.7876348 14.8545391 13.2961565 15.0491478 13.0572L15.074713 13.0269391C15.0929739 13.0045043 15.1206261 12.9904174 15.1519304 12.9904174 15.1999304 12.9904174 15.2385391 13.0248522 15.2479304 13.0707652L15.2479304 13.1098957 15.2479304 13.1412 15.2479304 14.1820696C15.2479304 14.2358087 15.2056696 14.2785913 15.1524522 14.2812 15.150887 14.2812 15.1493217 14.2817217 15.1477565 14.2817217 15.146713 14.2817217 15.1451478 14.2812 15.1435826 14.2812L14.3213217 14.2812 14.2785391 14.2812C14.2769739 14.2812 14.2754087 14.2817217 14.2738435 14.2817217 14.2728 14.2817217 14.2712348 14.2812 14.2696696 14.2812 14.2164522 14.2785913 14.1741913 14.2358087 14.1741913 14.1820696 14.1741913 14.1596348 14.1809739 14.139287 14.1934957 14.1225913zM13.6456696 20.2738957C13.6456696 20.3213739 13.6070609 20.3599826 13.5595826 20.3599826L12.5093217 20.3599826C12.4618435 20.3599826 12.4232348 20.3213739 12.4232348 20.2738957L12.4232348 19.6165043C12.4232348 19.5690261 12.4618435 19.5309391 12.5093217 19.5309391L13.5595826 19.5309391C13.6070609 19.5309391 13.6456696 19.5690261 13.6456696 19.6165043L13.6456696 20.2738957zM13.6456696 19.059287C13.6456696 19.107287 13.6070609 19.1453739 13.5595826 19.1453739L12.5093217 19.1453739C12.4618435 19.1453739 12.4232348 19.107287 12.4232348 19.059287L12.4232348 18.4024174C12.4232348 18.3544174 12.4618435 18.3163304 12.5093217 18.3163304L13.5595826 18.3163304C13.6070609 18.3163304 13.6456696 18.3544174 13.6456696 18.4024174L13.6456696 19.059287zM13.6456696 17.8452C13.6456696 17.8921565 13.6070609 17.9307652 13.5595826 17.9307652L12.5093217 17.9307652C12.4618435 17.9307652 12.4232348 17.8921565 12.4232348 17.8452L12.4232348 17.1878087C12.4232348 17.1398087 12.4618435 17.1017217 12.5093217 17.1017217L13.5595826 17.1017217C13.6070609 17.1017217 13.6456696 17.1398087 13.6456696 17.1878087L13.6456696 17.8452zM13.6488 15.1838087L13.6488 15.2156348 13.6488 16.6316348C13.6488 16.6796348 13.6096696 16.7177217 13.5621913 16.7177217L12.5124522 16.7177217C12.4644522 16.7177217 12.4258435 16.6796348 12.4258435 16.6316348L12.4258435 16.4495478C12.4263652 16.4380696 12.4284522 16.427113 12.4326261 16.4172 12.4341913 16.4140696 12.434713 16.4125043 12.4378435 16.407287 12.4399304 16.403113 12.4430609 16.3994609 12.4456696 16.3958087 12.4482783 16.3916348 12.4519304 16.3864174 12.4555826 16.3817217 12.5896696 16.1897217 13.1954087 15.4436348 13.4494957 15.1316348L13.4750609 15.1008522C13.4933217 15.0789391 13.5214957 15.0643304 13.5522783 15.0643304 13.6008 15.0643304 13.6394087 15.0998087 13.6488 15.1452L13.6488 15.1838087zM15.2505391 20.2738957C15.2505391 20.3213739 15.2119304 20.3599826 15.1644522 20.3599826L14.114713 20.3599826C14.066713 20.3599826 14.0281043 20.3213739 14.0281043 20.2738957L14.0281043 19.6165043C14.0281043 19.5690261 14.066713 19.5309391 14.114713 19.5309391L15.1644522 19.5309391C15.2119304 19.5309391 15.2505391 19.5690261 15.2505391 19.6165043L15.2505391 20.2738957zM15.2505391 19.059287C15.2505391 19.107287 15.2119304 19.1453739 15.1644522 19.1453739L14.114713 19.1453739C14.066713 19.1453739 14.0281043 19.107287 14.0281043 19.059287L14.0281043 18.4024174C14.0281043 18.3544174 14.066713 18.3163304 14.114713 18.3163304L15.1644522 18.3163304C15.2119304 18.3163304 15.2505391 18.3544174 15.2505391 18.4024174L15.2505391 19.059287zM15.2505391 17.8452C15.2505391 17.8921565 15.2119304 17.9307652 15.1644522 17.9307652L14.114713 17.9307652C14.066713 17.9307652 14.0281043 17.8921565 14.0281043 17.8452L14.0281043 17.1878087C14.0281043 17.1398087 14.066713 17.1017217 14.114713 17.1017217L15.1644522 17.1017217C15.2119304 17.1017217 15.2505391 17.1398087 15.2505391 17.1878087L15.2505391 17.8452zM15.2505391 16.6305913C15.2505391 16.6780696 15.2119304 16.7161565 15.1644522 16.7161565L14.114713 16.7161565C14.066713 16.7161565 14.0281043 16.6780696 14.0281043 16.6305913L14.0281043 15.9732C14.0281043 15.9257217 14.066713 15.887113 14.114713 15.887113L15.1644522 15.887113C15.2119304 15.887113 15.2505391 15.9257217 15.2505391 15.9732L15.2505391 16.6305913zM15.2505391 15.4159826C15.2505391 15.4634609 15.2119304 15.5020696 15.1644522 15.5020696L14.114713 15.5020696C14.066713 15.5020696 14.0281043 15.4634609 14.0281043 15.4159826L14.0281043 14.7585913C14.0281043 14.7105913 14.066713 14.6725043 14.114713 14.6725043L15.1644522 14.6725043C15.2119304 14.6725043 15.2505391 14.7105913 15.2505391 14.7585913L15.2505391 15.4159826z"/>
    <polygon fill="#000000" points="1.152 2.85 1.152 3.704 1.159 3.704 1.733 3.108 1.741 3.108 1.741 6.833 2.559 6.833 2.559 1.967 1.906 1.967"/>
    <polygon fill="#000000" points="3.018 2.85 3.018 3.704 3.025 3.704 3.599 3.108 3.607 3.108 3.607 6.833 4.425 6.833 4.425 1.967 3.772 1.967"/>
    <path fill="#000000" d="M5.91125217 3.5678087L5.91125217 3.29493913 6.22951304 3.29493913 6.22951304 3.57354783C6.22951304 3.6878087 6.28064348 3.75406957 6.39751304 3.75406957 6.50551304 3.75406957 6.55351304 3.68206957 6.55351304 3.57354783L6.55351304 3.4958087C6.55351304 3.37893913 6.50551304 3.30693913 6.40064348 3.2078087L6.19925217 3.00693913C6.00412174 2.81493913 5.91438261 2.69806957 5.91438261 2.4638087L5.91438261 2.39493913C5.91438261 2.14293913 6.06151304 1.9478087 6.39438261 1.9478087 6.73612174 1.9478087 6.87125217 2.1158087 6.87125217 2.41006957L6.87125217 2.57493913 6.55925217 2.57493913 6.55925217 2.39806957C6.55925217 2.28067826 6.50551304 2.2238087 6.39751304 2.2238087 6.30151304 2.2238087 6.23525217 2.27806957 6.23525217 2.3918087L6.23525217 2.43406957C6.23525217 2.5478087 6.29838261 2.61406957 6.39751304 2.71006957L6.61664348 2.92606957C6.80238261 3.11493913 6.89212174 3.22867826 6.89212174 3.45354783L6.89212174 3.55267826C6.89212174 3.8318087 6.74238261 4.02954783 6.39438261 4.02954783 6.04638261 4.02954783 5.91125217 3.83493913 5.91125217 3.5678087M8.03170435 1.9718087L8.03170435 3.51093913C8.03170435 3.82606957 7.89657391 4.02954783 7.54857391 4.02954783 7.18857391 4.02954783 7.03883478 3.82606957 7.03883478 3.51093913L7.03883478 1.9718087 7.38057391 1.9718087 7.38057391 3.5438087C7.38057391 3.6638087 7.42857391 3.74467826 7.54857391 3.74467826 7.66857391 3.74467826 7.71657391 3.6638087 7.71657391 3.5438087L7.71657391 1.9718087 8.03170435 1.9718087zM8.17549565 3.5678087L8.17549565 3.29493913 8.49375652 3.29493913 8.49375652 3.57354783C8.49375652 3.6878087 8.54436522 3.75406957 8.66175652 3.75406957 8.76975652 3.75406957 8.81775652 3.68206957 8.81775652 3.57354783L8.81775652 3.4958087C8.81775652 3.37893913 8.76975652 3.30693913 8.66436522 3.2078087L8.46349565 3.00693913C8.26836522 2.81493913 8.17862609 2.69806957 8.17862609 2.4638087L8.17862609 2.39493913C8.17862609 2.14293913 8.32575652 1.9478087 8.65862609 1.9478087 9.00036522 1.9478087 9.13549565 2.1158087 9.13549565 2.41006957L9.13549565 2.57493913 8.82349565 2.57493913 8.82349565 2.39806957C8.82349565 2.28067826 8.76975652 2.2238087 8.66175652 2.2238087 8.56575652 2.2238087 8.49949565 2.27806957 8.49949565 2.3918087L8.49949565 2.43406957C8.49949565 2.5478087 8.56262609 2.61406957 8.66175652 2.71006957L8.88088696 2.92606957C9.06662609 3.11493913 9.15636522 3.22867826 9.15636522 3.45354783L9.15636522 3.55267826C9.15636522 3.8318087 9.00662609 4.02954783 8.65862609 4.02954783 8.31062609 4.02954783 8.17549565 3.83493913 8.17549565 3.5678087"/>
    <polygon fill="#000000" points="9.219 1.972 10.128 1.972 10.128 2.251 9.846 2.251 9.846 4.006 9.501 4.006 9.501 2.251 9.219 2.251"/>
    <path fill="#000000" d="M10.05,4.00575652 L10.434,1.97201739 L10.8237391,1.97201739 L11.2108696,4.00575652 L10.8602609,4.00575652 L10.7971304,3.63375652 L10.434,3.63375652 L10.374,4.00575652 L10.05,4.00575652 Z M10.4788696,3.36088696 L10.7517391,3.36088696 L10.6171304,2.54488696 L10.614,2.54488696 L10.4788696,3.36088696 Z"/>
    <polygon fill="#000000" points="11.319 4.005 11.66 4.005 11.66 1.972 11.319 1.972"/>
    <polygon fill="#000000" points="12.114 2.728 12.114 4.006 11.826 4.006 11.826 1.972 12.162 1.972 12.53 3.139 12.53 1.972 12.815 1.972 12.815 4.006 12.516 4.006"/>
    <path fill="#000000" d="M12.9232174 4.00575652L13.3072174 1.97201739 13.6969565 1.97201739 14.084087 4.00575652 13.7334783 4.00575652 13.6703478 3.63375652 13.3072174 3.63375652 13.2472174 4.00575652 12.9232174 4.00575652zM13.352087 3.36088696L13.6249565 3.36088696 13.4898261 2.54488696 13.4872174 2.54488696 13.352087 3.36088696zM14.1919826 1.9718087L14.687113 1.9718087C15.0288522 1.9718087 15.143113 2.13093913 15.143113 2.41893913L15.143113 2.62606957C15.143113 2.79667826 15.0799826 2.90467826 14.939113 2.95006957 15.1097217 2.98867826 15.1942435 3.10293913 15.1942435 3.28867826L15.1942435 3.55893913C15.1942435 3.84693913 15.0653739 4.00554783 14.723113 4.00554783L14.1919826 4.00554783 14.1919826 1.9718087zM14.5337217 2.83006957L14.6537217 2.83006957C14.7648522 2.83006957 14.8159826 2.77267826 14.8159826 2.66467826L14.8159826 2.4158087C14.8159826 2.30467826 14.7648522 2.25093913 14.651113 2.25093913L14.5337217 2.25093913 14.5337217 2.83006957zM14.5337217 3.09093913L14.5337217 3.72693913 14.6839826 3.72693913C14.7977217 3.72693913 14.8519826 3.66954783 14.8519826 3.56206957L14.8519826 3.2558087C14.8519826 3.1478087 14.8008522 3.09093913 14.6808522 3.09093913L14.5337217 3.09093913z"/>
    <polygon fill="#000000" points="15.332 1.972 15.673 1.972 15.673 3.727 16.081 3.727 16.081 4.006 15.332 4.006"/>
    <polygon fill="#000000" points="16.205 1.972 17.021 1.972 17.021 2.251 16.546 2.251 16.546 2.833 16.885 2.833 16.885 3.109 16.546 3.109 16.546 3.727 17.021 3.727 17.021 4.006 16.205 4.006"/>
    <path fill="#000000" d="M17.6518957,3.48073043 L17.6518957,2.49673043 C17.6518957,2.1789913 17.8016348,1.94786087 18.1616348,1.94786087 C18.5398957,1.94786087 18.645287,2.15812174 18.645287,2.45812174 L18.645287,2.69812174 L18.3327652,2.69812174 L18.3327652,2.4309913 C18.3327652,2.30473043 18.2910261,2.23273043 18.1678957,2.23273043 C18.0447652,2.23273043 17.9936348,2.31986087 17.9936348,2.4429913 L17.9936348,3.5349913 C17.9936348,3.6576 18.0447652,3.74473043 18.1678957,3.74473043 C18.2910261,3.74473043 18.3327652,3.6669913 18.3327652,3.5469913 L18.3327652,3.17186087 L18.645287,3.17186087 L18.645287,3.5229913 C18.645287,3.8136 18.5247652,4.0296 18.1616348,4.0296 C17.8016348,4.0296 17.6518957,3.79586087 17.6518957,3.48073043"/>
    <polygon fill="#000000" points="18.797 4.005 19.139 4.005 19.139 1.972 18.797 1.972"/>
    <polygon fill="#000000" points="19.266 1.972 20.175 1.972 20.175 2.251 19.893 2.251 19.893 4.006 19.547 4.006 19.547 2.251 19.266 2.251"/>
    <polygon fill="#000000" points="20.3 4.005 20.642 4.005 20.642 1.972 20.3 1.972"/>
    <polygon fill="#000000" points="20.807 1.972 21.623 1.972 21.623 2.251 21.149 2.251 21.149 2.833 21.488 2.833 21.488 3.109 21.149 3.109 21.149 3.727 21.623 3.727 21.623 4.006 20.807 4.006"/>
    <path fill="#000000" d="M21.7399304 3.5678087L21.7399304 3.29493913 22.0581913 3.29493913 22.0581913 3.57354783C22.0581913 3.6878087 22.1093217 3.75406957 22.2261913 3.75406957 22.3341913 3.75406957 22.3821913 3.68206957 22.3821913 3.57354783L22.3821913 3.4958087C22.3821913 3.37893913 22.3341913 3.30693913 22.2288 3.2078087L22.0279304 3.00693913C21.8328 2.81493913 21.7430609 2.69806957 21.7430609 2.4638087L21.7430609 2.39493913C21.7430609 2.14293913 21.8901913 1.9478087 22.2230609 1.9478087 22.5653217 1.9478087 22.6999304 2.1158087 22.6999304 2.41006957L22.6999304 2.57493913 22.3879304 2.57493913 22.3879304 2.39806957C22.3879304 2.28067826 22.3341913 2.2238087 22.2261913 2.2238087 22.1301913 2.2238087 22.0639304 2.27806957 22.0639304 2.3918087L22.0639304 2.43406957C22.0639304 2.5478087 22.1270609 2.61406957 22.2261913 2.71006957L22.4453217 2.92606957C22.6310609 3.11493913 22.7208 3.22867826 22.7208 3.45354783L22.7208 3.55267826C22.7208 3.8318087 22.5710609 4.02954783 22.2230609 4.02954783 21.8750609 4.02954783 21.7399304 3.83493913 21.7399304 3.5678087M5.87535652 6.85492174L6.25935652 4.82066087 6.64909565 4.82066087 7.03622609 6.85492174 6.68561739 6.85492174 6.62248696 6.48292174 6.25935652 6.48292174 6.19935652 6.85492174 5.87535652 6.85492174zM6.30422609 6.21005217L6.57709565 6.21005217 6.44196522 5.39405217 6.43935652 5.39405217 6.30422609 6.21005217z"/>
    <polygon fill="#000000" points="7.432 5.577 7.432 6.855 7.144 6.855 7.144 4.821 7.48 4.821 7.849 5.988 7.849 4.821 8.134 4.821 8.134 6.855 7.834 6.855"/>
    <path fill="#000000" d="M9.31873043 5.36697391L9.31873043 6.30871304C9.31873043 6.62071304 9.18986087 6.85497391 8.8236 6.85497391L8.2956 6.85497391 8.2956 4.82071304 8.8236 4.82071304C9.18986087 4.82071304 9.31873043 5.05184348 9.31873043 5.36697391zM8.78186087 6.57584348C8.92273043 6.57584348 8.9769913 6.49184348 8.9769913 6.36923478L8.9769913 5.30436522C8.9769913 5.18436522 8.92273043 5.09984348 8.78186087 5.09984348L8.63786087 5.09984348 8.63786087 6.57584348 8.78186087 6.57584348zM9.96182609 6.32994783L9.96182609 5.34594783C9.96182609 5.0282087 10.1115652 4.79707826 10.4715652 4.79707826 10.8498261 4.79707826 10.9546957 5.00681739 10.9546957 5.30733913L10.9546957 5.54733913 10.6426957 5.54733913 10.6426957 5.2802087C10.6426957 5.15394783 10.6009565 5.08194783 10.4778261 5.08194783 10.3546957 5.08194783 10.3035652 5.16907826 10.3035652 5.2922087L10.3035652 6.3842087C10.3035652 6.50681739 10.3546957 6.59394783 10.4778261 6.59394783 10.6009565 6.59394783 10.6426957 6.5162087 10.6426957 6.3962087L10.6426957 6.02107826 10.9546957 6.02107826 10.9546957 6.3722087C10.9546957 6.66281739 10.8346957 6.87881739 10.4715652 6.87881739 10.1115652 6.87881739 9.96182609 6.64507826 9.96182609 6.32994783M11.1074087 6.32994783L11.1074087 5.34594783C11.1074087 5.0282087 11.2634087 4.79707826 11.6234087 4.79707826 11.9865391 4.79707826 12.1425391 5.0282087 12.1425391 5.34594783L12.1425391 6.32994783C12.1425391 6.64507826 11.9865391 6.87881739 11.6234087 6.87881739 11.2634087 6.87881739 11.1074087 6.64507826 11.1074087 6.32994783M11.8002783 6.3842087L11.8002783 5.2922087C11.8002783 5.16907826 11.7465391 5.08194783 11.6234087 5.08194783 11.5034087 5.08194783 11.4491478 5.16907826 11.4491478 5.2922087L11.4491478 6.3842087C11.4491478 6.50681739 11.5034087 6.59394783 11.6234087 6.59394783 11.7465391 6.59394783 11.8002783 6.50681739 11.8002783 6.3842087"/>
    <polygon fill="#000000" points="13.246 5.535 13.237 5.535 13.006 6.855 12.848 6.855 12.592 5.535 12.586 5.535 12.586 6.855 12.304 6.855 12.304 4.821 12.704 4.821 12.925 5.967 12.928 5.967 13.126 4.821 13.558 4.821 13.558 6.855 13.246 6.855"/>
    <polygon fill="#000000" points="14.662 5.535 14.653 5.535 14.422 6.855 14.263 6.855 14.008 5.535 14.002 5.535 14.002 6.855 13.72 6.855 13.72 4.821 14.119 4.821 14.341 5.967 14.344 5.967 14.542 4.821 14.974 4.821 14.974 6.855 14.662 6.855"/>
    <path fill="#000000" d="M16.1286783,4.82092174 L16.1286783,6.36005217 C16.1286783,6.67518261 15.9935478,6.87918261 15.6455478,6.87918261 C15.2855478,6.87918261 15.1358087,6.67518261 15.1358087,6.36005217 L15.1358087,4.82092174 L15.4775478,4.82092174 L15.4775478,6.39292174 C15.4775478,6.51292174 15.5255478,6.5937913 15.6455478,6.5937913 C15.7655478,6.5937913 15.8135478,6.51292174 15.8135478,6.39292174 L15.8135478,4.82092174 L16.1286783,4.82092174 Z"/>
    <polygon fill="#000000" points="16.578 5.577 16.578 6.855 16.29 6.855 16.29 4.821 16.626 4.821 16.995 5.988 16.995 4.821 17.28 4.821 17.28 6.855 16.98 6.855"/>
    <polygon fill="#000000" points="17.442 6.855 17.784 6.855 17.784 4.821 17.442 4.821"/>
    <polygon fill="#000000" points="17.91 4.821 18.819 4.821 18.819 5.1 18.537 5.1 18.537 6.855 18.192 6.855 18.192 5.1 17.91 5.1"/>
    <polygon fill="#000000" points="18.944 6.855 19.287 6.855 19.287 4.821 18.944 4.821"/>
    <polygon fill="#000000" points="19.451 4.821 20.267 4.821 20.267 5.1 19.793 5.1 19.793 5.682 20.132 5.682 20.132 5.958 19.793 5.958 19.793 6.576 20.267 6.576 20.267 6.855 19.451 6.855"/>
    <path fill="#000000" d="M20.3842957,6.41697391 L20.3842957,6.14410435 L20.7025565,6.14410435 L20.7025565,6.42271304 C20.7025565,6.53697391 20.753687,6.60323478 20.8705565,6.60323478 C20.9785565,6.60323478 21.0265565,6.53123478 21.0265565,6.42271304 L21.0265565,6.34497391 C21.0265565,6.22810435 20.9785565,6.15610435 20.8731652,6.05697391 L20.6722957,5.85610435 C20.4771652,5.66410435 20.3874261,5.54723478 20.3874261,5.31297391 L20.3874261,5.24410435 C20.3874261,4.99210435 20.5345565,4.79697391 20.8674261,4.79697391 C21.2091652,4.79697391 21.3442957,4.96497391 21.3442957,5.25923478 L21.3442957,5.42410435 L21.0322957,5.42410435 L21.0322957,5.24671304 C21.0322957,5.12984348 20.9785565,5.07297391 20.8705565,5.07297391 C20.7745565,5.07297391 20.7082957,5.12671304 20.7082957,5.24097391 L20.7082957,5.28323478 C20.7082957,5.39697391 20.7714261,5.46271304 20.8705565,5.55871304 L21.089687,5.77471304 C21.2754261,5.96410435 21.3651652,6.07784348 21.3651652,6.30271304 L21.3651652,6.40184348 C21.3651652,6.68097391 21.2154261,6.87871304 20.8674261,6.87871304 C20.5194261,6.87871304 20.3842957,6.68410435 20.3842957,6.41697391"/>
  </g>
</svg>
