<svg xmlns="http://www.w3.org/2000/svg" width="24" height="24" viewBox="0 0 24 24">
  <g fill="none" fill-rule="evenodd">
    <path fill="#000000" d="M15.9641739 11.1782609C15.9641739 11.1782609 15.729913 11.4892174 15.7982609 11.7923478 15.8666087 12.096 16.212 12.276 16.212 12.276 16.212 12.276 16.4467826 11.9650435 16.3784348 11.661913 16.310087 11.3582609 15.9641739 11.1782609 15.9641739 11.1782609M15.5824174 12.9550957C15.5824174 12.9550957 15.8166783 12.6436174 15.7483304 12.340487 15.6799826 12.0373565 15.3340696 11.8573565 15.3340696 11.8573565 15.3340696 11.8573565 15.0998087 12.168313 15.1681565 12.4714435 15.2365043 12.7745739 15.5824174 12.9550957 15.5824174 12.9550957M16.545287 12.6218087C16.545287 12.6218087 16.7925913 12.8712 17.0743304 12.8461565 17.3560696 12.821113 17.5647652 12.5315478 17.5647652 12.5315478 17.5647652 12.5315478 17.3179826 12.2816348 17.0357217 12.3066783 16.7545043 12.3317217 16.545287 12.6218087 16.545287 12.6218087M16.9506261 11.2890261C16.7215826 11.5217217 16.7539304 11.9333739 16.7539304 11.9333739 16.7539304 11.9333739 17.1577565 11.9683304 17.3873217 11.7361565 17.616887 11.5034609 17.5845391 11.0918087 17.5845391 11.0918087 17.5845391 11.0918087 17.1801913 11.0568522 16.9506261 11.2890261M16.4448522 13.5468C16.7255478 13.5801913 16.9895478 13.3391478 16.9895478 13.3391478 16.9895478 13.3391478 16.7985913 13.0443652 16.5178957 13.0109739 16.2366783 12.9781043 15.9726783 13.2191478 15.9726783 13.2191478 15.9726783 13.2191478 16.1641565 13.5139304 16.4448522 13.5468M16.6956 18.0600522L14.5971652 18.0600522C14.4328174 18.0600522 14.2997739 18.1925739 14.2997739 18.3569217 14.2997739 18.5207478 14.4328174 18.6537913 14.5971652 18.6537913L16.6956 18.6537913C16.8594261 18.6537913 16.9924696 18.5207478 16.9924696 18.3569217 16.9924696 18.1925739 16.8594261 18.0600522 16.6956 18.0600522M16.6956 21.3323478L14.5971652 21.3323478C14.4328174 21.3323478 14.2997739 21.4648696 14.2997739 21.6292174 14.2997739 21.7930435 14.4328174 21.926087 14.5971652 21.926087L16.6956 21.926087C16.8594261 21.926087 16.9924696 21.7930435 16.9924696 21.6292174 16.9924696 21.4648696 16.8594261 21.3323478 16.6956 21.3323478M7.25822609 17.3394261C7.20866087 17.3242957 7.16013913 17.3107304 7.11266087 17.3018609 7.11266087 17.3018609 7.1664 17.3185565 7.25822609 17.3394261"/>
    <path fill="#000000" d="M16.6182783 18.8610783L14.6737565 18.8610783C14.5803652 18.8610783 14.504713 18.9367304 14.504713 19.0301217L14.504713 19.6186435 13.2353217 19.7584696 11.3810609 19.715687 11.3810609 18.5829913C11.6273217 18.551687 11.8741043 18.5026435 12.1188 18.4337739 13.9041913 17.9297739 14.2934087 16.8179478 14.2542783 15.7969043 14.2156696 14.7565565 14.5485391 14.3527304 15.0264522 14.1732522 15.1636696 14.1221217 15.2988 14.0892522 15.4229739 14.0683826 15.4281913 14.323513 15.4798435 14.6209043 15.5941043 14.9746435 15.636887 14.9720348 15.6786261 14.9683826 15.720887 14.9642087 15.6003652 14.6021217 15.548713 14.3042087 15.5461043 14.0506435 15.792887 14.0214261 15.9692348 14.0376 15.9692348 14.0376 15.9692348 14.0376 15.8022783 13.9478609 15.5664522 13.7506435 15.6468 13.2581217 15.9400174 12.9560348 16.2421043 12.6466435 16.4085391 12.4765565 16.5801913 12.3007304 16.7153217 12.091513L16.6099304 12.0231652C16.4821043 12.2224696 16.3141043 12.3936 16.1523652 12.5589913 15.8575826 12.8605565 15.5601913 13.1689043 15.4589739 13.6577739 15.3634957 13.5711652 15.2596696 13.4689043 15.1537565 13.3499478 14.7134087 12.8563826 14.1468 13.2189913 13.3386261 13.9713391 12.5299304 14.723687 11.5135826 14.7492522 10.520713 13.7334261 9.21062609 12.3920348 8.06801739 12.3998609 7.28436522 12.4760348 7.8201913 12.7040348 8.00801739 13.2054261 8.27932174 14.4784696 8.56366957 15.8146435 9.28053913 16.4188174 10.2619304 16.5022957 9.80697391 16.5758609 9.68906087 16.6389913 8.95810435 17.1440348 8.3868 17.5379478 7.58384348 17.4132522 7.25827826 17.3391652 7.8561913 17.5259478 8.5641913 18.1525565 9.19758261 18.3711652 9.56645217 18.4979478 9.95514783 18.5762087 10.3537565 18.6080348L10.3537565 19.6922087 6.83566957 19.6165565 6.83566957 20.3730783 13.2353217 20.2311652 14.504713 20.3709913 14.504713 20.9589913C14.504713 21.0523826 14.5803652 21.1285565 14.6737565 21.1285565L16.6182783 21.1285565C16.7116696 21.1285565 16.7873217 21.0523826 16.7873217 20.9589913L16.7873217 19.0301217C16.7873217 18.9367304 16.7116696 18.8610783 16.6182783 18.8610783zM10.6589739 18.623687C10.7977565 18.6262957 10.9360174 18.6221217 11.0753217 18.6127304L11.0753217 19.7089043 10.6589739 19.699513 10.6589739 18.623687zM6.65431304 20.2479652C6.65431304 20.4076174 6.54318261 20.5370087 6.40596522 20.5370087L6.25622609 20.5370087C6.11953043 20.5370087 6.00787826 20.4076174 6.00787826 20.2479652L6.00787826 19.7251826C6.00787826 19.5655304 6.11953043 19.4361391 6.25622609 19.4361391L6.40596522 19.4361391C6.54318261 19.4361391 6.65431304 19.5655304 6.65431304 19.7251826L6.65431304 20.2479652z"/>
    <polygon fill="#000000" points="1.801 3.373 1.801 4.227 1.809 4.227 2.383 3.632 2.39 3.632 2.39 7.356 3.208 7.356 3.208 2.49 2.555 2.49"/>
    <path fill="#000000" d="M6.0717913 6.18667826L6.0717913 5.46876522C6.0717913 4.6725913 5.75613913 4.27033043 5.16761739 4.27033043 4.82274783 4.27033043 4.61509565 4.42841739 4.4930087 4.66528696L4.48622609 4.66528696 4.48622609 3.61711304C4.48622609 3.32285217 4.57909565 3.11467826 4.87335652 3.11467826 5.16761739 3.11467826 5.25370435 3.28685217 5.25370435 3.58841739L5.25370435 3.91189565 5.9997913 3.91189565 5.9997913 3.65311304C5.9997913 2.9352 5.76344348 2.43328696 4.85874783 2.43328696 3.99787826 2.43328696 3.67492174 2.9858087 3.67492174 3.74650435L3.67492174 6.11467826C3.67492174 6.86806957 4.00518261 7.4138087 4.86605217 7.4138087 5.73422609 7.4138087 6.0717913 6.94006957 6.0717913 6.18667826zM5.2610087 6.25815652C5.2610087 6.56702609 5.14622609 6.74650435 4.86605217 6.74650435 4.59370435 6.74650435 4.48622609 6.55972174 4.48622609 6.25815652L4.48622609 5.3685913C4.50031304 5.09572174 4.61509565 4.92354783 4.87335652 4.92354783 5.1530087 4.92354783 5.2610087 5.09572174 5.2610087 5.41137391L5.2610087 6.25815652zM7.57106087 2.46902609L8.0781913 2.46902609C8.42306087 2.46902609 8.54932174 2.64015652 8.54932174 2.92502609L8.54932174 3.35389565C8.54932174 3.63928696 8.42306087 3.81302609 8.0781913 3.81302609L7.9128 3.81302609 7.9128 4.50328696 7.57106087 4.50328696 7.57106087 2.46902609zM7.9128 2.74815652L7.9128 3.54902609 8.03906087 3.54902609C8.15593043 3.54902609 8.20706087 3.49215652 8.20706087 3.38102609L8.20706087 2.91302609C8.20706087 2.80189565 8.15593043 2.74815652 8.03906087 2.74815652L7.9128 2.74815652z"/>
    <polygon fill="#000000" points="8.726 2.469 9.542 2.469 9.542 2.748 9.068 2.748 9.068 3.33 9.407 3.33 9.407 3.606 9.068 3.606 9.068 4.224 9.542 4.224 9.542 4.503 8.726 4.503"/>
    <path fill="#000000" d="M9.67074783 4.50307826L10.0547478 2.46881739 10.444487 2.46881739 10.8316174 4.50307826 10.4810087 4.50307826 10.4178783 4.13107826 10.0547478 4.13107826 9.99474783 4.50307826 9.67074783 4.50307826zM10.0996174 3.8582087L10.372487 3.8582087 10.2378783 3.0422087 10.2347478 3.0422087 10.0996174 3.8582087zM10.9272522 3.97805217L10.9272522 2.99405217C10.9272522 2.67631304 11.0769913 2.44518261 11.4369913 2.44518261 11.8152522 2.44518261 11.9201217 2.65492174 11.9201217 2.95544348L11.9201217 3.19544348 11.6081217 3.19544348 11.6081217 2.9277913C11.6081217 2.80205217 11.5663826 2.73005217 11.4432522 2.73005217 11.3201217 2.73005217 11.2689913 2.81718261 11.2689913 2.94031304L11.2689913 4.0317913C11.2689913 4.15544348 11.3201217 4.24205217 11.4432522 4.24205217 11.5663826 4.24205217 11.6081217 4.16431304 11.6081217 4.04431304L11.6081217 3.66918261 11.9201217 3.66918261 11.9201217 4.02031304C11.9201217 4.31092174 11.8001217 4.52692174 11.4369913 4.52692174 11.0769913 4.52692174 10.9272522 4.29318261 10.9272522 3.97805217"/>
    <polygon fill="#000000" points="12.106 2.469 12.922 2.469 12.922 2.748 12.448 2.748 12.448 3.33 12.787 3.33 12.787 3.606 12.448 3.606 12.448 4.224 12.922 4.224 12.922 4.503 12.106 4.503"/>
    <polygon fill="#000000" points="13.132 4.176 13.09 4.662 13.282 4.662 13.456 4.203 13.456 4.176"/>
    <path fill="#000000" d="M14.8746783 2.46902609L14.8746783 4.04102609C14.8746783 4.33528696 14.7458087 4.52728696 14.4035478 4.52728696 14.0498087 4.52728696 13.9538087 4.33215652 13.9538087 4.07389565L13.9538087 3.66902609 14.2778087 3.66902609 14.2778087 4.08015652C14.2778087 4.18241739 14.3138087 4.24189565 14.4035478 4.24189565 14.4964174 4.24189565 14.5329391 4.18241739 14.5329391 4.07702609L14.5329391 2.46902609 14.8746783 2.46902609zM16.0593391 2.46902609L16.0593391 4.00815652C16.0593391 4.32276522 15.9247304 4.52728696 15.5762087 4.52728696 15.2162087 4.52728696 15.0664696 4.32276522 15.0664696 4.00815652L15.0664696 2.46902609 15.4082087 2.46902609 15.4082087 4.04102609C15.4082087 4.16102609 15.4562087 4.24189565 15.5762087 4.24189565 15.6962087 4.24189565 15.7442087 4.16102609 15.7442087 4.04102609L15.7442087 2.46902609 16.0593391 2.46902609zM16.2358435 4.06513043L16.2358435 3.79226087 16.5541043 3.79226087 16.5541043 4.07086957C16.5541043 4.18513043 16.604713 4.2513913 16.7221043 4.2513913 16.8301043 4.2513913 16.8781043 4.17886957 16.8781043 4.07086957L16.8781043 3.99313043C16.8781043 3.87626087 16.8301043 3.80426087 16.7252348 3.70513043L16.5238435 3.50373913C16.328713 3.31226087 16.2389739 3.1953913 16.2389739 2.96113043L16.2389739 2.89226087C16.2389739 2.64026087 16.3861043 2.44513043 16.7189739 2.44513043 17.060713 2.44513043 17.1958435 2.61313043 17.1958435 2.9073913L17.1958435 3.07226087 16.8838435 3.07226087 16.8838435 2.89486957C16.8838435 2.778 16.8301043 2.72113043 16.7221043 2.72113043 16.6261043 2.72113043 16.5598435 2.77486957 16.5598435 2.88913043L16.5598435 2.93086957C16.5598435 3.04513043 16.6229739 3.11086957 16.7221043 3.20686957L16.9412348 3.42286957C17.1269739 3.61226087 17.216713 3.726 17.216713 3.95086957L17.216713 4.05C17.216713 4.32913043 17.0669739 4.52686957 16.7189739 4.52686957 16.3709739 4.52686957 16.2358435 4.33226087 16.2358435 4.06513043"/>
    <polygon fill="#000000" points="17.312 2.469 18.221 2.469 18.221 2.748 17.94 2.748 17.94 4.503 17.595 4.503 17.595 2.748 17.312 2.748"/>
    <polygon fill="#000000" points="18.38 4.503 18.722 4.503 18.722 2.469 18.38 2.469"/>
    <path fill="#000000" d="M18.9201913,3.97805217 L18.9201913,2.99405217 C18.9201913,2.67631304 19.0699304,2.44518261 19.4299304,2.44518261 C19.8081913,2.44518261 19.9130609,2.65492174 19.9130609,2.95544348 L19.9130609,3.19544348 L19.6010609,3.19544348 L19.6010609,2.9277913 C19.6010609,2.80205217 19.5593217,2.73005217 19.4361913,2.73005217 C19.3130609,2.73005217 19.2619304,2.81718261 19.2619304,2.94031304 L19.2619304,4.0317913 C19.2619304,4.15544348 19.3130609,4.24205217 19.4361913,4.24205217 C19.5593217,4.24205217 19.6010609,4.16431304 19.6010609,4.04431304 L19.6010609,3.66918261 L19.9130609,3.66918261 L19.9130609,4.02031304 C19.9130609,4.31092174 19.7930609,4.52692174 19.4299304,4.52692174 C19.0699304,4.52692174 18.9201913,4.29318261 18.9201913,3.97805217"/>
    <polygon fill="#000000" points="20.099 2.469 20.915 2.469 20.915 2.748 20.441 2.748 20.441 3.33 20.78 3.33 20.78 3.606 20.441 3.606 20.441 4.224 20.915 4.224 20.915 4.503 20.099 4.503"/>
    <path fill="#000000" d="M7.51711304,7.35245217 L7.90111304,5.3181913 L8.29085217,5.3181913 L8.67798261,7.35245217 L8.32737391,7.35245217 L8.26424348,6.98045217 L7.90111304,6.98045217 L7.84111304,7.35245217 L7.51711304,7.35245217 Z M7.94598261,6.70758261 L8.21885217,6.70758261 L8.08424348,5.89158261 L8.08111304,5.89158261 L7.94598261,6.70758261 Z"/>
    <polygon fill="#000000" points="9.107 6.075 9.107 7.352 8.819 7.352 8.819 5.319 9.155 5.319 9.524 6.486 9.524 5.319 9.809 5.319 9.809 7.352 9.509 7.352"/>
    <path fill="#000000" d="M11.0266435 5.86445217L11.0266435 6.8061913C11.0266435 7.1181913 10.8977739 7.35245217 10.531513 7.35245217L10.003513 7.35245217 10.003513 5.3181913 10.531513 5.3181913C10.8977739 5.3181913 11.0266435 5.54932174 11.0266435 5.86445217zM10.4892522 7.07332174C10.6306435 7.07332174 10.6849043 6.98932174 10.6849043 6.86671304L10.6849043 5.80132174C10.6849043 5.68132174 10.6306435 5.59732174 10.4892522 5.59732174L10.3452522 5.59732174 10.3452522 7.07332174 10.4892522 7.07332174zM11.7174783 6.91455652L11.7174783 6.64116522 12.0357391 6.64116522 12.0357391 6.92029565C12.0357391 7.03455652 12.0863478 7.10081739 12.2037391 7.10081739 12.3117391 7.10081739 12.3597391 7.02829565 12.3597391 6.92029565L12.3597391 6.84255652C12.3597391 6.72568696 12.3117391 6.65368696 12.2063478 6.55455652L12.0054783 6.35316522C11.8103478 6.16116522 11.7206087 6.04481739 11.7206087 5.81055652L11.7206087 5.74168696C11.7206087 5.48916522 11.8677391 5.29455652 12.2006087 5.29455652 12.5423478 5.29455652 12.6774783 5.46255652 12.6774783 5.75681739L12.6774783 5.92116522 12.3654783 5.92116522 12.3654783 5.74429565C12.3654783 5.62742609 12.3117391 5.57055652 12.2037391 5.57055652 12.1077391 5.57055652 12.0414783 5.62429565 12.0414783 5.73855652L12.0414783 5.78029565C12.0414783 5.89455652 12.1046087 5.96029565 12.2037391 6.05629565L12.4228696 6.27229565C12.6086087 6.46168696 12.6983478 6.57542609 12.6983478 6.80029565L12.6983478 6.89942609C12.6983478 7.17855652 12.5486087 7.37629565 12.2006087 7.37629565 11.8526087 7.37629565 11.7174783 7.18168696 11.7174783 6.91455652"/>
    <polygon fill="#000000" points="12.794 5.318 13.703 5.318 13.703 5.598 13.421 5.598 13.421 7.353 13.076 7.353 13.076 5.598 12.794 5.598"/>
    <path fill="#000000" d="M14.2038783 6.41942609L14.2038783 7.35229565 13.8621391 7.35229565 13.8621391 5.31855652 14.3598783 5.31855652C14.7047478 5.31855652 14.8310087 5.48916522 14.8310087 5.77455652L14.8310087 6.03542609C14.8310087 6.25455652 14.7527478 6.38342609 14.5581391 6.42829565L14.8852696 7.35229565 14.5247478 7.35229565 14.2038783 6.41942609zM14.2038783 5.59768696L14.2038783 6.23055652 14.3181391 6.23055652C14.4350087 6.23055652 14.4861391 6.17055652 14.4861391 6.06255652L14.4861391 5.76255652C14.4861391 5.65142609 14.4350087 5.59768696 14.3181391 5.59768696L14.2038783 5.59768696zM15.0166435 6.82747826L15.0166435 5.84347826C15.0166435 5.52573913 15.1726435 5.2946087 15.5326435 5.2946087 15.8957739 5.2946087 16.0517739 5.52573913 16.0517739 5.84347826L16.0517739 6.82747826C16.0517739 7.1426087 15.8957739 7.37634783 15.5326435 7.37634783 15.1726435 7.37634783 15.0166435 7.1426087 15.0166435 6.82747826M15.709513 6.88121739L15.709513 5.78973913C15.709513 5.6666087 15.6557739 5.57947826 15.5326435 5.57947826 15.4126435 5.57947826 15.3583826 5.6666087 15.3583826 5.78973913L15.3583826 6.88121739C15.3583826 7.00434783 15.4126435 7.09147826 15.5326435 7.09147826 15.6557739 7.09147826 15.709513 7.00434783 15.709513 6.88121739"/>
    <polygon fill="#000000" points="16.534 6.075 16.534 7.352 16.246 7.352 16.246 5.319 16.582 5.319 16.951 6.486 16.951 5.319 17.236 5.319 17.236 7.352 16.937 7.352"/>
    <path fill="#000000" d="M17.9469913,6.26650435 L18.4327304,6.26650435 L18.4327304,7.35224348 L18.1869913,7.35224348 L18.1869913,7.13050435 C18.1421217,7.28337391 18.0461217,7.37624348 17.8598609,7.37624348 C17.5661217,7.37624348 17.4309913,7.14250435 17.4309913,6.82737391 L17.4309913,5.84337391 C17.4309913,5.52563478 17.5838609,5.29450435 17.9438609,5.29450435 C18.3221217,5.29450435 18.4327304,5.50424348 18.4327304,5.80476522 L18.4327304,5.98424348 L18.1207304,5.98424348 L18.1207304,5.77763478 C18.1207304,5.65137391 18.0727304,5.57937391 17.9501217,5.57937391 C17.8269913,5.57937391 17.7727304,5.66650435 17.7727304,5.78963478 L17.7727304,6.88111304 C17.7727304,7.00476522 17.8238609,7.09137391 17.9407304,7.09137391 C18.0518609,7.09137391 18.1087304,7.02824348 18.1087304,6.89624348 L18.1087304,6.53624348 L17.9469913,6.53624348 L17.9469913,6.26650435 Z"/>
    <polygon fill="#000000" points="7.571 10.202 7.913 10.202 7.913 8.167 7.571 8.167"/>
    <polygon fill="#000000" points="8.399 8.924 8.399 10.201 8.111 10.201 8.111 8.168 8.447 8.168 8.816 9.335 8.816 8.168 9.101 8.168 9.101 10.201 8.801 10.201"/>
    <path fill="#000000" d="M9.27761739,9.76366957 L9.27761739,9.4908 L9.59587826,9.4908 L9.59587826,9.7694087 C9.59587826,9.88366957 9.64648696,9.9494087 9.76387826,9.9494087 C9.87187826,9.9494087 9.91987826,9.87793043 9.91987826,9.7694087 L9.91987826,9.69166957 C9.91987826,9.5748 9.87187826,9.5028 9.76648696,9.40366957 L9.56561739,9.20227826 C9.37048696,9.0108 9.28074783,8.8934087 9.28074783,8.65966957 L9.28074783,8.5908 C9.28074783,8.3388 9.42787826,8.14366957 9.76074783,8.14366957 C10.102487,8.14366957 10.2376174,8.31166957 10.2376174,8.6054087 L10.2376174,8.77027826 L9.92561739,8.77027826 L9.92561739,8.5934087 C9.92561739,8.47653913 9.87187826,8.41966957 9.76387826,8.41966957 C9.66787826,8.41966957 9.60161739,8.4734087 9.60161739,8.58766957 L9.60161739,8.62993043 C9.60161739,8.74366957 9.66474783,8.8094087 9.76387826,8.9054087 L9.9830087,9.1214087 C10.1687478,9.3108 10.258487,9.42453913 10.258487,9.6494087 L10.258487,9.74853913 C10.258487,10.0276696 10.1087478,10.2254087 9.76074783,10.2254087 C9.41274783,10.2254087 9.27761739,10.0308 9.27761739,9.76366957"/>
    <polygon fill="#000000" points="10.354 8.168 11.263 8.168 11.263 8.447 10.981 8.447 10.981 10.202 10.636 10.202 10.636 8.447 10.354 8.447"/>
    <polygon fill="#000000" points="11.422 10.202 11.764 10.202 11.764 8.167 11.422 8.167"/>
    <polygon fill="#000000" points="11.923 8.168 12.832 8.168 12.832 8.447 12.55 8.447 12.55 10.202 12.205 10.202 12.205 8.447 11.923 8.447"/>
    <path fill="#000000" d="M13.9834435,8.16756522 L13.9834435,9.70669565 C13.9834435,10.0218261 13.8488348,10.2258261 13.500313,10.2258261 C13.140313,10.2258261 12.9905739,10.0218261 12.9905739,9.70669565 L12.9905739,8.16756522 L13.332313,8.16756522 L13.332313,9.73956522 C13.332313,9.85956522 13.380313,9.94043478 13.500313,9.94043478 C13.620313,9.94043478 13.668313,9.85956522 13.668313,9.73956522 L13.668313,8.16756522 L13.9834435,8.16756522 Z"/>
    <polygon fill="#000000" points="14.139 8.168 15.048 8.168 15.048 8.447 14.767 8.447 14.767 10.202 14.421 10.202 14.421 8.447 14.139 8.447"/>
    <polygon fill="#000000" points="15.207 10.202 15.549 10.202 15.549 8.167 15.207 8.167"/>
    <path fill="#000000" d="M15.746713,9.6765913 L15.746713,8.6925913 C15.746713,8.37485217 15.902713,8.14372174 16.262713,8.14372174 C16.6258435,8.14372174 16.7818435,8.37485217 16.7818435,8.6925913 L16.7818435,9.6765913 C16.7818435,9.99172174 16.6258435,10.2254609 16.262713,10.2254609 C15.902713,10.2254609 15.746713,9.99172174 15.746713,9.6765913 M16.4395826,9.73033043 L16.4395826,8.63885217 C16.4395826,8.51572174 16.3858435,8.4285913 16.262713,8.4285913 C16.142713,8.4285913 16.0884522,8.51572174 16.0884522,8.63885217 L16.0884522,9.73033043 C16.0884522,9.85346087 16.142713,9.9405913 16.262713,9.9405913 C16.3858435,9.9405913 16.4395826,9.85346087 16.4395826,9.73033043"/>
    <polygon fill="#000000" points="17.264 8.924 17.264 10.201 16.976 10.201 16.976 8.168 17.312 8.168 17.681 9.335 17.681 8.168 17.966 8.168 17.966 10.201 17.667 10.201"/>
    <path fill="#000000" d="M18.1430609,9.76366957 L18.1430609,9.4908 L18.4613217,9.4908 L18.4613217,9.7694087 C18.4613217,9.88366957 18.5124522,9.9494087 18.6293217,9.9494087 C18.7373217,9.9494087 18.7853217,9.87793043 18.7853217,9.7694087 L18.7853217,9.69166957 C18.7853217,9.5748 18.7373217,9.5028 18.6324522,9.40366957 L18.4310609,9.20227826 C18.2359304,9.0108 18.1461913,8.8934087 18.1461913,8.65966957 L18.1461913,8.5908 C18.1461913,8.3388 18.2933217,8.14366957 18.6261913,8.14366957 C18.9684522,8.14366957 19.1030609,8.31166957 19.1030609,8.6054087 L19.1030609,8.77027826 L18.7910609,8.77027826 L18.7910609,8.5934087 C18.7910609,8.47653913 18.7373217,8.41966957 18.6293217,8.41966957 C18.5333217,8.41966957 18.4670609,8.4734087 18.4670609,8.58766957 L18.4670609,8.62993043 C18.4670609,8.74366957 18.5301913,8.8094087 18.6293217,8.9054087 L18.8484522,9.1214087 C19.0341913,9.3108 19.1239304,9.42453913 19.1239304,9.6494087 L19.1239304,9.74853913 C19.1239304,10.0276696 18.9741913,10.2254087 18.6261913,10.2254087 C18.2781913,10.2254087 18.1430609,10.0308 18.1430609,9.76366957"/>
  </g>
</svg>
