<svg xmlns="http://www.w3.org/2000/svg" width="24" height="24" viewBox="0 0 24 24">
  <g fill="none" fill-rule="evenodd">
    <path fill="#000000" d="M10.0921043 20.9721913L10.0921043 21.3113217C10.0915826 21.3139304 10.0910609 21.3165391 10.0910609 21.3191478 10.0910609 21.3222783 10.0915826 21.324887 10.0921043 21.3269739 10.0957565 21.4109739 10.1641043 21.4777565 10.2486261 21.4798435 10.2496696 21.4798435 10.250713 21.4803652 10.2517565 21.4803652 10.2528 21.4803652 10.2543652 21.4798435 10.2559304 21.4798435L14.2362783 21.4798435C14.2373217 21.4798435 14.2383652 21.4803652 14.2399304 21.4803652 14.2409739 21.4803652 14.2420174 21.4798435 14.2430609 21.4798435 14.3301913 21.4777565 14.3995826 21.4073217 14.4001043 21.3201913 14.4001043 21.3201913 14.4006261 21.3196696 14.4006261 21.3191478 14.4006261 21.3191478 14.4001043 21.3186261 14.4001043 21.3181043L14.4001043 20.9341043C16.6409739 20.1994957 18.3199304 18.3833217 18.6893217 16.1695826 18.6898435 16.164887 18.6903652 16.160713 18.6914087 16.1565391 18.6924522 16.148713 18.6934957 16.1419304 18.6934957 16.1341043 18.6934957 16.0454087 18.6220174 15.9734087 18.5328 15.9734087L5.92132174 15.9734087 5.84566957 15.9734087C5.75593043 15.9734087 5.68393043 16.0454087 5.68393043 16.1341043L5.69227826 16.2066261C6.08045217 18.4412348 7.80532174 20.2673217 10.0921043 20.9721913M14.3966087 10.5585391C14.3444348 10.6331478 13.1183478 12.3976696 14.4237391 13.8246261 15.0226957 14.4794087 14.9705217 15.0574957 14.799913 15.4477565L15.6373043 15.4477565C15.8068696 14.8712348 15.7369565 14.1486261 15.0571304 13.4056696 14.0950435 12.3543652 15.0691304 10.9331478 15.0837391 10.9112348 15.1985217 10.7489739 15.1369565 10.5402783 14.948087 10.442713 14.7581739 10.3456696 14.511913 10.3973217 14.3966087 10.5585391M12.2759478 15.4477043L13.1138609 15.4477043C13.2829043 14.8711826 13.2124696 14.1485739 12.5326435 13.4061391 11.5705565 12.354313 12.5441217 10.9336174 12.5592522 10.9106609 12.673513 10.7489217 12.6129913 10.5402261 12.4230783 10.4426609 12.2342087 10.3461391 11.9874261 10.3972696 11.8726435 10.558487 11.8199478 10.6325739 10.5933391 12.3976174 11.8997739 13.8245739 12.4987304 14.4798783 12.4465565 15.0574435 12.2759478 15.4477043M9.3482087 10.5585391C9.2949913 10.6331478 8.06942609 12.3976696 9.37533913 13.8246261 9.97429565 14.4799304 9.92212174 15.0574957 9.75203478 15.4477565L10.5894261 15.4477565C10.7584696 14.8717565 10.6885565 14.1491478 10.0082087 13.4056696 9.04612174 12.3543652 10.0202087 10.9331478 10.0353391 10.910713 10.1490783 10.7489739 10.0885565 10.5402783 9.89864348 10.442713 9.70925217 10.3451478 9.4629913 10.3973217 9.3482087 10.5585391M5.10010435 6.68686957L3.7581913 6.68686957 3.7581913 6.45730435C3.7581913 6.07695652 3.89436522 5.93347826 4.10253913 5.71069565L4.62636522 5.15817391C5.04949565 4.70634783 5.14288696 4.4193913 5.14288696 3.93104348L5.14288696 3.45730435C5.14288696 2.76130435 4.80584348 2.43104348 4.07384348 2.43104348 3.35645217 2.43104348 2.9901913 2.8113913 2.9901913 3.49330435L2.9901913 4.08182609 3.7368 4.08182609 3.7368 3.4713913C3.7368 3.17765217 3.88027826 3.09156522 4.05245217 3.09156522 4.21001739 3.09156522 4.34671304 3.15626087 4.34671304 3.45730435L4.34671304 3.85904348C4.34671304 4.26130435 4.31071304 4.4193913 4.04514783 4.69904348L3.58549565 5.18686957C3.14097391 5.6606087 2.97558261 5.97678261 2.97558261 6.45730435L2.97558261 7.35417391 5.10010435 7.35417391 5.10010435 6.68686957z"/>
    <polygon fill="#000000" points="7.811 4.3 8.33 4.3 8.33 4.579 7.454 4.579 7.454 4.3 7.991 2.824 7.508 2.824 7.508 2.545 8.351 2.545 8.351 2.824"/>
    <polygon fill="#000000" points="8.531 2.545 9.347 2.545 9.347 2.824 8.873 2.824 8.873 3.405 9.212 3.405 9.212 3.681 8.873 3.681 8.873 4.3 9.347 4.3 9.347 4.579 8.531 4.579"/>
    <path fill="#000000" d="M9.87182609 3.64565217L9.87182609 4.57852174 9.52956522 4.57852174 9.52956522 2.54478261 10.0278261 2.54478261C10.3726957 2.54478261 10.4989565 2.71591304 10.4989565 3.00078261L10.4989565 3.26165217C10.4989565 3.48078261 10.4206957 3.60965217 10.2255652 3.65452174L10.5526957 4.57852174 10.1926957 4.57852174 9.87182609 3.64565217zM9.87182609 2.82391304L9.87182609 3.45678261 9.98556522 3.45678261C10.1029565 3.45678261 10.1535652 3.39678261 10.1535652 3.28878261L10.1535652 2.98878261C10.1535652 2.87765217 10.1029565 2.82391304 9.98556522 2.82391304L9.87182609 2.82391304zM10.684487 4.05365217L10.684487 3.06965217C10.684487 2.75191304 10.840487 2.52078261 11.200487 2.52078261 11.5636174 2.52078261 11.7196174 2.75191304 11.7196174 3.06965217L11.7196174 4.05365217C11.7196174 4.36878261 11.5636174 4.60252174 11.200487 4.60252174 10.840487 4.60252174 10.684487 4.36878261 10.684487 4.05365217M11.3773565 4.10791304L11.3773565 3.01591304C11.3773565 2.89278261 11.3236174 2.80565217 11.200487 2.80565217 11.080487 2.80565217 11.0267478 2.89278261 11.0267478 3.01591304L11.0267478 4.10791304C11.0267478 4.23052174 11.080487 4.31765217 11.200487 4.31765217 11.3236174 4.31765217 11.3773565 4.23052174 11.3773565 4.10791304"/>
    <polygon fill="#000000" points="8.15 6.531 7.821 6.531 7.821 7.428 7.478 7.428 7.478 5.394 7.821 5.394 7.821 6.255 8.15 6.255 8.15 5.394 8.495 5.394 8.495 7.428 8.15 7.428"/>
    <path fill="#000000" d="M9.68295652,5.3937913 L9.68295652,6.93292174 C9.68295652,7.24805217 9.54782609,7.45205217 9.19982609,7.45205217 C8.83982609,7.45205217 8.69008696,7.24805217 8.69008696,6.93292174 L8.69008696,5.3937913 L9.03182609,5.3937913 L9.03182609,6.9657913 C9.03182609,7.0857913 9.07982609,7.16666087 9.19982609,7.16666087 C9.31982609,7.16666087 9.36782609,7.0857913 9.36782609,6.9657913 L9.36782609,5.3937913 L9.68295652,5.3937913 Z"/>
    <polygon fill="#000000" points="10.166 6.15 10.166 7.428 9.878 7.428 9.878 5.394 10.214 5.394 10.582 6.561 10.582 5.394 10.868 5.394 10.868 7.428 10.568 7.428"/>
    <path fill="#000000" d="M11.5782261,6.34189565 L12.064487,6.34189565 L12.064487,7.42763478 L11.8182261,7.42763478 L11.8182261,7.20589565 C11.7733565,7.35876522 11.6773565,7.45163478 11.4910957,7.45163478 C11.1973565,7.45163478 11.0622261,7.21789565 11.0622261,6.90276522 L11.0622261,5.91876522 C11.0622261,5.60102609 11.2150957,5.36989565 11.5750957,5.36989565 C11.9533565,5.36989565 12.064487,5.57963478 12.064487,5.87963478 L12.064487,6.05963478 L11.752487,6.05963478 L11.752487,5.85302609 C11.752487,5.72676522 11.704487,5.65476522 11.5813565,5.65476522 C11.4582261,5.65476522 11.404487,5.74189565 11.404487,5.86502609 L11.404487,6.95702609 C11.404487,7.07963478 11.4550957,7.16676522 11.572487,7.16676522 C11.6830957,7.16676522 11.740487,7.10363478 11.740487,6.97163478 L11.740487,6.61163478 L11.5782261,6.61163478 L11.5782261,6.34189565 Z"/>
    <polygon fill="#000000" points="12.259 5.394 13.075 5.394 13.075 5.673 12.601 5.673 12.601 6.255 12.94 6.255 12.94 6.531 12.601 6.531 12.601 7.149 13.075 7.149 13.075 7.428 12.259 7.428"/>
    <path fill="#000000" d="M13.5996,6.49481739 L13.5996,7.42768696 L13.2573391,7.42768696 L13.2573391,5.39394783 L13.7556,5.39394783 C14.1004696,5.39394783 14.2267304,5.56507826 14.2267304,5.84994783 L14.2267304,6.11081739 C14.2267304,6.32994783 14.1484696,6.45881739 13.9533391,6.50368696 L14.2804696,7.42768696 L13.9204696,7.42768696 L13.5996,6.49481739 Z M13.5996,5.67307826 L13.5996,6.30594783 L13.7133391,6.30594783 C13.8307304,6.30594783 13.8813391,6.24594783 13.8813391,6.13794783 L13.8813391,5.83794783 C13.8813391,5.72681739 13.8307304,5.67307826 13.7133391,5.67307826 L13.5996,5.67307826 Z"/>
  </g>
</svg>
