<svg xmlns="http://www.w3.org/2000/svg" width="24" height="24" viewBox="0 0 24 24">
  <g fill="none" fill-rule="evenodd">
    <path fill="#000000" d="M18.1442087,15.1023652 C18.1442087,13.4077565 16.7960348,12.0230609 15.1165565,11.9620174 C14.6845565,10.7416696 13.519513,9.86514783 12.1530783,9.86514783 C10.7871652,9.86514783 9.62212174,10.7416696 9.1896,11.9620174 C7.51012174,12.0230609 6.16246957,13.4077565 6.16246957,15.1023652 C6.16246957,16.1077565 6.63777391,17.0041043 7.37551304,17.5801043 C7.29516522,17.8571478 7.25133913,18.1498435 7.25133913,18.4524522 C7.25133913,20.1851478 8.66107826,21.594887 10.3948174,21.594887 C11.0522087,21.594887 11.6631652,21.3914087 12.1687304,21.0449739 C12.6680348,21.378887 13.267513,21.5740174 13.9123826,21.5740174 C15.6450783,21.5740174 17.0553391,20.1642783 17.0553391,18.4315826 C17.0553391,18.1352348 17.0130783,17.8482783 16.9363826,17.5764522 C17.6704696,17.0004522 18.1442087,16.1056696 18.1442087,15.1023652 M14.663687,13.0081043 C14.663687,14.2665391 13.7323826,15.3079304 12.523513,15.4879304 C12.503687,15.3621913 12.4906435,15.2338435 12.4906435,15.1023652 C12.4906435,13.8439304 13.4219478,12.8020174 14.6308174,12.6225391 C14.6501217,12.7482783 14.663687,12.8766261 14.663687,13.0081043 M12.1645565,20.2294957 C11.6949913,19.7734957 11.4017739,19.1364522 11.4017739,18.4315826 C11.4017739,17.7376696 11.6850783,17.1084522 12.1416,16.6540174 C12.6111652,17.1100174 12.9049043,17.7470609 12.9049043,18.4524522 C12.9049043,19.1458435 12.6216,19.7750609 12.1645565,20.2294957 M9.67586087,12.6225391 C10.8847304,12.8020174 11.8160348,13.8439304 11.8160348,15.1023652 C11.8160348,15.2338435 11.8024696,15.3621913 11.7831652,15.4879304 C10.5742957,15.3079304 9.6429913,14.2665391 9.6429913,13.0081043 C9.6429913,12.8766261 9.65603478,12.7482783 9.67586087,12.6225391 M11.5473391,16.2251478 C11.1346435,17.0463652 10.2857739,17.6124522 9.30542609,17.6124522 C8.8896,17.6124522 8.49829565,17.5091478 8.15238261,17.3296696 C8.5656,16.5079304 9.41446957,15.9418435 10.3948174,15.9418435 C10.8106435,15.9418435 11.2019478,16.0451478 11.5473391,16.2251478 M12.7509913,16.2084522 C13.0984696,16.0258435 13.4929043,15.9209739 13.9123826,15.9209739 C14.8989913,15.9209739 15.7525565,16.4954087 16.1626435,17.3254957 C15.8146435,17.5081043 15.419687,17.6124522 15.0012522,17.6124522 C14.0141217,17.6124522 13.1605565,17.0385391 12.7509913,16.2084522 M12.1530783,10.4980174 C13.1819478,10.4980174 14.0668174,11.1199304 14.4539478,12.0074087 C13.4329043,12.1874087 12.5803826,12.8614957 12.1530783,13.7734957 C11.7262957,12.8614957 10.8732522,12.1874087 9.8522087,12.0074087 C10.2398609,11.1199304 11.1247304,10.4980174 12.1530783,10.4980174 M6.79533913,15.1023652 C6.79533913,13.8089739 7.77829565,12.7414957 9.0362087,12.606887 C9.01951304,12.7383652 9.01012174,12.8724522 9.01012174,13.0081043 C9.01012174,13.926887 9.40664348,14.754887 10.0369043,15.3303652 C8.99446957,15.4488 8.10490435,16.0790609 7.6269913,16.9634087 C7.11777391,16.5037565 6.79533913,15.8406261 6.79533913,15.1023652 M7.8842087,18.4524522 C7.8842087,18.2740174 7.9029913,18.1002783 7.9389913,17.9322783 C8.35273043,18.1326261 8.81603478,18.2453217 9.30542609,18.2453217 C9.85586087,18.2453217 10.3729043,18.102887 10.8231652,17.8534957 C10.7882087,18.0408 10.7689043,18.2338435 10.7689043,18.4315826 C10.7689043,19.2804522 11.1085565,20.0515826 11.6574261,20.6176696 C11.2859478,20.8352348 10.8549913,20.9625391 10.3948174,20.9625391 C9.01012174,20.9625391 7.8842087,19.8361043 7.8842087,18.4524522 M16.4224696,18.4315826 C16.4224696,19.8152348 15.2965565,20.9416696 13.9123826,20.9416696 C13.4616,20.9416696 13.0400348,20.8206261 12.6742957,20.6119304 C13.2085565,20.0484522 13.5377739,19.2882783 13.5377739,18.4524522 C13.5377739,18.246887 13.5169043,18.0454957 13.4788174,17.850887 C13.9301217,18.1018435 14.4492522,18.2453217 15.0012522,18.2453217 C15.4922087,18.2453217 15.9576,18.1315826 16.3718609,17.9296696 C16.4052522,18.0924522 16.4224696,18.2599304 16.4224696,18.4315826 M14.2890783,15.3115826 C14.9078609,14.7371478 15.2965565,13.9174957 15.2965565,13.0081043 C15.2965565,12.8724522 15.2866435,12.7383652 15.2699478,12.606887 C16.5278609,12.7414957 17.5113391,13.8089739 17.5113391,15.1023652 C17.5113391,15.8369739 17.1920348,16.4969739 16.6864696,16.9566261 C16.2137739,16.070713 15.3283826,15.4368 14.2890783,15.3115826"/>
    <polygon fill="#000000" points="3.556 2.489 3.556 7.355 2.738 7.355 2.738 3.63 2.731 3.63 2.157 4.225 2.149 4.225 2.149 3.372 2.903 2.489"/>
    <polygon fill="#000000" points="3.929 2.489 5.982 2.489 5.982 3.242 4.913 7.355 4.101 7.355 5.192 3.156 3.929 3.156"/>
    <path fill="#000000" d="M7.78523478 2.46907826L8.29236522 2.46907826C8.63723478 2.46907826 8.76349565 2.6402087 8.76349565 2.92507826L8.76349565 3.35394783C8.76349565 3.63933913 8.63723478 3.81307826 8.29236522 3.81307826L8.12697391 3.81307826 8.12697391 4.50333913 7.78523478 4.50333913 7.78523478 2.46907826zM8.12697391 2.7482087L8.12697391 3.54907826 8.25323478 3.54907826C8.37010435 3.54907826 8.42123478 3.4922087 8.42123478 3.38107826L8.42123478 2.91307826C8.42123478 2.80194783 8.37010435 2.7482087 8.25323478 2.7482087L8.12697391 2.7482087zM8.766 4.50313043L9.15 2.46886957 9.53973913 2.46886957 9.92686957 4.50313043 9.57626087 4.50313043 9.51313043 4.13113043 9.15 4.13113043 9.09 4.50313043 8.766 4.50313043zM9.19486957 3.85826087L9.46773913 3.85826087 9.33313043 3.04226087 9.33 3.04226087 9.19486957 3.85826087zM10.409687 3.57010435L10.409687 4.50297391 10.0679478 4.50297391 10.0679478 2.46923478 10.565687 2.46923478C10.9105565 2.46923478 11.0368174 2.63984348 11.0368174 2.92523478L11.0368174 3.18610435C11.0368174 3.40523478 10.9585565 3.53410435 10.7639478 3.57897391L11.0910783 4.50297391 10.7310783 4.50297391 10.409687 3.57010435zM10.409687 2.74836522L10.409687 3.38123478 10.5239478 3.38123478C10.6408174 3.38123478 10.6919478 3.32123478 10.6919478 3.21323478L10.6919478 2.91323478C10.6919478 2.80210435 10.6408174 2.74836522 10.5239478 2.74836522L10.409687 2.74836522z"/>
    <polygon fill="#000000" points="11.153 2.469 12.062 2.469 12.062 2.748 11.78 2.748 11.78 4.503 11.435 4.503 11.435 2.748 11.153 2.748"/>
    <polygon fill="#000000" points="12.509 3.225 12.509 4.503 12.221 4.503 12.221 2.469 12.557 2.469 12.926 3.636 12.926 2.469 13.211 2.469 13.211 4.503 12.911 4.503"/>
    <polygon fill="#000000" points="13.406 2.469 14.222 2.469 14.222 2.748 13.748 2.748 13.748 3.33 14.087 3.33 14.087 3.606 13.748 3.606 13.748 4.224 14.222 4.224 14.222 4.503 13.406 4.503"/>
    <path fill="#000000" d="M14.7466435 3.57010435L14.7466435 4.50297391 14.4049043 4.50297391 14.4049043 2.46923478 14.9026435 2.46923478C15.247513 2.46923478 15.3737739 2.63984348 15.3737739 2.92523478L15.3737739 3.18610435C15.3737739 3.40523478 15.295513 3.53410435 15.1009043 3.57897391L15.4280348 4.50297391 15.067513 4.50297391 14.7466435 3.57010435zM14.7466435 2.74836522L14.7466435 3.38123478 14.8609043 3.38123478C14.9777739 3.38123478 15.0289043 3.32123478 15.0289043 3.21323478L15.0289043 2.91323478C15.0289043 2.80210435 14.9777739 2.74836522 14.8609043 2.74836522L14.7466435 2.74836522zM15.5265391 4.06513043L15.5265391 3.79226087 15.8448 3.79226087 15.8448 4.07086957C15.8448 4.18513043 15.8954087 4.2513913 16.0128 4.2513913 16.1208 4.2513913 16.1688 4.17886957 16.1688 4.07086957L16.1688 3.99313043C16.1688 3.87626087 16.1208 3.80426087 16.0154087 3.70513043L15.8145391 3.50373913C15.6194087 3.31226087 15.5296696 3.1953913 15.5296696 2.96113043L15.5296696 2.89226087C15.5296696 2.64026087 15.6768 2.44513043 16.0096696 2.44513043 16.3514087 2.44513043 16.4865391 2.61313043 16.4865391 2.9073913L16.4865391 3.07226087 16.1745391 3.07226087 16.1745391 2.89486957C16.1745391 2.778 16.1208 2.72113043 16.0128 2.72113043 15.9168 2.72113043 15.8505391 2.77486957 15.8505391 2.88913043L15.8505391 2.93086957C15.8505391 3.04513043 15.9136696 3.11086957 16.0128 3.20686957L16.2319304 3.42286957C16.4176696 3.61226087 16.5074087 3.726 16.5074087 3.95086957L16.5074087 4.05C16.5074087 4.32913043 16.3576696 4.52686957 16.0096696 4.52686957 15.6616696 4.52686957 15.5265391 4.33226087 15.5265391 4.06513043"/>
    <polygon fill="#000000" points="17.359 3.606 17.029 3.606 17.029 4.503 16.687 4.503 16.687 2.469 17.029 2.469 17.029 3.33 17.359 3.33 17.359 2.469 17.704 2.469 17.704 4.503 17.359 4.503"/>
    <polygon fill="#000000" points="17.898 4.503 18.241 4.503 18.241 2.469 17.898 2.469"/>
    <path fill="#000000" d="M18.4385217 2.46907826L18.9456522 2.46907826C19.2905217 2.46907826 19.4167826 2.6402087 19.4167826 2.92507826L19.4167826 3.35394783C19.4167826 3.63933913 19.2905217 3.81307826 18.9456522 3.81307826L18.7802609 3.81307826 18.7802609 4.50333913 18.4385217 4.50333913 18.4385217 2.46907826zM18.7802609 2.7482087L18.7802609 3.54907826 18.9065217 3.54907826C19.0233913 3.54907826 19.0745217 3.4922087 19.0745217 3.38107826L19.0745217 2.91307826C19.0745217 2.80194783 19.0233913 2.7482087 18.9065217 2.7482087L18.7802609 2.7482087zM19.5752348 4.06513043L19.5752348 3.79226087 19.8934957 3.79226087 19.8934957 4.07086957C19.8934957 4.18513043 19.9441043 4.2513913 20.0614957 4.2513913 20.1694957 4.2513913 20.2174957 4.17886957 20.2174957 4.07086957L20.2174957 3.99313043C20.2174957 3.87626087 20.1694957 3.80426087 20.0641043 3.70513043L19.8632348 3.50373913C19.6681043 3.31226087 19.5783652 3.1953913 19.5783652 2.96113043L19.5783652 2.89226087C19.5783652 2.64026087 19.7254957 2.44513043 20.0583652 2.44513043 20.4001043 2.44513043 20.5352348 2.61313043 20.5352348 2.9073913L20.5352348 3.07226087 20.2232348 3.07226087 20.2232348 2.89486957C20.2232348 2.778 20.1694957 2.72113043 20.0614957 2.72113043 19.9654957 2.72113043 19.8992348 2.77486957 19.8992348 2.88913043L19.8992348 2.93086957C19.8992348 3.04513043 19.9623652 3.11086957 20.0614957 3.20686957L20.2801043 3.42286957C20.4663652 3.61226087 20.5561043 3.726 20.5561043 3.95086957L20.5561043 4.05C20.5561043 4.32913043 20.4063652 4.52686957 20.0583652 4.52686957 19.7103652 4.52686957 19.5752348 4.33226087 19.5752348 4.06513043"/>
    <polygon fill="#000000" points="7.785 5.318 8.586 5.318 8.586 5.598 8.127 5.598 8.127 6.179 8.469 6.179 8.469 6.456 8.127 6.456 8.127 7.353 7.785 7.353"/>
    <path fill="#000000" d="M8.70610435 6.82747826L8.70610435 5.84347826C8.70610435 5.52573913 8.86210435 5.2946087 9.22210435 5.2946087 9.58523478 5.2946087 9.74123478 5.52573913 9.74123478 5.84347826L9.74123478 6.82747826C9.74123478 7.1426087 9.58523478 7.37634783 9.22210435 7.37634783 8.86210435 7.37634783 8.70610435 7.1426087 8.70610435 6.82747826M9.39897391 6.88121739L9.39897391 5.78973913C9.39897391 5.6666087 9.34523478 5.57947826 9.22210435 5.57947826 9.10210435 5.57947826 9.04784348 5.6666087 9.04784348 5.78973913L9.04784348 6.88121739C9.04784348 7.00434783 9.10210435 7.09147826 9.22210435 7.09147826 9.34523478 7.09147826 9.39897391 7.00434783 9.39897391 6.88121739M10.2777913 6.41947826L10.2777913 7.35234783 9.93605217 7.35234783 9.93605217 5.3186087 10.4337913 5.3186087C10.7786609 5.3186087 10.9049217 5.48921739 10.9049217 5.7746087L10.9049217 6.03547826C10.9049217 6.2546087 10.8266609 6.38347826 10.6320522 6.42886957L10.9586609 7.35234783 10.5991826 7.35234783 10.2777913 6.41947826zM10.2777913 5.59773913L10.2777913 6.2306087 10.3920522 6.2306087C10.5089217 6.2306087 10.5600522 6.1706087 10.5600522 6.0626087L10.5600522 5.7626087C10.5600522 5.65147826 10.5089217 5.59773913 10.3920522 5.59773913L10.2777913 5.59773913z"/>
    <polygon fill="#000000" points="11.566 5.318 12.475 5.318 12.475 5.598 12.193 5.598 12.193 7.353 11.848 7.353 11.848 5.598 11.566 5.598"/>
    <polygon fill="#000000" points="13.306 6.456 12.975 6.456 12.975 7.352 12.634 7.352 12.634 5.318 12.975 5.318 12.975 6.18 13.306 6.18 13.306 5.318 13.651 5.318 13.651 7.352 13.306 7.352"/>
    <polygon fill="#000000" points="13.845 5.318 14.661 5.318 14.661 5.598 14.187 5.598 14.187 6.179 14.526 6.179 14.526 6.456 14.187 6.456 14.187 7.074 14.661 7.074 14.661 7.353 13.845 7.353"/>
    <path fill="#000000" d="M15.8749043 6.26655652L16.3606435 6.26655652 16.3606435 7.35229565 16.1149043 7.35229565 16.1149043 7.13055652C16.0700348 7.28342609 15.9740348 7.37629565 15.7877739 7.37629565 15.4940348 7.37629565 15.3589043 7.14255652 15.3589043 6.82742609L15.3589043 5.84342609C15.3589043 5.52568696 15.5117739 5.29455652 15.8717739 5.29455652 16.249513 5.29455652 16.3606435 5.50429565 16.3606435 5.80481739L16.3606435 5.98429565 16.0486435 5.98429565 16.0486435 5.77716522C16.0486435 5.65142609 16.0006435 5.57942609 15.8780348 5.57942609 15.7549043 5.57942609 15.7006435 5.66655652 15.7006435 5.78968696L15.7006435 6.88116522C15.7006435 7.00481739 15.7517739 7.09142609 15.8686435 7.09142609 15.9797739 7.09142609 16.0366435 7.02829565 16.0366435 6.89629565L16.0366435 6.53629565 15.8749043 6.53629565 15.8749043 6.26655652zM16.5552 6.82747826L16.5552 5.84347826C16.5552 5.52573913 16.7112 5.2946087 17.0712 5.2946087 17.4343304 5.2946087 17.5903304 5.52573913 17.5903304 5.84347826L17.5903304 6.82747826C17.5903304 7.1426087 17.4343304 7.37634783 17.0712 7.37634783 16.7112 7.37634783 16.5552 7.1426087 16.5552 6.82747826M17.2480696 6.88121739L17.2480696 5.78973913C17.2480696 5.6666087 17.1943304 5.57947826 17.0712 5.57947826 16.9512 5.57947826 16.8969391 5.6666087 16.8969391 5.78973913L16.8969391 6.88121739C16.8969391 7.00434783 16.9512 7.09147826 17.0712 7.09147826 17.1943304 7.09147826 17.2480696 7.00434783 17.2480696 6.88121739M17.685913 7.35250435L18.069913 5.31824348 18.4596522 5.31824348 18.8467826 7.35250435 18.4961739 7.35250435 18.4330435 6.98050435 18.069913 6.98050435 18.009913 7.35250435 17.685913 7.35250435zM18.1147826 6.70763478L18.3876522 6.70763478 18.2530435 5.89163478 18.249913 5.89163478 18.1147826 6.70763478z"/>
    <polygon fill="#000000" points="18.988 5.318 19.329 5.318 19.329 7.074 19.737 7.074 19.737 7.353 18.988 7.353"/>
    <path fill="#000000" d="M19.8605739,6.91455652 L19.8605739,6.64116522 L20.1788348,6.64116522 L20.1788348,6.92029565 C20.1788348,7.03455652 20.2299652,7.10081739 20.3468348,7.10081739 C20.4548348,7.10081739 20.5028348,7.02829565 20.5028348,6.92029565 L20.5028348,6.84255652 C20.5028348,6.72568696 20.4548348,6.65368696 20.3494435,6.55455652 L20.1485739,6.35316522 C19.9534435,6.16116522 19.8637043,6.04481739 19.8637043,5.81055652 L19.8637043,5.74168696 C19.8637043,5.48916522 20.0108348,5.29455652 20.3437043,5.29455652 C20.6854435,5.29455652 20.8205739,5.46255652 20.8205739,5.75681739 L20.8205739,5.92116522 L20.5085739,5.92116522 L20.5085739,5.74429565 C20.5085739,5.62742609 20.4548348,5.57055652 20.3468348,5.57055652 C20.2508348,5.57055652 20.1845739,5.62429565 20.1845739,5.73855652 L20.1845739,5.78029565 C20.1845739,5.89455652 20.2477043,5.96029565 20.3468348,6.05629565 L20.5659652,6.27229565 C20.7517043,6.46168696 20.8414435,6.57542609 20.8414435,6.80029565 L20.8414435,6.89942609 C20.8414435,7.17855652 20.6917043,7.37629565 20.3437043,7.37629565 C19.9957043,7.37629565 19.8605739,7.18168696 19.8605739,6.91455652"/>
  </g>
</svg>
