<svg xmlns="http://www.w3.org/2000/svg" width="24" height="24" viewBox="0 0 24 24">
  <g fill="none" fill-rule="evenodd">
    <path fill="#000000" d="M20.1160696,15.5482957 C20.1160696,14.869513 19.6804174,14.3185565 19.0204174,14.3185565 C18.6906783,14.3185565 18.2925913,14.6801217 18.0765913,14.9023826 C17.8600696,14.6801217 17.4885913,14.3180348 17.1583304,14.3180348 C16.4983304,14.3180348 16.0360696,14.8689913 16.0360696,15.5477739 C16.0360696,15.8874261 16.1696348,16.1947304 16.3861565,16.417513 L18.0776348,18.1121217 L19.7670261,16.4196 L19.7659826,16.4180348 C19.9819826,16.1957739 20.1160696,15.8879478 20.1160696,15.5482957"/>
    <path fill="#000000" d="M12.914087 20.8789043C12.9083478 20.8789043 12.9026087 20.8789043 12.8968696 20.8783826 12.768 20.8705565 12.662087 20.7750783 12.6401739 20.6482957L11.7808696 15.6437739 10.4796522 18.0568174C10.4222609 18.1627304 10.3033043 18.2196 10.1864348 18.1987304 10.068 18.1778609 9.97721739 18.0834261 9.96 17.9644696L9.40747826 14.1025565 8.39634783 16.3731652C8.352 16.4733391 8.25234783 16.5380348 8.14278261 16.5380348L4.21356522 16.5380348C4.06017391 16.5380348 3.936 16.4138609 3.936 16.2604696 3.936 16.1070783 4.06017391 15.9823826 4.21356522 15.9823826L7.96226087 15.9823826 9.29217391 12.9959478C9.34226087 12.8827304 9.46173913 12.8164696 9.58434783 12.833687 9.70695652 12.8509043 9.80347826 12.9469043 9.82069565 13.069513L10.3904348 17.0514261 11.673913 14.6717739C11.7302609 14.5669043 11.8466087 14.5100348 11.9634783 14.5293391 12.0803478 14.5486435 12.1721739 14.6399478 12.1925217 14.7568174L12.9881739 19.3914261 15.888 9.75803478C15.9213913 9.64846957 16.0184348 9.5702087 16.1321739 9.56133913 16.2469565 9.5529913 16.3549565 9.61403478 16.4045217 9.71733913L17.9306087 12.8806435C17.9968696 13.0189043 17.9389565 13.1848174 17.8006957 13.2516 17.6629565 13.3183826 17.4965217 13.2604696 17.4297391 13.1222087L16.214087 10.6022087 13.1796522 20.6811652C13.1446957 20.7990783 13.0361739 20.8789043 12.914087 20.8789043M3.60646957 7.42022609C4.43186087 7.42022609 4.79081739 6.98248696 4.79081739 6.30787826L4.79081739 5.59048696C4.79081739 5.14544348 4.59673043 4.85796522 4.18768696 4.76509565 4.52525217 4.65761739 4.74751304 4.38474783 4.74751304 3.97570435L4.74751304 3.55205217C4.74751304 2.86335652 4.41725217 2.44022609 3.66386087 2.44022609 2.81707826 2.44022609 2.52281739 2.94213913 2.52281739 3.66005217L2.52281739 4.09048696 3.26890435 4.09048696 3.26890435 3.59535652C3.26890435 3.2937913 3.36281739 3.12161739 3.62107826 3.12161739 3.87933913 3.12161739 3.9722087 3.2937913 3.9722087 3.55935652L3.9722087 4.08318261C3.9722087 4.34196522 3.80003478 4.47761739 3.5349913 4.47761739L3.22612174 4.47761739 3.22612174 5.10266087 3.57046957 5.10266087C3.85742609 5.10266087 3.9722087 5.23883478 3.9722087 5.49709565L3.9722087 6.30057391C3.9722087 6.55883478 3.85742609 6.73883478 3.60646957 6.73883478 3.32681739 6.73883478 3.22612174 6.55205217 3.22612174 6.26509565L3.22612174 5.56909565 2.48003478 5.56909565 2.48003478 6.20718261C2.48003478 6.94648696 2.77429565 7.42022609 3.60646957 7.42022609M7.62088696 3.49335652L8.10714783 3.49335652 8.10714783 4.57909565 7.86088696 4.57909565 7.86088696 4.35735652C7.81601739 4.51022609 7.72001739 4.60309565 7.53375652 4.60309565 7.24001739 4.60309565 7.10488696 4.36935652 7.10488696 4.05422609L7.10488696 3.07022609C7.10488696 2.75248696 7.25775652 2.52135652 7.61775652 2.52135652 7.99601739 2.52135652 8.10714783 2.73109565 8.10714783 3.03109565L8.10714783 3.21109565 7.79514783 3.21109565 7.79514783 3.00448696C7.79514783 2.87822609 7.74714783 2.80622609 7.62401739 2.80622609 7.50088696 2.80622609 7.44714783 2.89335652 7.44714783 3.01648696L7.44714783 4.10848696C7.44714783 4.23109565 7.49775652 4.31822609 7.61514783 4.31822609 7.72575652 4.31822609 7.78314783 4.25509565 7.78314783 4.12309565L7.78314783 3.76309565 7.62088696 3.76309565 7.62088696 3.49335652zM8.3016 4.05427826L8.3016 3.07027826C8.3016 2.75253913 8.4576 2.5214087 8.8176 2.5214087 9.18073043 2.5214087 9.33673043 2.75253913 9.33673043 3.07027826L9.33673043 4.05427826C9.33673043 4.3694087 9.18073043 4.60314783 8.8176 4.60314783 8.4576 4.60314783 8.3016 4.3694087 8.3016 4.05427826M8.99446957 4.10853913L8.99446957 3.01653913C8.99446957 2.8934087 8.94073043 2.80627826 8.8176 2.80627826 8.6976 2.80627826 8.64386087 2.8934087 8.64386087 3.01653913L8.64386087 4.10853913C8.64386087 4.23114783 8.6976 4.31827826 8.8176 4.31827826 8.94073043 4.31827826 8.99446957 4.23114783 8.99446957 4.10853913M9.53123478 4.05427826L9.53123478 3.07027826C9.53123478 2.75253913 9.68723478 2.5214087 10.0472348 2.5214087 10.4103652 2.5214087 10.5663652 2.75253913 10.5663652 3.07027826L10.5663652 4.05427826C10.5663652 4.3694087 10.4103652 4.60314783 10.0472348 4.60314783 9.68723478 4.60314783 9.53123478 4.3694087 9.53123478 4.05427826M10.2241043 4.10853913L10.2241043 3.01653913C10.2241043 2.8934087 10.1703652 2.80627826 10.0472348 2.80627826 9.92723478 2.80627826 9.87349565 2.8934087 9.87349565 3.01653913L9.87349565 4.10853913C9.87349565 4.23114783 9.92723478 4.31827826 10.0472348 4.31827826 10.1703652 4.31827826 10.2241043 4.23114783 10.2241043 4.10853913M11.784 3.09130435L11.784 4.03304348C11.784 4.34504348 11.6551304 4.57930435 11.2888696 4.57930435L10.7608696 4.57930435 10.7608696 2.54504348 11.2888696 2.54504348C11.6551304 2.54504348 11.784 2.77617391 11.784 3.09130435zM11.2471304 4.30017391C11.388 4.30017391 11.4417391 4.21617391 11.4417391 4.09356522L11.4417391 3.02817391C11.4417391 2.90817391 11.388 2.82417391 11.2471304 2.82417391L11.1031304 2.82417391 11.1031304 4.30017391 11.2471304 4.30017391z"/>
    <polygon fill="#000000" points="13.165 3.682 12.835 3.682 12.835 4.579 12.493 4.579 12.493 2.545 12.835 2.545 12.835 3.406 13.165 3.406 13.165 2.545 13.51 2.545 13.51 4.579 13.165 4.579"/>
    <polygon fill="#000000" points="13.705 2.545 14.521 2.545 14.521 2.824 14.047 2.824 14.047 3.406 14.386 3.406 14.386 3.682 14.047 3.682 14.047 4.3 14.521 4.3 14.521 4.58 13.705 4.58"/>
    <path fill="#000000" d="M14.6495478,4.57930435 L15.0335478,2.54504348 L15.423287,2.54504348 L15.8104174,4.57930435 L15.459287,4.57930435 L15.3966783,4.20730435 L15.0335478,4.20730435 L14.9735478,4.57930435 L14.6495478,4.57930435 Z M15.0784174,3.93443478 L15.351287,3.93443478 L15.2166783,3.11843478 L15.2135478,3.11843478 L15.0784174,3.93443478 Z"/>
    <polygon fill="#000000" points="15.951 2.545 16.293 2.545 16.293 4.3 16.701 4.3 16.701 4.58 15.951 4.58"/>
    <polygon fill="#000000" points="16.623 2.545 17.532 2.545 17.532 2.824 17.25 2.824 17.25 4.58 16.905 4.58 16.905 2.824 16.623 2.824"/>
    <polygon fill="#000000" points="18.363 3.682 18.033 3.682 18.033 4.579 17.691 4.579 17.691 2.545 18.033 2.545 18.033 3.406 18.363 3.406 18.363 2.545 18.707 2.545 18.707 4.579 18.363 4.579"/>
    <path fill="#000000" d="M7.05093913,7.42846957 L7.43493913,5.3942087 L7.82467826,5.3942087 L8.2118087,7.42846957 L7.86067826,7.42846957 L7.79806957,7.05646957 L7.43493913,7.05646957 L7.37493913,7.42846957 L7.05093913,7.42846957 Z M7.4798087,6.7836 L7.75267826,6.7836 L7.61806957,5.9676 L7.61493913,5.9676 L7.4798087,6.7836 Z"/>
    <polygon fill="#000000" points="8.641 6.151 8.641 7.428 8.353 7.428 8.353 5.395 8.689 5.395 9.057 6.562 9.057 5.395 9.343 5.395 9.343 7.428 9.043 7.428"/>
    <path fill="#000000" d="M10.5602087,5.94046957 L10.5602087,6.8822087 C10.5602087,7.1942087 10.4313391,7.42846957 10.0650783,7.42846957 L9.53707826,7.42846957 L9.53707826,5.3942087 L10.0650783,5.3942087 C10.4313391,5.3942087 10.5602087,5.62533913 10.5602087,5.94046957 Z M10.0233391,7.14933913 C10.1642087,7.14933913 10.2179478,7.06533913 10.2179478,6.94273043 L10.2179478,5.87733913 C10.2179478,5.75733913 10.1642087,5.67333913 10.0233391,5.67333913 L9.87933913,5.67333913 L9.87933913,7.14933913 L10.0233391,7.14933913 Z"/>
    <polygon fill="#000000" points="12.008 6.171 11.816 7.428 11.495 7.428 11.221 5.395 11.552 5.395 11.711 6.684 11.713 6.684 11.884 5.395 12.164 5.395 12.352 6.684 12.356 6.684 12.512 5.395 12.8 5.395 12.536 7.428 12.212 7.428 12.011 6.171"/>
    <polygon fill="#000000" points="12.946 5.394 13.762 5.394 13.762 5.674 13.288 5.674 13.288 6.255 13.627 6.255 13.627 6.531 13.288 6.531 13.288 7.15 13.762 7.15 13.762 7.429 12.946 7.429"/>
    <polygon fill="#000000" points="13.945 5.394 14.287 5.394 14.287 7.15 14.695 7.15 14.695 7.429 13.945 7.429"/>
    <polygon fill="#000000" points="14.85 5.394 15.193 5.394 15.193 7.15 15.601 7.15 15.601 7.429 14.85 7.429"/>
    <polygon fill="#000000" points="15.555 6.621 16.036 6.621 16.036 6.346 15.555 6.346"/>
    <path fill="#000000" d="M16.2089217,5.39441739 L16.7040522,5.39441739 C17.0457913,5.39441739 17.1600522,5.55354783 17.1600522,5.84154783 L17.1600522,6.04867826 C17.1600522,6.21928696 17.0969217,6.32728696 16.9560522,6.37267826 C17.1271826,6.41128696 17.2111826,6.52554783 17.2111826,6.71128696 L17.2111826,6.98154783 C17.2111826,7.26954783 17.0817913,7.42867826 16.7400522,7.42867826 L16.2089217,7.42867826 L16.2089217,5.39441739 Z M16.5511826,6.25267826 L16.6711826,6.25267826 C16.7817913,6.25267826 16.8329217,6.19528696 16.8329217,6.08728696 L16.8329217,5.83841739 C16.8329217,5.72728696 16.7817913,5.67354783 16.6680522,5.67354783 L16.5511826,5.67354783 L16.5511826,6.25267826 Z M16.5511826,6.51354783 L16.5511826,7.14954783 L16.7009217,7.14954783 C16.8151826,7.14954783 16.8689217,7.09267826 16.8689217,6.98467826 L16.8689217,6.67841739 C16.8689217,6.57041739 16.8177913,6.51354783 16.6977913,6.51354783 L16.5511826,6.51354783 Z"/>
    <polygon fill="#000000" points="17.382 5.394 18.198 5.394 18.198 5.674 17.724 5.674 17.724 6.255 18.063 6.255 18.063 6.531 17.724 6.531 17.724 7.15 18.198 7.15 18.198 7.429 17.382 7.429"/>
    <polygon fill="#000000" points="18.38 7.429 18.722 7.429 18.722 5.394 18.38 5.394"/>
    <polygon fill="#000000" points="19.208 6.151 19.208 7.428 18.92 7.428 18.92 5.395 19.256 5.395 19.625 6.562 19.625 5.395 19.91 5.395 19.91 7.428 19.61 7.428"/>
    <path fill="#000000" d="M20.6207478,6.34252174 L21.1070087,6.34252174 L21.1070087,7.42826087 L20.8607478,7.42826087 L20.8607478,7.20652174 C20.8158783,7.3593913 20.7198783,7.45226087 20.5336174,7.45226087 C20.2398783,7.45226087 20.1047478,7.21852174 20.1047478,6.9033913 L20.1047478,5.9193913 C20.1047478,5.60165217 20.2576174,5.37052174 20.6176174,5.37052174 C20.9958783,5.37052174 21.1070087,5.58026087 21.1070087,5.88026087 L21.1070087,6.06026087 L20.7950087,6.06026087 L20.7950087,5.85365217 C20.7950087,5.7273913 20.7470087,5.6553913 20.6238783,5.6553913 C20.5007478,5.6553913 20.4470087,5.74252174 20.4470087,5.86565217 L20.4470087,6.95765217 C20.4470087,7.08026087 20.4976174,7.1673913 20.6150087,7.1673913 C20.7256174,7.1673913 20.7830087,7.10426087 20.7830087,6.97226087 L20.7830087,6.61226087 L20.6207478,6.61226087 L20.6207478,6.34252174 Z"/>
  </g>
</svg>
