<svg xmlns="http://www.w3.org/2000/svg" width="24" height="24" viewBox="0 0 24 24">
  <g fill="none" fill-rule="evenodd">
    <path fill="#000000" d="M21.5663478,15.5868 C20.931913,14.6941043 18.0607826,11.1295826 12.7150435,11.1222783 C7.36826087,11.1149739 4.48826087,14.6716696 3.85017391,15.5628 C3.82304348,15.600887 3.80008696,15.6337565 3.78078261,15.6619304 C3.79956522,15.6906261 3.82304348,15.7234957 3.85017391,15.7621043 C4.48565217,16.6542783 7.35573913,20.2188 12.7025217,20.2261043 C18.0482609,20.2334087 20.9293043,16.676713 21.5658261,15.7861043 C21.594,15.7474957 21.6169565,15.7146261 21.6352174,15.6859304 C21.6169565,15.6577565 21.594,15.624887 21.5663478,15.5868 M9.72965217,13.3699304 C9.77765217,13.2989739 9.93834783,13.0975826 9.95765217,13.0720174 C9.99886957,13.0188 10.0807826,13.0083652 10.1381739,12.9984522 C10.1950435,12.9874957 10.2706957,13.0193217 10.2795652,13.0621043 C10.2889565,13.104887 10.2571304,13.2702783 10.2294783,13.2989739 C10.1506957,13.3798435 9.94669565,13.4946261 9.834,13.4763652 C9.74686957,13.4628 9.71295652,13.3954957 9.72965217,13.3699304 M9.53817391,13.7492348 C9.54652174,13.7393217 9.55434783,13.7309739 9.55747826,13.7268 C9.62478261,13.6501043 9.75886957,13.6339304 9.85121739,13.6198435 C9.94408696,13.6041913 10.0677391,13.6511478 10.0823478,13.712713 C10.098,13.7737565 9.84965217,13.8859304 9.80426087,13.9281913 C9.6753913,14.0461043 9.474,14.2871478 9.35608696,14.3132348 C9.31747826,14.3215826 9.28565217,14.3158435 9.26008696,14.3028 C9.33782609,14.1102783 9.43017391,13.9245391 9.53817391,13.7492348 M11.5333043,17.856887 C11.4607826,18.1412348 11.3757391,18.2440174 11.3037391,18.3332348 C11.2317391,18.4240174 10.9646087,18.5398435 10.7955652,18.5268 C10.6265217,18.5142783 10.6035652,18.0619304 10.6035652,17.8297565 C10.6035652,17.7494087 10.4898261,17.9873217 10.4313913,17.5031478 C10.3938261,17.1932348 10.1945217,17.5354957 10.1804348,17.328887 C10.1668696,17.1222783 10.0672174,17.1634957 9.96286957,17.0346261 C9.85956522,16.9057565 9.72965217,17.0466261 9.58408696,17.1118435 C9.43956522,17.1754957 9.49904348,17.2094087 9.294,17.144713 C9.28826087,17.1431478 9.28565217,17.1415826 9.28095652,17.1394957 C9.0926087,16.6939304 8.98930435,16.2034957 8.99034783,15.6895826 C8.99034783,15.5638435 8.99713043,15.4401913 9.00913043,15.3181043 C9.01591304,15.3055826 9.02321739,15.2935826 9.03208696,15.2831478 C9.22930435,15.0504522 9.22513043,14.9961913 9.22513043,14.9961913 L9.44321739,14.9205391 C9.44321739,14.9205391 9.79121739,14.9748 10.0531304,15.0739304 C10.2686087,15.1553217 10.6082609,15.3389739 10.8065217,15.2586261 C10.9494783,15.1996696 11.0611304,15.1219304 11.048087,15.0024522 C11.031913,14.8532348 10.9145217,14.8177565 10.772087,14.9179304 C10.7193913,14.9549739 10.6077391,14.6930609 10.520087,14.7061043 C10.4324348,14.7191478 10.628087,15.0139304 10.554,15.0264522 C10.4793913,15.0389739 10.3296522,14.7186261 10.304087,14.6669739 C10.2790435,14.6153217 10.1632174,14.4869739 10.0593913,14.5845391 C9.83921739,14.7932348 9.48234783,14.7796696 9.41086957,14.8334087 C9.19278261,14.9961913 9.1353913,14.7791478 9.14008696,14.6471478 C9.14895652,14.616887 9.15834783,14.5866261 9.16773913,14.556887 C9.23921739,14.4786261 9.49486957,14.4525391 9.58252174,14.5114957 C9.67852174,14.5756696 9.74791304,14.4948 9.78547826,14.4561913 C9.82356522,14.4181043 9.81052174,14.3560174 9.78652174,14.304887 C9.762,14.252713 9.83452174,14.2151478 9.8846087,14.2015826 C9.93469565,14.1885391 10.1011304,14.072713 10.1673913,14.0341043 C10.2341739,13.9954957 10.5785217,13.9542783 10.7329565,14.0314957 C10.8868696,14.1097565 11.0282609,14.0461043 11.1044348,13.956887 C11.199913,13.8441913 11.3209565,13.7586261 11.3746957,13.7325391 C11.4289565,13.7069739 11.2421739,13.532713 11.0882609,13.7226261 C10.9343478,13.9114957 10.8555652,13.928713 10.7835652,13.928713 C10.7110435,13.928713 10.2811304,13.820713 10.2284348,13.6850609 C10.1762609,13.548887 10.3630435,13.4476696 10.5221739,13.3709739 C10.6807826,13.2953217 11.1148696,13.2974087 11.226,13.2723652 C11.451913,13.2228 11.7404348,13.1101043 11.8854783,13.2092348 C12.03,13.3068 11.2781739,13.476887 11.5249565,13.6104522 C11.6131304,13.6589739 12.0106957,13.3824522 12.1468696,13.3120174 C12.4672174,13.1471478 11.8364348,13.0918435 11.9188696,12.7558435 C12.0122609,12.3765391 11.1456522,12.5221043 10.7136522,12.5539304 C11.2933043,12.1834957 11.9814783,11.9685391 12.7197391,11.9695826 C14.4769565,11.9721913 15.9472174,13.1914957 16.3374783,14.828713 C16.340087,14.9095826 16.3270435,14.9680174 16.3186957,15.000887 C16.2853043,15.1349739 16.0301739,15.2502783 15.8825217,15.0337565 C15.8449565,14.9794957 15.6858261,14.8281913 15.6905217,15.0864522 C15.6952174,15.344713 15.9409565,15.3713217 15.7030435,15.5257565 C15.4646087,15.6801913 15.4213043,15.6431478 15.3112174,15.6817565 C15.2016522,15.7203652 15.0946957,15.9864522 15.1207826,16.1283652 C15.1468696,16.2708 15.486,16.6594957 15.234,16.6433217 C15.1750435,16.6386261 14.7305217,16.3339304 14.6574783,16.1382783 C14.5802609,15.932713 14.4957391,15.7313217 14.4357391,15.5758435 C14.3752174,15.4214087 14.2181739,15.3812348 14.0851304,15.4720174 C13.9526087,15.5628 14.1221739,15.6535826 14.0261739,15.8476696 C13.9312174,16.0412348 13.8628696,16.2139304 13.7230435,16.0537565 C13.359913,15.6363652 12.8313913,15.8414087 12.7494783,15.3775826 C12.7051304,15.1266261 12.4886087,15.1501043 12.308087,15.0076696 C12.126,14.8657565 12.0253043,14.7885391 11.9945217,14.8913217 C11.9673913,14.9810609 12.5626957,15.4542783 12.6049565,15.5758435 C12.668087,15.7558435 12.426,15.9139304 12.2491304,15.9561913 C12.0727826,15.9984522 11.9950435,15.8565391 11.8218261,15.6754957 C11.6486087,15.4949739 11.5729565,15.3661043 11.5609565,15.5074957 C11.5432174,15.7125391 11.7247826,16.0135826 11.9016522,16.1262783 C12.051913,16.2222783 12.2209565,16.2655826 12.171913,16.4205391 C12.1223478,16.5754957 12.1708696,16.4878435 12.0018261,16.6548 C11.8322609,16.8222783 11.799913,16.8760174 11.811913,17.1081913 C11.823913,17.340887 11.7633913,17.3539304 11.7268696,17.5469739 C11.6903478,17.7405391 11.6068696,17.5730609 11.5333043,17.856887 M15.5303478,16.3772348 C15.6555652,16.3673217 15.8433913,16.5405391 15.7698261,16.6073217 C15.6967826,16.6730609 15.5089565,16.6485391 15.4150435,16.5749739 C15.3211304,16.5019304 15.474,16.3814087 15.5303478,16.3772348 M15.3722609,16.2624522 C15.332087,16.2473217 15.2966087,16.2092348 15.2663478,16.1179304 C15.236087,16.0261043 15.3133043,15.9739304 15.3884348,16.0109739 C15.4646087,16.0501043 15.5637391,16.1643652 15.5637391,16.224887 C15.5637391,16.2859304 15.4134783,16.2786261 15.3722609,16.2624522 M13.7287826,16.2535826 C13.6552174,16.3188 13.4668696,16.2948 13.3724348,16.2212348 C13.2790435,16.1481913 13.4324348,16.0276696 13.4882609,16.0229739 C13.6134783,16.0120174 13.8018261,16.1873217 13.7287826,16.2535826 M12.2068696,16.9908 C12.1552174,17.0748 12.0143478,17.700887 11.9204348,17.6278435 C11.826,17.5548 11.9595652,16.9015826 11.9866957,16.8520174 C12.1343478,16.5822783 12.4526087,16.5958435 12.2068696,16.9908 M12.7098261,19.4194957 C12.3456522,19.4189739 11.9950435,19.3652348 11.6632174,19.2676696 C11.6152174,19.2290609 11.588087,19.1638435 11.6183478,19.0855826 C11.7341739,18.7855826 12.0774783,18.6681913 12.3482609,18.6426261 C12.9524348,18.584713 13.7454783,19.0365391 13.8717391,18.9640174 C13.9985217,18.8914957 14.2541739,18.5596696 14.6287826,18.5742783 C14.8844348,18.5841913 14.8823478,18.6274957 14.9684348,18.6598435 C14.3413043,19.136713 13.5586957,19.4205391 12.7098261,19.4194957 M15.3378261,18.3384522 C15.3007826,18.3280174 15.2621739,18.3160174 15.2209565,18.2951478 C15.018,18.1918435 15.042,18.356713 14.9418261,18.3201913 C14.8416522,18.2831478 15.0550435,18.0514957 14.7545217,18.2471478 C14.4555652,18.4422783 14.5364348,18.2163652 14.4065217,17.8850609 C14.2750435,17.5532348 14.5573043,17.1749739 14.7931304,17.0894087 C15.1166087,16.9730609 15.3174783,16.9495826 15.4693043,16.9120174 C15.9169565,16.800887 16.011913,16.5353217 16.0927826,16.6970609 C16.107913,16.7273217 16.1225217,16.7560174 16.136087,16.7831478 C16.1621739,16.8316696 16.191913,16.9297565 16.1934783,17.0262783 C16.0030435,17.5234957 15.7093043,17.9701043 15.3378261,18.3384522 M16.3604348,16.4596696 C16.2607826,16.4325391 15.8433913,15.8539304 16.1746957,15.4735826 C16.2294783,15.4114957 16.0635652,15.2268 16.1089565,15.2236696 C16.29,15.2095826 16.386,15.3217565 16.4334783,15.4840174 C16.4371304,15.5549739 16.4397391,15.6269739 16.4397391,15.6994957 C16.4392174,15.9603652 16.4115652,16.2144522 16.3604348,16.4596696"/>
    <polygon fill="#000000" points="3.527 2.478 3.52 7.342 2.702 7.341 2.707 3.618 2.7 3.618 2.126 4.213 2.118 4.213 2.119 3.359 2.873 2.477"/>
    <path fill="#000000" d="M6.22226087 3.53676522L6.22173913 3.95989565C6.22121739 4.36841739 5.99843478 4.64076522 5.6613913 4.74824348 6.06991304 4.84215652 6.26295652 5.12911304 6.26243478 5.57363478L6.2613913 6.29154783C6.26086957 6.96563478 5.9013913 7.40285217 5.07652174 7.4018087 4.24434783 7.40024348 3.9506087 6.92650435 3.95165217 6.18772174L3.95217391 5.54911304 4.69878261 5.55015652 4.69773913 6.24615652C4.69773913 6.53311304 4.7973913 6.71937391 5.07756522 6.71989565 5.328 6.72041739 5.44278261 6.54146087 5.44330435 6.28267826L5.44434783 5.47972174C5.44486957 5.22093913 5.33008696 5.08476522 5.04365217 5.08476522L4.69930435 5.08424348 4.70034783 4.45972174 5.00869565 4.46024348C5.27426087 4.46076522 5.44591304 4.3245913 5.44643478 4.06633043L5.44695652 3.54250435C5.44747826 3.27746087 5.3546087 3.10528696 5.09686957 3.10476522 4.8386087 3.10424348 4.74521739 3.27641739 4.74469565 3.57746087L4.74365217 4.0725913 3.99756522 4.07154783 3.99808696 3.64111304C3.99913043 2.92372174 4.29391304 2.4218087 5.14017391 2.42337391 5.89408696 2.42441739 6.22330435 2.84806957 6.22226087 3.53676522M7.92286957 3.97194783L7.92443478 2.98794783C7.92443478 2.6702087 8.07521739 2.43907826 8.43521739 2.4396 8.81295652 2.44012174 8.91782609 2.65038261 8.91730435 2.95038261L8.91678261 3.19038261 8.60478261 3.18986087 8.60530435 2.92273043C8.60530435 2.7969913 8.56356522 2.7249913 8.44043478 2.72446957 8.31782609 2.72446957 8.26669565 2.8116 8.26617391 2.93473043L8.2646087 4.0262087C8.2646087 4.14933913 8.31573913 4.23646957 8.43834783 4.23646957 8.56147826 4.2369913 8.60373913 4.15873043 8.60373913 4.03873043L8.60426087 3.6636 8.91626087 3.66412174 8.91573913 4.01525217C8.91521739 4.30638261 8.79521739 4.52238261 8.43208696 4.52186087 8.07208696 4.52133913 7.92234783 4.28707826 7.92286957 3.97194783"/>
    <polygon fill="#000000" points="9.104 2.464 9.446 2.465 9.443 4.22 9.851 4.221 9.851 4.5 9.101 4.499"/>
    <polygon fill="#000000" points="10.349 4.5 10.006 4.5 10.009 2.466 10.352 2.466"/>
    <polygon fill="#000000" points="11.49 3.182 11.481 3.182 11.249 4.501 11.09 4.501 10.836 3.181 10.83 3.181 10.829 4.501 10.546 4.501 10.549 2.466 10.948 2.467 11.169 3.613 11.171 3.613 11.371 2.468 11.803 2.468 11.801 4.502 11.489 4.502"/>
    <path fill="#000000" d="M11.9410435,4.50245217 L12.3276522,2.46871304 L12.717913,2.46923478 L13.101913,4.50401739 L12.7507826,4.50349565 L12.6886957,4.13149565 L12.3255652,4.13097391 L12.2650435,4.50297391 L11.9410435,4.50245217 Z M12.3709565,3.85810435 L12.6438261,3.85862609 L12.5097391,3.04210435 L12.5071304,3.04210435 L12.3709565,3.85810435 Z"/>
    <polygon fill="#000000" points="13.056 2.47 13.965 2.471 13.965 2.75 13.683 2.75 13.68 4.505 13.336 4.504 13.338 2.75 13.056 2.749"/>
    <polygon fill="#000000" points="14.124 2.471 14.94 2.472 14.94 2.752 14.466 2.751 14.465 3.333 14.804 3.333 14.803 3.609 14.465 3.609 14.464 4.227 14.937 4.228 14.937 4.507 14.121 4.506"/>
    <path fill="#000000" d="M7.86433043 7.3461913L8.25093913 5.31297391 8.6412 5.31349565 9.0252 7.34775652 8.67406957 7.34723478 8.61198261 6.97523478 8.24885217 6.97471304 8.18833043 7.34671304 7.86433043 7.3461913zM8.29424348 6.70184348L8.56711304 6.70236522 8.43302609 5.88584348 8.43041739 5.88584348 8.29424348 6.70184348zM9.12166957 6.82293913L9.12323478 5.83893913C9.12323478 5.5212 9.27401739 5.29006957 9.63401739 5.2905913 10.0117565 5.29111304 10.1166261 5.50137391 10.1161043 5.80137391L10.1155826 6.04137391 9.80358261 6.04085217 9.80410435 5.77372174C9.80410435 5.64798261 9.76236522 5.57598261 9.63923478 5.57546087 9.51662609 5.57546087 9.46549565 5.6625913 9.46497391 5.78572174L9.4634087 6.8772C9.4634087 7.00033043 9.51453913 7.08746087 9.63714783 7.08746087 9.76027826 7.08798261 9.80253913 7.00972174 9.80253913 6.88972174L9.80306087 6.51511304 10.1150609 6.51511304 10.1145391 6.86624348C10.1140174 7.15737391 9.99401739 7.37337391 9.63088696 7.37285217 9.27088696 7.37233043 9.12114783 7.13806957 9.12166957 6.82293913"/>
    <polygon fill="#000000" points="10.233 5.315 11.142 5.316 11.142 5.596 10.86 5.596 10.857 7.35 10.513 7.35 10.515 5.595 10.233 5.595"/>
    <polygon fill="#000000" points="11.64 7.351 11.298 7.351 11.301 5.317 11.643 5.317"/>
    <path fill="#000000" d="M11.8389391,6.82664348 L11.8405043,5.84264348 C11.8405043,5.52490435 11.9970261,5.29377391 12.3570261,5.29429565 C12.7201565,5.29481739 12.8756348,5.52594783 12.875113,5.8442087 L12.8740696,6.8282087 C12.8735478,7.14281739 12.7170261,7.37707826 12.3544174,7.37655652 C11.9944174,7.37603478 11.8384174,7.14177391 11.8389391,6.82664348 M12.5318087,6.88142609 L12.5333739,5.78942609 C12.5333739,5.66681739 12.4796348,5.57968696 12.3565043,5.57916522 C12.2365043,5.57916522 12.1827652,5.66629565 12.1822435,5.78890435 L12.1806783,6.88090435 C12.1806783,7.00403478 12.2344174,7.09116522 12.3544174,7.09116522 C12.4775478,7.09168696 12.5318087,7.00455652 12.5318087,6.88142609"/>
    <polygon fill="#000000" points="13.358 6.076 13.356 7.354 13.068 7.354 13.071 5.319 13.407 5.32 13.774 6.487 13.775 5.32 14.061 5.321 14.058 7.355 13.758 7.354"/>
  </g>
</svg>
