<svg xmlns="http://www.w3.org/2000/svg" width="24" height="24" viewBox="0 0 24 24">
  <g fill="none" fill-rule="evenodd">
    <path fill="#000000" d="M17.6538261 16.3282435L14.7853043 14.6727652 14.7853043 11.3607652C14.7853043 11.2908522 14.7477391 11.2261565 14.6872174 11.1912L11.7216522 9.47885217C11.6606087 9.44389565 11.5865217 9.44389565 11.526 9.47885217L8.5593913 11.1912C8.49886957 11.2261565 8.46182609 11.2908522 8.46182609 11.3607652L8.46182609 14.6727652 5.59330435 16.3282435C5.53278261 16.3632 5.49573913 16.4278957 5.49573913 16.4978087L5.49573913 19.9230261C5.49573913 19.9929391 5.53278261 20.0576348 5.59330435 20.0925913L8.5593913 21.8049391C8.59017391 21.8221565 8.62356522 21.8310261 8.65747826 21.8310261 8.6913913 21.8310261 8.72478261 21.8221565 8.75504348 21.8049391L11.6235652 20.1489391 14.4915652 21.8049391C14.5218261 21.8221565 14.5557391 21.8310261 14.5896522 21.8310261 14.6230435 21.8310261 14.6569565 21.8221565 14.6872174 21.8049391L17.6538261 20.0925913C17.7143478 20.0576348 17.7513913 19.9929391 17.7513913 19.9230261L17.7513913 16.4978087C17.7513913 16.4278957 17.7143478 16.3632 17.6538261 16.3282435zM11.427913 19.5844174L9.04878261 18.2106783 11.427913 16.8369391 11.427913 19.5844174zM14.1978261 14.7854609L11.8192174 16.1586783 11.8192174 13.4117217 14.1978261 14.7854609zM11.427913 16.1586783L9.04878261 14.7854609 11.427913 13.4117217 11.427913 16.1586783zM12.0148696 16.4978087L14.5896522 15.0118957 17.1644348 16.4978087 14.5896522 17.9847652 12.0148696 16.4978087zM14.394 14.4468522L12.0148696 13.073113 14.394 11.6993739 14.394 14.4468522zM11.2322609 13.073113L8.85313043 14.4468522 8.85313043 11.6993739 11.2322609 13.073113zM8.46182609 21.2962435L5.88704348 19.8103304 5.88704348 16.8369391 8.46182609 18.3233739 8.46182609 21.2962435zM8.85313043 21.2962435L8.85313043 18.549287 11.2322609 19.9230261 8.85313043 21.2962435zM17.360087 19.8103304L14.7853043 21.2962435 14.7853043 18.3233739 17.360087 16.8369391 17.360087 19.8103304zM3.84318261 3.71332174C3.84318261 2.95993043 3.51292174 2.41523478 2.65205217 2.41523478 1.78387826 2.41523478 1.44735652 2.88793043 1.44735652 3.64132174L1.44735652 4.35871304C1.44735652 5.15488696 1.76248696 5.55662609 2.3510087 5.55662609 2.69535652 5.55662609 2.90353043 5.39853913 3.02509565 5.1621913L3.0324 5.1621913 3.0324 6.20932174C3.0324 6.50358261 2.91761739 6.71175652 2.62335652 6.71175652 2.32961739 6.71175652 2.22161739 6.53906087 2.22161739 6.23801739L2.22161739 5.91558261 1.47553043 5.91558261 1.47553043 6.17384348C1.47553043 6.89071304 1.73431304 7.39314783 2.63796522 7.39314783 3.49831304 7.39314783 3.84318261 6.84062609 3.84318261 6.08045217L3.84318261 3.71332174zM3.0324 4.4594087C3.0177913 4.73175652 2.90353043 4.90393043 2.64526957 4.90393043 2.36561739 4.90393043 2.25761739 4.73175652 2.25761739 4.41610435L2.25761739 3.56984348C2.25761739 3.26097391 2.3724 3.08201739 2.65205217 3.08201739 2.92492174 3.08201739 3.0324 3.26827826 3.0324 3.56984348L3.0324 4.4594087z"/>
    <polygon fill="#000000" points="5.24 4.528 5.583 4.528 5.583 2.494 5.24 2.494"/>
    <polygon fill="#000000" points="5.981 3.25 5.981 4.527 5.693 4.527 5.693 2.494 6.029 2.494 6.398 3.66 6.398 2.494 6.684 2.494 6.684 4.527 6.384 4.527"/>
    <path fill="#000000" d="M7.81398261 3.03965217L7.81398261 3.9813913C7.81398261 4.2933913 7.68511304 4.52765217 7.31885217 4.52765217L6.79085217 4.52765217 6.79085217 2.4933913 7.31885217 2.4933913C7.68511304 2.4933913 7.81398261 2.72452174 7.81398261 3.03965217zM7.27711304 4.24852174C7.41798261 4.24852174 7.47172174 4.16452174 7.47172174 4.0413913L7.47172174 2.97652174C7.47172174 2.85652174 7.41798261 2.77252174 7.27711304 2.77252174L7.13311304 2.77252174 7.13311304 4.24852174 7.27711304 4.24852174zM8.91474783 2.4936L8.91474783 4.03273043C8.91474783 4.34786087 8.77961739 4.55133913 8.43161739 4.55133913 8.07161739 4.55133913 7.92187826 4.34786087 7.92187826 4.03273043L7.92187826 2.4936 8.26361739 2.4936 8.26361739 4.0656C8.26361739 4.1856 8.31161739 4.26646957 8.43161739 4.26646957 8.55161739 4.26646957 8.59961739 4.1856 8.59961739 4.0656L8.59961739 2.4936 8.91474783 2.4936zM9.00433043 4.0896L9.00433043 3.81673043 9.32206957 3.81673043 9.32206957 4.09533913C9.32206957 4.2096 9.3732 4.27586087 9.49006957 4.27586087 9.59806957 4.27586087 9.64606957 4.20386087 9.64606957 4.09533913L9.64606957 4.0176C9.64606957 3.90073043 9.59806957 3.82873043 9.4932 3.7296L9.29233043 3.52873043C9.0972 3.33673043 9.00746087 3.21986087 9.00746087 2.9856L9.00746087 2.91673043C9.00746087 2.66473043 9.15406957 2.4696 9.48746087 2.4696 9.8292 2.4696 9.96433043 2.6376 9.96433043 2.93186087L9.96433043 3.09673043 9.65233043 3.09673043 9.65233043 2.91986087C9.65233043 2.80246957 9.59806957 2.7456 9.49006957 2.7456 9.39406957 2.7456 9.32833043 2.79986087 9.32833043 2.9136L9.32833043 2.95586087C9.32833043 3.0696 9.39146087 3.13586087 9.49006957 3.23186087L9.7092 3.44786087C9.89546087 3.63673043 9.9852 3.75046957 9.9852 3.97533913L9.9852 4.07446957C9.9852 4.3536 9.83546087 4.55133913 9.48746087 4.55133913 9.13946087 4.55133913 9.00433043 4.35673043 9.00433043 4.0896"/>
    <polygon fill="#000000" points="9.994 2.494 10.903 2.494 10.903 2.773 10.621 2.773 10.621 4.527 10.276 4.527 10.276 2.773 9.994 2.773"/>
    <path fill="#000000" d="M11.3168348,3.59462609 L11.3168348,4.52749565 L10.9745739,4.52749565 L10.9745739,2.49375652 L11.4728348,2.49375652 C11.8177043,2.49375652 11.9439652,2.66488696 11.9439652,2.94975652 L11.9439652,3.21062609 C11.9439652,3.42975652 11.8657043,3.55862609 11.6705739,3.60349565 L11.9977043,4.52749565 L11.6377043,4.52749565 L11.3168348,3.59462609 Z M11.3168348,2.77288696 L11.3168348,3.40575652 L11.4305739,3.40575652 C11.5479652,3.40575652 11.5985739,3.34575652 11.5985739,3.23775652 L11.5985739,2.93775652 C11.5985739,2.82662609 11.5479652,2.77288696 11.4305739,2.77288696 L11.3168348,2.77288696 Z"/>
    <polygon fill="#000000" points="12.664 3.754 12.664 4.527 12.321 4.527 12.321 3.754 11.94 2.494 12.297 2.494 12.504 3.265 12.508 3.265 12.715 2.494 13.041 2.494"/>
    <polygon fill="#000000" points="12.924 4.201 12.882 4.686 13.074 4.686 13.248 4.228 13.248 4.201"/>
    <polygon fill="#000000" points="13.584 4.528 13.926 4.528 13.926 2.494 13.584 2.494"/>
    <polygon fill="#000000" points="14.325 3.25 14.325 4.527 14.037 4.527 14.037 2.494 14.373 2.494 14.742 3.66 14.742 2.494 15.027 2.494 15.027 4.527 14.727 4.527"/>
    <polygon fill="#000000" points="15.423 3.25 15.423 4.527 15.135 4.527 15.135 2.494 15.471 2.494 15.839 3.66 15.839 2.494 16.125 2.494 16.125 4.527 15.825 4.527"/>
    <path fill="#000000" d="M16.2322435,4.00252174 L16.2322435,3.01852174 C16.2322435,2.70078261 16.3882435,2.46965217 16.7482435,2.46965217 C17.1113739,2.46965217 17.2673739,2.70078261 17.2673739,3.01852174 L17.2673739,4.00252174 C17.2673739,4.31765217 17.1113739,4.5513913 16.7482435,4.5513913 C16.3882435,4.5513913 16.2322435,4.31765217 16.2322435,4.00252174 M16.925113,4.05678261 L16.925113,2.96478261 C16.925113,2.84165217 16.8713739,2.75452174 16.7482435,2.75452174 C16.6282435,2.75452174 16.5745043,2.84165217 16.5745043,2.96478261 L16.5745043,4.05678261 C16.5745043,4.17991304 16.6282435,4.26652174 16.7482435,4.26652174 C16.8713739,4.26652174 16.925113,4.17991304 16.925113,4.05678261"/>
    <polygon fill="#000000" points="18.41 2.494 18.023 4.527 17.651 4.527 17.264 2.494 17.612 2.494 17.846 3.913 17.849 3.913 18.089 2.494"/>
    <path fill="#000000" d="M18.2297739,4.52754783 L18.6137739,2.4938087 L19.003513,2.4938087 L19.3906435,4.52754783 L19.039513,4.52754783 L18.9769043,4.15554783 L18.6137739,4.15554783 L18.5537739,4.52754783 L18.2297739,4.52754783 Z M18.6586435,3.88267826 L18.931513,3.88267826 L18.7969043,3.06667826 L18.7937739,3.06667826 L18.6586435,3.88267826 Z"/>
    <polygon fill="#000000" points="19.256 2.494 20.164 2.494 20.164 2.773 19.883 2.773 19.883 4.527 19.538 4.527 19.538 2.773 19.256 2.773"/>
    <polygon fill="#000000" points="20.236 4.528 20.578 4.528 20.578 2.494 20.236 2.494"/>
    <path fill="#000000" d="M20.6891478,4.00252174 L20.6891478,3.01852174 C20.6891478,2.70078261 20.8451478,2.46965217 21.2051478,2.46965217 C21.5682783,2.46965217 21.7242783,2.70078261 21.7242783,3.01852174 L21.7242783,4.00252174 C21.7242783,4.31765217 21.5682783,4.5513913 21.2051478,4.5513913 C20.8451478,4.5513913 20.6891478,4.31765217 20.6891478,4.00252174 M21.3820174,4.05678261 L21.3820174,2.96478261 C21.3820174,2.84165217 21.3282783,2.75452174 21.2051478,2.75452174 C21.0851478,2.75452174 21.0314087,2.84165217 21.0314087,2.96478261 L21.0314087,4.05678261 C21.0314087,4.17991304 21.0851478,4.26652174 21.2051478,4.26652174 C21.3282783,4.26652174 21.3820174,4.17991304 21.3820174,4.05678261"/>
    <polygon fill="#000000" points="22.12 3.25 22.12 4.527 21.832 4.527 21.832 2.494 22.168 2.494 22.537 3.66 22.537 2.494 22.822 2.494 22.822 4.527 22.522 4.527"/>
    <path fill="#000000" d="M5.18645217,7.37671304 L5.57045217,5.34245217 L5.9601913,5.34245217 L6.34732174,7.37671304 L5.9961913,7.37671304 L5.93358261,7.00471304 L5.57045217,7.00471304 L5.51045217,7.37671304 L5.18645217,7.37671304 Z M5.61532174,6.73184348 L5.8881913,6.73184348 L5.75358261,5.91584348 L5.75045217,5.91584348 L5.61532174,6.73184348 Z"/>
    <polygon fill="#000000" points="6.689 6.099 6.689 7.377 6.401 7.377 6.401 5.343 6.737 5.343 7.106 6.51 7.106 5.343 7.391 5.343 7.391 7.377 7.091 7.377"/>
    <path fill="#000000" d="M8.52172174,5.88871304 L8.52172174,6.83045217 C8.52172174,7.14245217 8.39285217,7.37671304 8.0265913,7.37671304 L7.4985913,7.37671304 L7.4985913,5.34245217 L8.0265913,5.34245217 C8.39285217,5.34245217 8.52172174,5.57358261 8.52172174,5.88871304 Z M7.98485217,7.09810435 C8.12572174,7.09810435 8.17998261,7.01358261 8.17998261,6.89097391 L8.17998261,5.82610435 C8.17998261,5.70610435 8.12572174,5.62158261 7.98485217,5.62158261 L7.84085217,5.62158261 L7.84085217,7.09810435 L7.98485217,7.09810435 Z"/>
    <polygon fill="#000000" points="9.057 7.377 9.399 7.377 9.399 5.343 9.057 5.343"/>
    <polygon fill="#000000" points="9.798 6.099 9.798 7.377 9.51 7.377 9.51 5.343 9.846 5.343 10.215 6.51 10.215 5.343 10.5 5.343 10.5 7.377 10.2 7.377"/>
    <polygon fill="#000000" points="10.608 5.343 11.408 5.343 11.408 5.622 10.95 5.622 10.95 6.204 11.292 6.204 11.292 6.48 10.95 6.48 10.95 7.377 10.608 7.377"/>
    <path fill="#000000" d="M11.8133217,6.44368696 L11.8133217,7.37655652 L11.4710609,7.37655652 L11.4710609,5.34281739 L11.9693217,5.34281739 C12.3141913,5.34281739 12.4404522,5.51394783 12.4404522,5.79881739 L12.4404522,6.05968696 C12.4404522,6.27881739 12.3621913,6.40768696 12.1670609,6.45255652 L12.4941913,7.37655652 L12.1341913,7.37655652 L11.8133217,6.44368696 Z M11.8133217,5.62194783 L11.8133217,6.25481739 L11.9270609,6.25481739 C12.0444522,6.25481739 12.0950609,6.19481739 12.0950609,6.08681739 L12.0950609,5.78681739 C12.0950609,5.67568696 12.0444522,5.62194783 11.9270609,5.62194783 L11.8133217,5.62194783 Z"/>
    <path fill="#000000" d="M12.485113 7.37671304L12.869113 5.34245217 13.2588522 5.34245217 13.6459826 7.37671304 13.2948522 7.37671304 13.2322435 7.00471304 12.869113 7.00471304 12.809113 7.37671304 12.485113 7.37671304zM12.9139826 6.73184348L13.1868522 6.73184348 13.0522435 5.91584348 13.049113 5.91584348 12.9139826 6.73184348zM13.6517217 6.93876522L13.6517217 6.66589565 13.9694609 6.66589565 13.9694609 6.94450435C13.9694609 7.05876522 14.0205913 7.12502609 14.1374609 7.12502609 14.2454609 7.12502609 14.2934609 7.05302609 14.2934609 6.94450435L14.2934609 6.86676522C14.2934609 6.74989565 14.2454609 6.67789565 14.1405913 6.57876522L13.9397217 6.37789565C13.7445913 6.18589565 13.6548522 6.06902609 13.6548522 5.83476522L13.6548522 5.76589565C13.6548522 5.51389565 13.8014609 5.31876522 14.1348522 5.31876522 14.4765913 5.31876522 14.6117217 5.48676522 14.6117217 5.78102609L14.6117217 5.94589565 14.2997217 5.94589565 14.2997217 5.76850435C14.2997217 5.65163478 14.2454609 5.59476522 14.1374609 5.59476522 14.0414609 5.59476522 13.9757217 5.64850435 13.9757217 5.76276522L13.9757217 5.80502609C13.9757217 5.91876522 14.0388522 5.98450435 14.1374609 6.08050435L14.3565913 6.29650435C14.5428522 6.48589565 14.6325913 6.59963478 14.6325913 6.82450435L14.6325913 6.92363478C14.6325913 7.20276522 14.4828522 7.40050435 14.1348522 7.40050435 13.7868522 7.40050435 13.6517217 7.20589565 13.6517217 6.93876522"/>
    <polygon fill="#000000" points="14.641 5.343 15.55 5.343 15.55 5.622 15.269 5.622 15.269 7.377 14.923 7.377 14.923 5.622 14.641 5.622"/>
    <path fill="#000000" d="M15.9642261 6.44368696L15.9642261 7.37655652 15.6219652 7.37655652 15.6219652 5.34281739 16.1202261 5.34281739C16.4650957 5.34281739 16.5913565 5.51394783 16.5913565 5.79881739L16.5913565 6.05968696C16.5913565 6.27881739 16.5130957 6.40768696 16.3179652 6.45255652L16.6450957 7.37655652 16.2850957 7.37655652 15.9642261 6.44368696zM15.9642261 5.62194783L15.9642261 6.25481739 16.0779652 6.25481739C16.1953565 6.25481739 16.2459652 6.19481739 16.2459652 6.08681739L16.2459652 5.78681739C16.2459652 5.67568696 16.1953565 5.62194783 16.0779652 5.62194783L15.9642261 5.62194783zM17.6828348 5.34271304L17.6828348 6.88184348C17.6828348 7.19697391 17.5477043 7.40097391 17.1997043 7.40097391 16.8397043 7.40097391 16.6899652 7.19697391 16.6899652 6.88184348L16.6899652 5.34271304 17.0317043 5.34271304 17.0317043 6.91471304C17.0317043 7.03471304 17.0797043 7.11558261 17.1997043 7.11558261 17.3197043 7.11558261 17.3677043 7.03471304 17.3677043 6.91471304L17.3677043 5.34271304 17.6828348 5.34271304zM17.7905217 6.85168696L17.7905217 5.86768696C17.7905217 5.54994783 17.9407826 5.31881739 18.3007826 5.31881739 18.6785217 5.31881739 18.7833913 5.52855652 18.7833913 5.82907826L18.7833913 6.06907826 18.4713913 6.06907826 18.4713913 5.80194783C18.4713913 5.67568696 18.4296522 5.60368696 18.3065217 5.60368696 18.1833913 5.60368696 18.1327826 5.69081739 18.1327826 5.81394783L18.1327826 6.90594783C18.1327826 7.02855652 18.1833913 7.11568696 18.3065217 7.11568696 18.4296522 7.11568696 18.4713913 7.03794783 18.4713913 6.91794783L18.4713913 6.54281739 18.7833913 6.54281739 18.7833913 6.89394783C18.7833913 7.18455652 18.6633913 7.40055652 18.3007826 7.40055652 17.9407826 7.40055652 17.7905217 7.16681739 17.7905217 6.85168696"/>
    <polygon fill="#000000" points="18.813 5.343 19.722 5.343 19.722 5.622 19.44 5.622 19.44 7.377 19.096 7.377 19.096 5.622 18.813 5.622"/>
    <path fill="#000000" d="M20.7869739 5.34271304L20.7869739 6.88184348C20.7869739 7.19697391 20.6518435 7.40097391 20.3038435 7.40097391 19.9438435 7.40097391 19.7941043 7.19697391 19.7941043 6.88184348L19.7941043 5.34271304 20.1358435 5.34271304 20.1358435 6.91471304C20.1358435 7.03471304 20.1838435 7.11558261 20.3038435 7.11558261 20.4238435 7.11558261 20.4718435 7.03471304 20.4718435 6.91471304L20.4718435 5.34271304 20.7869739 5.34271304zM21.2365565 6.44368696L21.2365565 7.37655652 20.8942957 7.37655652 20.8942957 5.34281739 21.3925565 5.34281739C21.7374261 5.34281739 21.863687 5.51394783 21.863687 5.79881739L21.863687 6.05968696C21.863687 6.27881739 21.7854261 6.40768696 21.5902957 6.45255652L21.9174261 7.37655652 21.5574261 7.37655652 21.2365565 6.44368696zM21.2365565 5.62194783L21.2365565 6.25481739 21.3508174 6.25481739C21.467687 6.25481739 21.5182957 6.19481739 21.5182957 6.08681739L21.5182957 5.78681739C21.5182957 5.67568696 21.467687 5.62194783 21.3508174 5.62194783L21.2365565 5.62194783z"/>
    <polygon fill="#000000" points="21.962 5.343 22.778 5.343 22.778 5.622 22.305 5.622 22.305 6.204 22.643 6.204 22.643 6.48 22.305 6.48 22.305 7.098 22.778 7.098 22.778 7.377 21.962 7.377"/>
  </g>
</svg>
