<svg xmlns="http://www.w3.org/2000/svg" width="24" height="24" viewBox="0 0 24 24">
  <g fill="none" fill-rule="evenodd">
    <path fill="#000000" d="M16.4337913 10.2369391C16.4134435 10.2145043 16.3857913 10.2025043 16.3550087 10.2025043L7.64405217 10.2025043C7.6137913 10.2025043 7.58613913 10.2145043 7.5657913 10.2369391 7.54648696 10.2614609 7.53918261 10.2912 7.54387826 10.3193739L9.00735652 19.1706783C9.01570435 19.2197217 9.05848696 19.2562435 9.10753043 19.2562435L10.9038783 19.2562435 11.0270087 20.6978087 10.2710087 20.6988522 12.0297913 22.457113 13.7927478 20.6946783 13.0372696 20.6952 13.1598783 19.2562435 14.9875304 19.2562435C15.0381391 19.2562435 15.0804 19.2197217 15.0877043 19.169113L16.4567478 10.3193739C16.4614435 10.289113 16.4525739 10.2598957 16.4337913 10.2369391zM13.0670087 17.3232C13.0670087 17.3232 12.6715304 17.7296348 12.0277043 17.6858087 11.382313 17.7296348 10.9868348 17.3232 10.9868348 17.3232 10.3346609 16.6710261 10.5673565 15.8602435 10.794313 15.4407652 10.9346609 15.1783304 11.9374435 13.6725913 12.0235304 13.5442435L12.0235304 13.5343304C12.0235304 13.5343304 12.0250957 13.5364174 12.0277043 13.5390261L12.0313565 13.5343304 12.0313565 13.5442435C12.1148348 13.6725913 13.1191826 15.1783304 13.2595304 15.4407652 13.4870087 15.8602435 13.7191826 16.6710261 13.0670087 17.3232zM15.8306609 12.0990261C15.594313 11.9952 15.2948348 12.0327652 15.0078783 12.149113 13.9268348 12.5873739 13.1911826 12.7449391 12.054313 12.3885913 11.338487 12.1647652 10.6685739 11.6952 9.87657391 11.981113 9.35118261 12.1699826 8.8617913 12.3505043 8.26753043 12.3458087L7.92474783 10.5865043 16.0769217 10.5865043 15.8306609 12.0990261zM3.63923478 7.44506087C4.50323478 7.44506087 4.83871304 6.9734087 4.83871304 6.22366957L4.83871304 5.5094087C4.83871304 4.71688696 4.52462609 4.31723478 3.93871304 4.31723478 3.59593043 4.31723478 3.38932174 4.47427826 3.26775652 4.71010435L3.26045217 4.71010435 3.26045217 3.66766957C3.26045217 3.37445217 3.35332174 3.16732174 3.64601739 3.16732174 3.93871304 3.16732174 4.0248 3.33897391 4.0248 3.63897391L4.0248 3.96036522 4.76723478 3.96036522 4.76723478 3.70314783C4.76723478 2.98888696 4.5314087 2.48906087 3.63193043 2.48906087 2.77523478 2.48906087 2.45384348 3.03897391 2.45384348 3.79601739L2.45384348 6.1521913C2.45384348 6.90245217 2.78201739 7.44506087 3.63923478 7.44506087zM3.26045217 5.40975652C3.27506087 5.13845217 3.38932174 4.9668 3.64601739 4.9668 3.92462609 4.9668 4.03158261 5.13845217 4.03158261 5.45253913L4.03158261 6.29514783C4.03158261 6.60245217 3.91784348 6.78088696 3.63923478 6.78088696 3.3674087 6.78088696 3.26045217 6.59514783 3.26045217 6.29514783L3.26045217 5.40975652zM6.9729913 4.09695652L6.9729913 3.11765217C6.9729913 2.80147826 7.1222087 2.5713913 7.48012174 2.5713913 7.85629565 2.5713913 7.96116522 2.7806087 7.96116522 3.07904348L7.96116522 3.318 7.65073043 3.318 7.65073043 3.05243478C7.65073043 2.92669565 7.6089913 2.85521739 7.48638261 2.85521739 7.36377391 2.85521739 7.31316522 2.94182609 7.31316522 3.06443478L7.31316522 4.15069565C7.31316522 4.27330435 7.36377391 4.3593913 7.48638261 4.3593913 7.6089913 4.3593913 7.65073043 4.28217391 7.65073043 4.16269565L7.65073043 3.78965217 7.96116522 3.78965217 7.96116522 4.13869565C7.96116522 4.42826087 7.84168696 4.64321739 7.48012174 4.64321739 7.1222087 4.64321739 6.9729913 4.41052174 6.9729913 4.09695652"/>
    <polygon fill="#000000" points="8.146 2.595 8.486 2.595 8.486 4.342 8.892 4.342 8.892 4.619 8.146 4.619"/>
    <polygon fill="#000000" points="9.047 2.595 9.859 2.595 9.859 2.873 9.387 2.873 9.387 3.452 9.725 3.452 9.725 3.727 9.387 3.727 9.387 4.342 9.859 4.342 9.859 4.619 9.047 4.619"/>
    <path fill="#000000" d="M9.98707826,4.61932174 L10.3689913,2.59549565 L10.7571652,2.59549565 L11.1422087,4.61932174 L10.7931652,4.61932174 L10.7305565,4.2494087 L10.3689913,4.2494087 L10.3089913,4.61932174 L9.98707826,4.61932174 Z M10.4138609,3.97758261 L10.685687,3.97758261 L10.5510783,3.16575652 L10.5479478,3.16575652 L10.4138609,3.97758261 Z"/>
    <polygon fill="#000000" points="11.569 3.348 11.569 4.619 11.282 4.619 11.282 2.595 11.617 2.595 11.984 3.757 11.984 2.595 12.267 2.595 12.267 4.619 11.969 4.619"/>
    <polygon fill="#000000" points="13.509 3.369 13.318 4.619 12.998 4.619 12.727 2.595 13.055 2.595 13.213 3.879 13.216 3.879 13.387 2.595 13.664 2.595 13.852 3.879 13.855 3.879 14.01 2.595 14.297 2.595 14.034 4.619 13.712 4.619 13.512 3.369"/>
    <path fill="#000000" d="M14.269513,4.61932174 L14.6514261,2.59549565 L15.0396,2.59549565 L15.4246435,4.61932174 L15.0756,4.61932174 L15.0129913,4.2494087 L14.6514261,4.2494087 L14.5919478,4.61932174 L14.269513,4.61932174 Z M14.6962957,3.97758261 L14.9676,3.97758261 L14.833513,3.16575652 L14.8303826,3.16575652 L14.6962957,3.97758261 Z"/>
    <polygon fill="#000000" points="15.377 2.595 16.281 2.595 16.281 2.873 16.001 2.873 16.001 4.619 15.657 4.619 15.657 2.873 15.377 2.873"/>
    <polygon fill="#000000" points="16.439 2.595 17.251 2.595 17.251 2.873 16.779 2.873 16.779 3.452 17.116 3.452 17.116 3.727 16.779 3.727 16.779 4.342 17.251 4.342 17.251 4.619 16.439 4.619"/>
    <path fill="#000000" d="M17.7730957 3.6909913L17.7730957 4.61916522 17.4329217 4.61916522 17.4329217 2.59533913 17.9285739 2.59533913C18.2713565 2.59533913 18.3970957 2.76542609 18.3970957 3.04925217L18.3970957 3.30907826C18.3970957 3.52664348 18.3193565 3.6549913 18.1252696 3.69986087L18.4508348 4.61916522 18.0924 4.61916522 17.7730957 3.6909913zM17.7730957 2.87342609L17.7730957 3.50316522 17.886313 3.50316522C18.0026609 3.50316522 18.0537913 3.44316522 18.0537913 3.33568696L18.0537913 3.03725217C18.0537913 2.92664348 18.0026609 2.87342609 17.886313 2.87342609L17.7730957 2.87342609zM6.9192 7.45424348L7.30111304 5.43041739 7.68928696 5.43041739 8.07433043 7.45424348 7.72528696 7.45424348 7.66267826 7.08433043 7.30111304 7.08433043 7.24163478 7.45424348 6.9192 7.45424348zM7.34598261 6.81250435L7.6178087 6.81250435 7.48372174 6.00067826 7.48006957 6.00067826 7.34598261 6.81250435z"/>
    <polygon fill="#000000" points="8.501 6.183 8.501 7.454 8.215 7.454 8.215 5.43 8.549 5.43 8.916 6.592 8.916 5.43 9.2 5.43 9.2 7.454 8.901 7.454"/>
    <path fill="#000000" d="M10.4112 5.97365217L10.4112 6.91069565C10.4112 7.22113043 10.2828522 7.45434783 9.91867826 7.45434783L9.39328696 7.45434783 9.39328696 5.43052174 9.91867826 5.43052174C10.2828522 5.43052174 10.4112 5.66008696 10.4112 5.97365217zM9.87693913 7.17678261C10.0167652 7.17678261 10.0710261 7.09330435 10.0710261 6.97069565L10.0710261 5.91104348C10.0710261 5.79156522 10.0167652 5.70808696 9.87693913 5.70808696L9.73346087 5.70808696 9.73346087 7.17678261 9.87693913 7.17678261zM10.8999652 7.01853913L10.8999652 6.74671304 11.2166609 6.74671304 11.2166609 7.02427826C11.2166609 7.13801739 11.2672696 7.20323478 11.3836174 7.20323478 11.4910957 7.20323478 11.5385739 7.13175652 11.5385739 7.02427826L11.5385739 6.94706087C11.5385739 6.8301913 11.4910957 6.75871304 11.3867478 6.66010435L11.1864 6.46027826C10.992313 6.26932174 10.9030957 6.15297391 10.9030957 5.92027826L10.9030957 5.8514087C10.9030957 5.60045217 11.0491826 5.40636522 11.380487 5.40636522 11.7206609 5.40636522 11.8552696 5.57384348 11.8552696 5.86601739L11.8552696 6.03036522 11.5448348 6.03036522 11.5448348 5.85453913C11.5448348 5.73766957 11.4910957 5.68132174 11.3836174 5.68132174 11.2881391 5.68132174 11.2224 5.73506087 11.2224 5.84827826L11.2224 5.89001739C11.2224 6.00375652 11.2850087 6.06949565 11.3836174 6.16497391L11.6017043 6.3794087C11.7864 6.56775652 11.8761391 6.68097391 11.8761391 6.9048L11.8761391 7.0034087C11.8761391 7.28097391 11.7269217 7.4781913 11.380487 7.4781913 11.0345739 7.4781913 10.8999652 7.28410435 10.8999652 7.01853913M11.9713043 7.45424348L12.3532174 5.43041739 12.7413913 5.43041739 13.1264348 7.45424348 12.7773913 7.45424348 12.7147826 7.08433043 12.3532174 7.08433043 12.2937391 7.45424348 11.9713043 7.45424348zM12.398087 6.81250435L12.669913 6.81250435 12.5353043 6.00067826 12.5321739 6.00067826 12.398087 6.81250435z"/>
    <polygon fill="#000000" points="13.553 6.183 13.553 7.454 13.267 7.454 13.267 5.43 13.601 5.43 13.968 6.592 13.968 5.43 14.252 5.43 14.252 7.454 13.953 7.454"/>
    <polygon fill="#000000" points="14.445 7.454 14.786 7.454 14.786 5.43 14.445 5.43"/>
    <polygon fill="#000000" points="14.944 5.43 15.848 5.43 15.848 5.708 15.568 5.708 15.568 7.454 15.224 7.454 15.224 5.708 14.944 5.708"/>
    <path fill="#000000" d="M15.8030609,7.45424348 L16.1849739,5.43041739 L16.5731478,5.43041739 L16.9581913,7.45424348 L16.6091478,7.45424348 L16.5460174,7.08433043 L16.1849739,7.08433043 L16.1254957,7.45424348 L15.8030609,7.45424348 Z M16.2298435,6.81250435 L16.5016696,6.81250435 L16.3670609,6.00067826 L16.3639304,6.00067826 L16.2298435,6.81250435 Z"/>
    <polygon fill="#000000" points="16.91 5.43 17.815 5.43 17.815 5.708 17.534 5.708 17.534 7.454 17.191 7.454 17.191 5.708 16.91 5.708"/>
    <polygon fill="#000000" points="17.973 7.454 18.313 7.454 18.313 5.43 17.973 5.43"/>
    <path fill="#000000" d="M18.5098435,6.93182609 L18.5098435,5.95304348 C18.5098435,5.63634783 18.6653217,5.40626087 19.0232348,5.40626087 C19.3848,5.40626087 19.5397565,5.63634783 19.5397565,5.95304348 L19.5397565,6.93182609 C19.5397565,7.2453913 19.3848,7.47808696 19.0232348,7.47808696 C18.6653217,7.47808696 18.5098435,7.2453913 18.5098435,6.93182609 M19.1995826,6.98556522 L19.1995826,5.89930435 C19.1995826,5.77669565 19.1458435,5.69008696 19.0232348,5.69008696 C18.9037565,5.69008696 18.8500174,5.77669565 18.8500174,5.89930435 L18.8500174,6.98556522 C18.8500174,7.10817391 18.9037565,7.19426087 19.0232348,7.19426087 C19.1458435,7.19426087 19.1995826,7.10817391 19.1995826,6.98556522"/>
    <polygon fill="#000000" points="20.02 6.183 20.02 7.454 19.734 7.454 19.734 5.43 20.068 5.43 20.435 6.592 20.435 5.43 20.718 5.43 20.718 7.454 20.42 7.454"/>
  </g>
</svg>
