<svg xmlns="http://www.w3.org/2000/svg" width="427" height="55" viewBox="0 0 427 55">
  <g fill="none" fill-rule="evenodd">
    <path fill="#00AEEF" d="M1.5672,30.8824 L8.5122,30.8824 C14.7502,30.8824 18.7762,35.1844 18.7762,41.4844 L18.7762,41.7604 C18.7762,48.0604 14.7502,52.3934 8.5122,52.3934 L1.5672,52.3934 L1.5672,30.8824 Z M6.0232,34.9074 L6.0232,48.3684 L8.4812,48.3684 C11.8612,48.3684 14.1662,46.0014 14.1662,41.7304 L14.1662,41.5764 C14.1662,37.3044 11.8612,34.9074 8.4812,34.9074 L6.0232,34.9074 Z"/>
    <polygon fill="#00AEEF" points="21.14 30.882 34.999 30.882 34.999 34.907 25.565 34.907 25.565 39.548 33.863 39.548 33.863 43.573 25.565 43.573 25.565 48.368 35.122 48.368 35.122 52.393 21.14 52.393"/>
    <polygon fill="#00AEEF" points="35.859 30.882 40.683 30.882 45.231 45.694 49.779 30.882 54.481 30.882 47.229 52.516 43.112 52.516"/>
    <polygon fill="#00AEEF" points="56.016 30.882 69.875 30.882 69.875 34.907 60.441 34.907 60.441 39.548 68.739 39.548 68.739 43.573 60.441 43.573 60.441 48.368 69.998 48.368 69.998 52.393 56.016 52.393"/>
    <polygon fill="#00AEEF" points="72.363 30.882 76.819 30.882 76.819 48.306 85.516 48.306 85.516 52.393 72.363 52.393"/>
    <path fill="#00AEEF" d="M85.4841 41.8526L85.4841 41.4846C85.4841 35.0306 89.5411 30.5136 95.2261 30.5136 100.942 30.5136 104.937 35.0006 104.937 41.4226L104.937 41.7916C104.937 48.2146 100.88 52.7626 95.1951 52.7626 89.4791 52.7626 85.4841 48.2756 85.4841 41.8526M100.327 41.7606L100.327 41.5456C100.327 37.3046 98.1761 34.6316 95.1951 34.6316 92.1831 34.6316 90.0631 37.2736 90.0631 41.5146L90.0631 41.7306C90.0631 45.9706 92.2451 48.6446 95.2261 48.6446 98.2071 48.6446 100.327 46.0016 100.327 41.7606M107.331 30.8824L114.491 30.8824C119.316 30.8824 122.358 33.6784 122.358 38.2574L122.358 38.3184C122.358 43.2664 118.824 45.7554 114.307 45.8484L111.787 45.8484 111.787 52.3934 107.331 52.3934 107.331 30.8824zM114.276 41.8524C116.581 41.8524 117.872 40.4084 117.872 38.4114L117.872 38.3804C117.872 36.1364 116.581 34.9074 114.215 34.9074L111.787 34.9074 111.787 41.8524 114.276 41.8524z"/>
    <polygon fill="#00AEEF" points="124.14 30.882 128.811 30.882 133.605 39.609 138.337 30.882 143.039 30.882 143.039 52.393 138.675 52.393 138.675 38.656 133.605 47.537 133.513 47.537 128.473 38.718 128.473 52.393 124.14 52.393"/>
    <polygon fill="#00AEEF" points="146.201 30.882 160.06 30.882 160.06 34.907 150.626 34.907 150.626 39.548 158.924 39.548 158.924 43.573 150.626 43.573 150.626 48.368 160.183 48.368 160.183 52.393 146.201 52.393"/>
    <polygon fill="#00AEEF" points="162.548 30.882 166.635 30.882 174.871 43.42 174.871 30.882 179.235 30.882 179.235 52.393 175.424 52.393 166.912 39.394 166.912 52.393 162.548 52.393"/>
    <polygon fill="#00AEEF" points="186.517 35 181.108 35 181.108 30.882 196.351 30.882 196.351 35 190.942 35 190.942 52.393 186.517 52.393"/>
    <path fill="#00AEEF" d="M0 22.0466L2.898 18.4406C4.482 19.8226 6.404 21.1026 8.763 21.1026 10.649 21.1026 11.796 20.1586 11.796 18.7776L11.796 18.7436C11.796 17.5646 11.122 16.8226 7.751 15.5416 3.573 13.9246.978 12.3406.978 8.2956L.978 8.2286C.978 4.1166 4.145 1.3196 8.695 1.3196 11.458 1.3196 14.155 2.2636 16.312 4.2176L13.582 7.9256C12.099 6.7116 10.38 5.7346 8.56 5.7346 6.875 5.7346 5.83 6.5776 5.83 7.7906L5.83 7.8246C5.83 9.1726 6.639 9.8126 10.313 11.3296 14.424 12.9466 16.649 14.6996 16.649 18.3726L16.649 18.4406C16.649 22.8216 13.312 25.5176 8.728 25.5176 5.73 25.5176 2.595 24.4736 0 22.0466M18.7027 16.0475L18.7027 1.6225 23.5887 1.6225 23.5887 16.0815C23.5887 19.4175 25.1737 21.0695 27.7007 21.0695 30.2287 21.0695 31.8117 19.4515 31.8117 16.1825L31.8117 1.6225 36.6657 1.6225 36.6657 15.9465C36.6657 22.4505 33.0927 25.5855 27.6337 25.5855 22.2077 25.5855 18.7027 22.4175 18.7027 16.0475M38.1137 22.0466L41.0117 18.4406C42.5967 19.8226 44.5177 21.1026 46.8767 21.1026 48.7637 21.1026 49.9097 20.1586 49.9097 18.7776L49.9097 18.7436C49.9097 17.5646 49.2357 16.8226 45.8647 15.5416 41.6867 13.9246 39.0907 12.3406 39.0907 8.2956L39.0907 8.2286C39.0907 4.1166 42.2587 1.3196 46.8087 1.3196 49.5727 1.3196 52.2687 2.2636 54.4257 4.2176L51.6957 7.9256C50.2127 6.7116 48.4937 5.7346 46.6747 5.7346 44.9887 5.7346 43.9437 6.5776 43.9437 7.7906L43.9437 7.8246C43.9437 9.1726 44.7527 9.8126 48.4267 11.3296 52.5377 12.9466 54.7627 14.6996 54.7627 18.3726L54.7627 18.4406C54.7627 22.8216 51.4267 25.5176 46.8427 25.5176 43.8437 25.5176 40.7087 24.4736 38.1137 22.0466"/>
    <polygon fill="#00AEEF" points="61.13 6.139 55.198 6.139 55.198 1.623 71.915 1.623 71.915 6.139 65.983 6.139 65.983 25.214 61.13 25.214"/>
    <path fill="#00AEEF" d="M78.2157,1.4883 L82.8667,1.4883 L91.3257,25.2143 L86.2707,25.2143 L84.5177,20.0913 L76.3957,20.0913 L74.6767,25.2143 L69.7567,25.2143 L78.2157,1.4883 Z M83.0347,15.7773 L80.4737,8.0933 L77.8787,15.7773 L83.0347,15.7773 Z"/>
    <polygon fill="#00AEEF" points="93.178 25.215 98.064 25.215 98.064 1.623 93.178 1.623"/>
    <polygon fill="#00AEEF" points="101.703 1.623 106.186 1.623 115.218 15.374 115.218 1.623 120.003 1.623 120.003 25.215 115.824 25.215 106.489 10.959 106.489 25.215 101.703 25.215"/>
    <path fill="#00AEEF" d="M130.146 1.4883L134.796 1.4883 143.256 25.2143 138.201 25.2143 136.448 20.0913 128.326 20.0913 126.607 25.2143 121.687 25.2143 130.146 1.4883zM134.965 15.7773L132.404 8.0933 129.809 15.7773 134.965 15.7773zM144.938 1.623L153.701 1.623C156.329 1.623 158.52 2.331 159.868 3.679 160.913 4.757 161.452 6.038 161.452 7.69L161.452 7.79C161.452 10.554 159.935 12.037 158.251 12.947 160.778 13.924 162.463 15.475 162.463 18.575L162.463 18.744C162.463 22.99 159.059 25.215 153.937 25.215L144.938 25.215 144.938 1.623zM156.632 8.566C156.632 6.847 155.42 5.937 153.33 5.937L149.69 5.937 149.69 11.262 153.094 11.262C155.251 11.262 156.632 10.385 156.632 8.599L156.632 8.566zM153.97 15.374L149.69 15.374 149.69 20.901 154.071 20.901C156.262 20.901 157.644 19.957 157.644 18.137L157.644 18.103C157.644 16.418 156.397 15.374 153.97 15.374z"/>
    <polygon fill="#00AEEF" points="164.753 1.623 169.64 1.623 169.64 20.732 179.178 20.732 179.178 25.215 164.753 25.215"/>
    <polygon fill="#00AEEF" points="181.199 1.623 196.398 1.623 196.398 6.038 186.052 6.038 186.052 11.127 195.152 11.127 195.152 15.542 186.052 15.542 186.052 20.8 196.533 20.8 196.533 25.215 181.199 25.215"/>
    <path fill="#488BC9" d="M230.311,25.26 L254.145,25.26 C253.732,44.422 243.155,54.039 228.937,54.039 C213.62,54.039 203.799,41.126 203.799,27.251 C203.799,13.377 213.62,0.464 228.937,0.464 C245.903,0.464 250.573,11.041 252.497,16.537 L241.713,17.223 C239.859,12.69 236.149,9.668 228.937,9.668 C220.833,9.668 214.513,16.261 214.513,27.251 C214.513,36.523 220.351,44.835 229.625,44.835 C237.935,44.835 241.781,38.928 242.674,34.052 L230.311,34.052 L230.311,25.26 Z"/>
    <polygon fill="#488BC9" points="355.982 1.568 366.257 1.568 366.257 43.49 386.055 43.49 386.055 53.08 355.982 53.08"/>
    <path fill="#488BC9" d="M414.89,15.1295 C414.89,11.5675 411.465,9.3755 407.355,9.3755 C402.217,9.3755 399.135,11.6355 399.135,15.0615 C399.135,18.6235 402.56,20.3355 405.095,21.1585 L414.547,24.1725 C421.398,26.3645 426.261,30.3375 426.261,38.2835 C426.261,44.5865 421.739,54.0385 407.492,54.0385 C389.613,54.0385 387.968,42.4625 387.968,37.8725 L398.244,37.6675 C398.244,43.1465 402.56,45.2705 407.56,45.2705 C411.054,45.2705 415.985,43.5575 415.985,39.5845 C415.985,36.8455 414.822,35.4065 409.752,33.5565 L398.517,29.5145 C392.833,27.4605 388.859,22.4595 388.859,16.6375 C388.859,10.0615 393.381,0.6075 406.738,0.6075 C422.631,0.6075 425.165,11.1565 425.165,14.9245 L414.89,15.1295 Z"/>
    <path fill="#5FBB46" d="M270.57,20.919 C271.202,19.845 271.969,18.86 272.849,17.988 L265.377,9.795 C263.497,11.591 261.894,13.674 260.633,15.969 L270.57,20.919 Z"/>
    <path fill="#E5B733" d="M288.886,15.1312 C290.017,15.6492 291.069,16.3112 292.019,17.0942 L299.512,8.9142 C297.538,7.2122 295.301,5.8072 292.871,4.7712 L288.886,15.1312 Z"/>
    <path fill="#C5202F" d="M306.045,17.5944 L296.115,22.5444 C296.589,23.6514 296.926,24.8274 297.109,26.0534 L308.156,25.0104 C307.83,22.3954 307.106,19.9014 306.045,17.5944"/>
    <path fill="#4B9F45" d="M295.402,21.1098 L305.331,16.1598 C304.101,13.8748 302.533,11.7978 300.691,9.9988 L293.199,18.1778 C294.052,19.0548 294.794,20.0388 295.402,21.1098"/>
    <path fill="#427F44" d="M268.596,28.1665 C268.596,27.9425 268.603,27.7195 268.613,27.4975 L257.564,26.5085 C257.529,27.0565 257.508,27.6085 257.508,28.1665 C257.508,30.2855 257.771,32.3445 258.26,34.3125 L268.932,31.2505 C268.713,30.2565 268.596,29.2255 268.596,28.1665"/>
    <path fill="#F9C316" d="M294.011,37.248 C293.226,38.204 292.319,39.056 291.316,39.783 L297.15,49.229 C299.315,47.761 301.243,45.969 302.863,43.923 L294.011,37.248 Z"/>
    <path fill="#EF402C" d="M297.263,28.1665 C297.263,29.2125 297.151,30.2325 296.934,31.2155 L307.605,34.2805 C308.091,32.3215 308.351,30.2735 308.351,28.1665 C308.351,27.6425 308.333,27.1235 308.301,26.6065 L297.253,27.6495 C297.259,27.8225 297.263,27.9935 297.263,28.1665"/>
    <path fill="#F99F28" d="M272.027,37.4592 L263.196,44.1712 C264.838,46.1932 266.783,47.9562 268.963,49.3962 L274.796,39.9602 C273.768,39.2502 272.837,38.4072 272.027,37.4592"/>
    <path fill="#1996D4" d="M268.776,25.9034 C268.974,24.6554 269.335,23.4614 269.834,22.3444 L259.908,17.3984 C258.811,19.7324 258.059,22.2594 257.717,24.9114 L268.776,25.9034 Z"/>
    <path fill="#A31C44" d="M295.793,50.0832 L289.968,40.6502 C288.909,41.2472 287.769,41.7162 286.568,42.0312 L288.624,52.9432 C291.182,52.3552 293.594,51.3802 295.793,50.0832"/>
    <path fill="#28BDE2" d="M296.51,32.76 C296.123,33.895 295.601,34.966 294.959,35.954 L303.819,42.636 C305.257,40.568 306.395,38.277 307.172,35.824 L296.51,32.76 Z"/>
    <path fill="#F26A2C" d="M284.997,42.3497 C284.323,42.4477 283.632,42.5007 282.93,42.5007 C282.365,42.5007 281.808,42.4647 281.261,42.4017 L279.206,53.3137 C280.423,53.4927 281.665,53.5867 282.93,53.5867 C284.333,53.5867 285.71,53.4717 287.051,53.2527 L284.997,42.3497 Z"/>
    <path fill="#E9253C" d="M283.846,13.8616 C285.077,13.9406 286.267,14.1746 287.393,14.5466 L291.378,4.1896 C289.007,3.3516 286.478,2.8556 283.846,2.7636 L283.846,13.8616 Z"/>
    <path fill="#DD1768" d="M279.682,42.1286 C278.44,41.8386 277.259,41.3876 276.164,40.7976 L270.327,50.2386 C272.572,51.5236 275.027,52.4746 277.629,53.0296 L279.682,42.1286 Z"/>
    <path fill="#19496B" d="M278.622,14.4951 C279.773,14.1311 280.987,13.9101 282.243,13.8511 L282.243,2.7551 C279.575,2.8261 277.013,3.3121 274.61,4.1451 L278.622,14.4951 Z"/>
    <path fill="#C7982D" d="M271.055,36.184 C270.351,35.144 269.777,34.006 269.364,32.795 L258.7,35.855 C259.508,38.398 260.705,40.768 262.222,42.896 L271.055,36.184 Z"/>
    <path fill="#00699E" d="M274.049,16.9238 C274.986,16.1818 276.018,15.5558 277.123,15.0638 L273.113,4.7188 C270.724,5.7218 268.524,7.0798 266.572,8.7248 L274.049,16.9238 Z"/>
    <path fill="#488BC9" d="M339.134,42.1652 L320.039,42.1652 L316.636,53.0672 L305.387,53.0672 L324.412,0.8502 L335.384,0.8502 L354.131,53.0672 L342.674,53.0672 L339.134,42.1652 Z M329.689,13.4182 L329.551,13.4182 L322.954,33.6942 L336.355,33.6942 L329.689,13.4182 Z"/>
  </g>
</svg>
